<svg width="156" height="56" viewBox="0 0 156 56" fill="none" xmlns="http://www.w3.org/2000/svg">
<path fill-rule="evenodd" clip-rule="evenodd" d="M10.249 6.19809L0.65094 33.2859H5.98318L7.90279 21.9815H14.9413L20.4869 34.3523H25.1792L13.4483 6.19809H10.249ZM11.9552 10.8905L8.75591 19.4221H14.728L11.9552 10.8905Z" fill="white"/>
<path d="M67.9434 14.9062H71.459L71.0098 13.2852C70.9707 13.1549 70.6126 11.8073 69.9355 9.24219C69.8574 8.94271 69.7858 8.67578 69.7207 8.44141H69.6426C69.291 9.95182 68.8678 11.5664 68.373 13.2852L67.9434 14.9062ZM73.1387 21L72.1035 17.1914H67.2988L66.2637 21H63.2559L68.002 6.19531H71.4785L76.2246 21H73.1387ZM84.4941 21.2734C82.7103 21.2734 81.3105 20.6484 80.2949 19.3984C79.4486 18.3438 79.0254 17.0156 79.0254 15.4141C79.0254 13.4219 79.7155 11.8724 81.0957 10.7656C82.1374 9.93229 83.3548 9.51562 84.748 9.51562C85.959 9.52865 87.0462 9.94531 88.0098 10.7656L86.6035 12.6602C86.0176 12.1654 85.4447 11.918 84.8848 11.918C83.791 11.918 82.9902 12.4128 82.4824 13.4023C82.1829 13.9753 82.0332 14.6458 82.0332 15.4141C82.0332 16.8203 82.4694 17.8229 83.3418 18.4219C83.7845 18.7214 84.2728 18.8711 84.8066 18.8711C85.5618 18.8581 86.291 18.5586 86.9941 17.9727L88.1465 19.9258C87.1309 20.8242 85.9134 21.2734 84.4941 21.2734ZM97.0215 21.2734C95.2376 21.2734 93.8379 20.6484 92.8223 19.3984C91.9759 18.3438 91.5527 17.0156 91.5527 15.4141C91.5527 13.4219 92.2428 11.8724 93.623 10.7656C94.6647 9.93229 95.8822 9.51562 97.2754 9.51562C98.4863 9.52865 99.5736 9.94531 100.537 10.7656L99.1309 12.6602C98.5449 12.1654 97.972 11.918 97.4121 11.918C96.3184 11.918 95.5176 12.4128 95.0098 13.4023C94.7103 13.9753 94.5605 14.6458 94.5605 15.4141C94.5605 16.8203 94.9967 17.8229 95.8691 18.4219C96.3118 18.7214 96.8001 18.8711 97.334 18.8711C98.0892 18.8581 98.8184 18.5586 99.5215 17.9727L100.674 19.9258C99.6582 20.8242 98.4408 21.2734 97.0215 21.2734ZM109.471 21.2734C107.96 21.2734 106.684 20.7331 105.643 19.6523C104.601 18.5456 104.08 17.1328 104.08 15.4141C104.08 13.4349 104.738 11.8854 106.053 10.7656C107.042 9.93229 108.182 9.51562 109.471 9.51562C110.981 9.51562 112.251 10.0625 113.279 11.1562C114.321 12.263 114.842 13.6823 114.842 15.4141C114.842 17.3802 114.184 18.9232 112.869 20.043C111.893 20.8633 110.76 21.2734 109.471 21.2734ZM109.471 18.8711C110.538 18.8711 111.255 18.2656 111.619 17.0547C111.762 16.5729 111.834 16.026 111.834 15.4141C111.834 13.7344 111.378 12.6471 110.467 12.1523C110.167 11.9961 109.835 11.918 109.471 11.918C108.416 11.918 107.7 12.5039 107.322 13.6758C107.166 14.1836 107.088 14.763 107.088 15.4141C107.088 17.0547 107.537 18.1224 108.436 18.6172C108.748 18.7865 109.093 18.8711 109.471 18.8711ZM122.623 21.2734C120.344 21.2474 119.199 19.7565 119.186 16.8008V9.80859H122.115V16.4297C122.115 17.6927 122.421 18.4349 123.033 18.6562C123.229 18.7214 123.443 18.7539 123.678 18.7539C124.394 18.7539 125.038 18.4349 125.611 17.7969C125.729 17.6667 125.846 17.5234 125.963 17.3672V9.80859H128.893V21H126.51L126.275 19.3984H126.197C125.104 20.6224 123.912 21.2474 122.623 21.2734ZM134.037 21V9.80859H136.439L136.635 11.2734H136.713C137.924 10.1146 139.135 9.52865 140.346 9.51562C142.65 9.54167 143.809 11.0456 143.822 14.0273V21H140.873V14.3789C140.873 13.0898 140.548 12.3346 139.896 12.1133C139.714 12.0612 139.512 12.0352 139.291 12.0352C138.666 12.0352 138.028 12.3281 137.377 12.9141C137.247 13.0312 137.104 13.1615 136.947 13.3047V21H134.037ZM152.951 21.2734C150.503 21.2474 149.273 19.8477 149.26 17.0742V12.1133H147.697V9.94531L149.416 9.80859L149.748 6.80078H152.209V9.80859H154.963V12.1133H152.209V17.0742C152.235 18.3242 152.743 18.9557 153.732 18.9688C154.045 18.9688 154.41 18.8841 154.826 18.7148L155.314 20.8633C154.455 21.1367 153.667 21.2734 152.951 21.2734Z" fill="#136594"/>
<path d="M65.0762 52V37.1953H68.3574L70.877 44.1289C71.0462 44.6367 71.3457 45.5872 71.7754 46.9805H71.873C71.9642 46.694 72.0944 46.2708 72.2637 45.7109C72.485 44.9948 72.6543 44.4674 72.7715 44.1289L75.2324 37.1953H78.5137V52H75.8184V45.8281C75.8184 45.112 75.9421 43.4909 76.1895 40.9648H76.0918L74.9004 44.4414L72.6152 50.6523H70.916L68.6113 44.4414L67.4395 40.9648H67.3613C67.6087 43.5039 67.7324 45.125 67.7324 45.8281V52H65.0762ZM86.666 52.2734C85.429 52.2734 84.5046 51.8047 83.8926 50.8672C83.528 50.3073 83.3457 49.6693 83.3457 48.9531C83.3457 47.3906 84.2376 46.2773 86.0215 45.6133C86.985 45.2487 88.2415 44.9818 89.791 44.8125C89.7129 43.5365 89.0814 42.8919 87.8965 42.8789C87.0371 42.8919 86.0085 43.2435 84.8105 43.9336L83.7559 42C85.3704 41.0104 86.9264 40.5156 88.4238 40.5156C90.9238 40.5156 92.3366 41.7917 92.6621 44.3438C92.7012 44.6953 92.7207 45.0664 92.7207 45.457V52H90.3379L90.1035 50.8086H90.0449C88.8991 51.7852 87.7728 52.2734 86.666 52.2734ZM87.623 49.9883C88.3392 49.9753 89.0618 49.6042 89.791 48.875V46.6289C87.4473 47.0065 86.2363 47.7031 86.1582 48.7188C86.1582 49.487 86.5684 49.9036 87.3887 49.9688C87.4668 49.9818 87.5449 49.9883 87.623 49.9883ZM100.932 52.2734C99.6296 52.2734 98.3796 51.8763 97.1816 51.082C96.9993 50.9518 96.8301 50.8216 96.6738 50.6914L98.002 48.8555C99.0566 49.6758 100.059 50.0859 101.01 50.0859C102.012 49.9818 102.553 49.5846 102.631 48.8945C102.631 48.4388 102.227 48.0286 101.42 47.6641C101.316 47.625 100.938 47.4753 100.287 47.2148C98.6855 46.6029 97.7155 45.8281 97.377 44.8906C97.2728 44.5911 97.2207 44.2786 97.2207 43.9531C97.2207 42.7292 97.748 41.7982 98.8027 41.1602C99.5319 40.7305 100.391 40.5156 101.381 40.5156C102.709 40.5286 103.985 40.9909 105.209 41.9023L103.881 43.6797C102.969 43.0417 102.162 42.7227 101.459 42.7227C100.535 42.7878 100.046 43.1458 99.9941 43.7969C99.9941 44.2266 100.352 44.5977 101.068 44.9102C101.12 44.9232 101.518 45.0729 102.26 45.3594C103.51 45.8411 104.356 46.362 104.799 46.9219C105.189 47.4297 105.385 48.0352 105.385 48.7383C105.385 49.9883 104.851 50.9388 103.783 51.5898C103.015 52.0456 102.064 52.2734 100.932 52.2734ZM113.713 52.2734C111.265 52.2474 110.035 50.8477 110.021 48.0742V43.1133H108.459V40.9453L110.178 40.8086L110.51 37.8008H112.971V40.8086H115.725V43.1133H112.971V48.0742C112.997 49.3242 113.505 49.9557 114.494 49.9688C114.807 49.9688 115.171 49.8841 115.588 49.7148L116.076 51.8633C115.217 52.1367 114.429 52.2734 113.713 52.2734ZM124.873 52.2734C123.115 52.2734 121.715 51.668 120.674 50.457C119.762 49.3893 119.307 48.0417 119.307 46.4141C119.307 44.5 119.932 42.9701 121.182 41.8242C122.158 40.9518 123.271 40.5156 124.521 40.5156C126.383 40.5156 127.718 41.2773 128.525 42.8008C128.981 43.6732 129.209 44.7018 129.209 45.8867C129.209 46.4727 129.163 46.9154 129.072 47.2148H122.158C122.327 48.582 122.979 49.4609 124.111 49.8516C124.463 49.9688 124.847 50.0273 125.264 50.0273C126.123 50.0143 126.963 49.7539 127.783 49.2461L128.779 51.043C127.594 51.8633 126.292 52.2734 124.873 52.2734ZM122.119 45.2812H126.689C126.689 43.8359 126.13 43.0221 125.01 42.8398C124.867 42.8138 124.717 42.8008 124.561 42.8008C123.662 42.8008 122.979 43.2109 122.51 44.0312C122.314 44.3958 122.184 44.8125 122.119 45.2812ZM133.611 52V40.8086H136.014L136.209 42.7812H136.287C136.964 41.5703 137.817 40.8411 138.846 40.5938C139.067 40.5417 139.275 40.5156 139.471 40.5156C139.952 40.5156 140.395 40.6003 140.799 40.7695L140.271 43.3086C139.855 43.1784 139.464 43.1133 139.1 43.1133C138.201 43.1133 137.459 43.6081 136.873 44.5977C136.743 44.819 136.626 45.0599 136.521 45.3203V52H133.611Z" fill="#136594"/>
<rect x="2.5" y="1.5" width="49.2308" height="49.2308" rx="9.5" stroke="#136594" stroke-width="3"/>
<rect x="5.84619" y="3.76923" width="52.2308" height="52.2308" rx="11" fill="#136594"/>
<path d="M33.4298 29.6154L31.6923 49.5385H34.3775L36.1149 40.9231L41.6431 49.5385H44.6441L50 40.9231L51.4359 49.5385H55.3846L53.6472 29.6154H50.8041L43.3805 46.3761L36.1149 29.6154H33.4298Z" fill="white"/>
<path fill-rule="evenodd" clip-rule="evenodd" d="M17.505 7.53845L9.0769 31.3244H13.7592L15.4448 21.398H21.6254L26.495 32.2609H30.6154L20.3144 7.53845H17.505ZM19.0033 11.6589L16.194 19.1505H21.4381L19.0033 11.6589Z" fill="white"/>
</svg>
