<svg xmlns="http://www.w3.org/2000/svg" xmlns:xlink="http://www.w3.org/1999/xlink" width="120" zoomAndPan="magnify" viewBox="0 0 90 36.000001" height="48" preserveAspectRatio="xMidYMid meet" version="1.0"><defs><g/><clipPath id="4f1214ec63"><path d="M 1.214844 3.117188 L 15 3.117188 L 15 17 L 1.214844 17 Z M 1.214844 3.117188 " clip-rule="nonzero"/></clipPath><clipPath id="1f7fa4b4ac"><path d="M 17 3.117188 L 30.742188 3.117188 L 30.742188 17 L 17 17 Z M 17 3.117188 " clip-rule="nonzero"/></clipPath><clipPath id="41a1b9a9df"><path d="M 1.214844 19 L 15 19 L 15 32.644531 L 1.214844 32.644531 Z M 1.214844 19 " clip-rule="nonzero"/></clipPath><clipPath id="44bfb53014"><path d="M 17 19 L 30.742188 19 L 30.742188 32.644531 L 17 32.644531 Z M 17 19 " clip-rule="nonzero"/></clipPath><clipPath id="3056dd3090"><path d="M 83 6 L 88.78125 6 L 88.78125 16 L 83 16 Z M 83 6 " clip-rule="nonzero"/></clipPath></defs><g clip-path="url(#4f1214ec63)"><path fill="#2b7faf" d="M 13.519531 3.117188 L 2.035156 3.117188 C 1.808594 3.117188 1.617188 3.199219 1.457031 3.359375 C 1.296875 3.519531 1.214844 3.710938 1.214844 3.9375 L 1.214844 15.421875 C 1.214844 15.648438 1.296875 15.839844 1.457031 16 C 1.617188 16.160156 1.808594 16.242188 2.035156 16.242188 L 13.519531 16.242188 C 13.746094 16.242188 13.9375 16.160156 14.097656 16 C 14.257812 15.839844 14.339844 15.648438 14.339844 15.421875 L 14.339844 3.9375 C 14.339844 3.710938 14.257812 3.519531 14.097656 3.359375 C 13.9375 3.199219 13.746094 3.117188 13.519531 3.117188 Z M 12.699219 14.601562 L 2.855469 14.601562 L 2.855469 4.757812 L 12.699219 4.757812 Z M 12.699219 14.601562 " fill-opacity="1" fill-rule="nonzero"/></g><g clip-path="url(#1f7fa4b4ac)"><path fill="#2b7faf" d="M 29.921875 3.117188 L 18.4375 3.117188 C 18.210938 3.117188 18.019531 3.199219 17.859375 3.359375 C 17.699219 3.519531 17.617188 3.710938 17.617188 3.9375 L 17.617188 15.421875 C 17.617188 15.648438 17.699219 15.839844 17.859375 16 C 18.019531 16.160156 18.210938 16.242188 18.4375 16.242188 L 29.921875 16.242188 C 30.148438 16.242188 30.339844 16.160156 30.5 16 C 30.660156 15.839844 30.742188 15.648438 30.742188 15.421875 L 30.742188 3.9375 C 30.742188 3.710938 30.660156 3.519531 30.5 3.359375 C 30.339844 3.199219 30.148438 3.117188 29.921875 3.117188 Z M 29.101562 14.601562 L 19.257812 14.601562 L 19.257812 4.757812 L 29.101562 4.757812 Z M 29.101562 14.601562 " fill-opacity="1" fill-rule="nonzero"/></g><g clip-path="url(#41a1b9a9df)"><path fill="#2b7faf" d="M 13.519531 19.519531 L 2.035156 19.519531 C 1.808594 19.519531 1.617188 19.601562 1.457031 19.761719 C 1.296875 19.921875 1.214844 20.113281 1.214844 20.339844 L 1.214844 31.824219 C 1.214844 32.050781 1.296875 32.242188 1.457031 32.402344 C 1.617188 32.5625 1.808594 32.644531 2.035156 32.644531 L 13.519531 32.644531 C 13.746094 32.644531 13.9375 32.5625 14.097656 32.402344 C 14.257812 32.242188 14.339844 32.050781 14.339844 31.824219 L 14.339844 20.339844 C 14.339844 20.113281 14.257812 19.921875 14.097656 19.761719 C 13.9375 19.601562 13.746094 19.519531 13.519531 19.519531 Z M 12.699219 31.003906 L 2.855469 31.003906 L 2.855469 21.160156 L 12.699219 21.160156 Z M 12.699219 31.003906 " fill-opacity="1" fill-rule="nonzero"/></g><g clip-path="url(#44bfb53014)"><path fill="#2b7faf" d="M 29.921875 19.519531 L 18.4375 19.519531 C 18.210938 19.519531 18.019531 19.601562 17.859375 19.761719 C 17.699219 19.921875 17.617188 20.113281 17.617188 20.339844 L 17.617188 31.824219 C 17.617188 32.050781 17.699219 32.242188 17.859375 32.402344 C 18.019531 32.5625 18.210938 32.644531 18.4375 32.644531 L 29.921875 32.644531 C 30.148438 32.644531 30.339844 32.5625 30.5 32.402344 C 30.660156 32.242188 30.742188 32.050781 30.742188 31.824219 L 30.742188 20.339844 C 30.742188 20.113281 30.660156 19.921875 30.5 19.761719 C 30.339844 19.601562 30.148438 19.519531 29.921875 19.519531 Z M 29.101562 31.003906 L 19.257812 31.003906 L 19.257812 21.160156 L 29.101562 21.160156 Z M 29.101562 31.003906 " fill-opacity="1" fill-rule="nonzero"/></g><path fill="#2b7faf" d="M 5.726562 10.5 L 6.957031 10.5 L 6.957031 11.730469 C 6.957031 11.957031 7.039062 12.148438 7.199219 12.308594 C 7.359375 12.46875 7.550781 12.550781 7.777344 12.550781 C 8.003906 12.550781 8.195312 12.46875 8.355469 12.308594 C 8.515625 12.148438 8.597656 11.957031 8.597656 11.730469 L 8.597656 10.5 L 9.828125 10.5 C 10.054688 10.5 10.246094 10.417969 10.40625 10.257812 C 10.566406 10.097656 10.648438 9.90625 10.648438 9.679688 C 10.648438 9.453125 10.566406 9.257812 10.40625 9.097656 C 10.246094 8.9375 10.054688 8.859375 9.828125 8.859375 L 8.597656 8.859375 L 8.597656 7.628906 C 8.597656 7.402344 8.515625 7.210938 8.355469 7.050781 C 8.195312 6.890625 8.003906 6.808594 7.777344 6.808594 C 7.550781 6.808594 7.359375 6.890625 7.199219 7.050781 C 7.039062 7.210938 6.957031 7.402344 6.957031 7.628906 L 6.957031 8.859375 L 5.726562 8.859375 C 5.5 8.859375 5.308594 8.9375 5.148438 9.097656 C 4.988281 9.257812 4.90625 9.453125 4.90625 9.679688 C 4.90625 9.90625 4.988281 10.097656 5.148438 10.257812 C 5.308594 10.417969 5.5 10.5 5.726562 10.5 Z M 5.726562 10.5 " fill-opacity="1" fill-rule="nonzero"/><path fill="#2b7faf" d="M 22.128906 10.5 L 26.230469 10.5 C 26.457031 10.5 26.652344 10.417969 26.8125 10.257812 C 26.972656 10.097656 27.050781 9.90625 27.050781 9.679688 C 27.050781 9.453125 26.972656 9.257812 26.8125 9.097656 C 26.652344 8.9375 26.457031 8.859375 26.230469 8.859375 L 22.128906 8.859375 C 21.902344 8.859375 21.710938 8.9375 21.550781 9.097656 C 21.390625 9.257812 21.308594 9.453125 21.308594 9.679688 C 21.308594 9.90625 21.390625 10.097656 21.550781 10.257812 C 21.710938 10.417969 21.902344 10.5 22.128906 10.5 Z M 22.128906 10.5 " fill-opacity="1" fill-rule="nonzero"/><path fill="#2b7faf" d="M 22.128906 28.542969 L 26.230469 28.542969 C 26.457031 28.542969 26.652344 28.460938 26.8125 28.300781 C 26.972656 28.140625 27.050781 27.949219 27.050781 27.722656 C 27.050781 27.496094 26.972656 27.300781 26.8125 27.140625 C 26.652344 26.980469 26.457031 26.902344 26.230469 26.902344 L 22.128906 26.902344 C 21.902344 26.902344 21.710938 26.980469 21.550781 27.140625 C 21.390625 27.300781 21.308594 27.496094 21.308594 27.722656 C 21.308594 27.949219 21.390625 28.140625 21.550781 28.300781 C 21.710938 28.460938 21.902344 28.542969 22.128906 28.542969 Z M 22.128906 28.542969 " fill-opacity="1" fill-rule="nonzero"/><path fill="#2b7faf" d="M 22.128906 25.261719 L 26.230469 25.261719 C 26.457031 25.261719 26.652344 25.183594 26.8125 25.023438 C 26.972656 24.863281 27.050781 24.667969 27.050781 24.441406 C 27.050781 24.214844 26.972656 24.023438 26.8125 23.863281 C 26.652344 23.703125 26.457031 23.621094 26.230469 23.621094 L 22.128906 23.621094 C 21.902344 23.621094 21.710938 23.703125 21.550781 23.863281 C 21.390625 24.023438 21.308594 24.214844 21.308594 24.441406 C 21.308594 24.667969 21.390625 24.863281 21.550781 25.023438 C 21.710938 25.183594 21.902344 25.261719 22.128906 25.261719 Z M 22.128906 25.261719 " fill-opacity="1" fill-rule="nonzero"/><path fill="#2b7faf" d="M 5.554688 28.304688 C 5.714844 28.464844 5.910156 28.542969 6.136719 28.542969 C 6.363281 28.542969 6.558594 28.464844 6.71875 28.304688 L 7.777344 27.246094 L 8.835938 28.304688 C 8.996094 28.464844 9.191406 28.542969 9.417969 28.542969 C 9.644531 28.542969 9.839844 28.464844 10 28.304688 C 10.160156 28.144531 10.242188 27.949219 10.242188 27.722656 C 10.242188 27.496094 10.160156 27.300781 10 27.140625 L 8.941406 26.082031 L 10 25.023438 C 10.160156 24.863281 10.238281 24.667969 10.238281 24.441406 C 10.238281 24.214844 10.160156 24.019531 10 23.859375 C 9.839844 23.699219 9.644531 23.621094 9.417969 23.621094 C 9.191406 23.621094 8.996094 23.699219 8.835938 23.859375 L 7.777344 24.917969 L 6.71875 23.859375 C 6.558594 23.699219 6.363281 23.617188 6.136719 23.617188 C 5.910156 23.617188 5.714844 23.699219 5.554688 23.859375 C 5.394531 24.019531 5.3125 24.214844 5.3125 24.441406 C 5.3125 24.667969 5.394531 24.863281 5.554688 25.023438 L 6.613281 26.082031 L 5.554688 27.140625 C 5.394531 27.300781 5.3125 27.496094 5.3125 27.722656 C 5.3125 27.949219 5.394531 28.144531 5.554688 28.304688 Z M 5.554688 28.304688 " fill-opacity="1" fill-rule="nonzero"/><g fill="#2b7faf" fill-opacity="1"><g transform="translate(33.641449, 15.353131)"><g><path d="M 9.648438 -0.246094 L 6.164062 -9.910156 C 6.121094 -10.023438 6.007812 -10.082031 5.890625 -10.082031 L 4.234375 -10.082031 C 4.117188 -10.082031 4.03125 -10.023438 3.988281 -9.910156 L 0.503906 -0.246094 C 0.445312 -0.101562 0.519531 0 0.675781 0 L 2.550781 0 C 2.664062 0 2.75 -0.0429688 2.792969 -0.171875 L 3.296875 -1.726562 L 6.855469 -1.726562 L 7.359375 -0.171875 C 7.402344 -0.0429688 7.488281 0 7.605469 0 L 9.476562 0 C 9.636719 0 9.707031 -0.101562 9.648438 -0.246094 Z M 3.902344 -3.527344 L 5.085938 -7.144531 L 6.265625 -3.527344 Z M 3.902344 -3.527344 "/></g></g></g><g fill="#2b7faf" fill-opacity="1"><g transform="translate(43.507196, 15.353131)"><g><path d="M 4.304688 -1.902344 C 3.371094 -1.902344 2.707031 -2.636719 2.707031 -3.570312 C 2.707031 -4.480469 3.371094 -5.199219 4.304688 -5.199219 C 4.796875 -5.199219 5.199219 -5.011719 5.601562 -4.652344 C 5.71875 -4.550781 5.820312 -4.535156 5.917969 -4.636719 L 6.957031 -5.644531 C 7.042969 -5.730469 7.058594 -5.847656 6.972656 -5.949219 C 6.308594 -6.710938 5.34375 -7.203125 4.25 -7.203125 C 2.21875 -7.203125 0.632812 -5.589844 0.632812 -3.570312 C 0.632812 -1.527344 2.21875 0.101562 4.25 0.101562 C 5.371094 0.101562 6.351562 -0.390625 7.015625 -1.152344 C 7.101562 -1.253906 7.085938 -1.367188 7 -1.453125 L 5.960938 -2.449219 C 5.863281 -2.550781 5.761719 -2.550781 5.644531 -2.449219 C 5.242188 -2.101562 4.824219 -1.902344 4.304688 -1.902344 Z M 4.304688 -1.902344 "/></g></g></g><g fill="#2b7faf" fill-opacity="1"><g transform="translate(50.852496, 15.353131)"><g><path d="M 4.304688 -1.902344 C 3.371094 -1.902344 2.707031 -2.636719 2.707031 -3.570312 C 2.707031 -4.480469 3.371094 -5.199219 4.304688 -5.199219 C 4.796875 -5.199219 5.199219 -5.011719 5.601562 -4.652344 C 5.71875 -4.550781 5.820312 -4.535156 5.917969 -4.636719 L 6.957031 -5.644531 C 7.042969 -5.730469 7.058594 -5.847656 6.972656 -5.949219 C 6.308594 -6.710938 5.34375 -7.203125 4.25 -7.203125 C 2.21875 -7.203125 0.632812 -5.589844 0.632812 -3.570312 C 0.632812 -1.527344 2.21875 0.101562 4.25 0.101562 C 5.371094 0.101562 6.351562 -0.390625 7.015625 -1.152344 C 7.101562 -1.253906 7.085938 -1.367188 7 -1.453125 L 5.960938 -2.449219 C 5.863281 -2.550781 5.761719 -2.550781 5.644531 -2.449219 C 5.242188 -2.101562 4.824219 -1.902344 4.304688 -1.902344 Z M 4.304688 -1.902344 "/></g></g></g><g fill="#2b7faf" fill-opacity="1"><g transform="translate(58.197796, 15.353131)"><g><path d="M 4.304688 0.144531 C 6.351562 0.144531 7.992188 -1.484375 7.992188 -3.527344 C 7.992188 -5.589844 6.351562 -7.214844 4.304688 -7.214844 C 2.277344 -7.214844 0.632812 -5.589844 0.632812 -3.527344 C 0.632812 -1.484375 2.277344 0.144531 4.304688 0.144531 Z M 4.304688 -1.859375 C 3.429688 -1.859375 2.707031 -2.5625 2.707031 -3.527344 C 2.707031 -4.507812 3.429688 -5.214844 4.304688 -5.214844 C 5.199219 -5.214844 5.90625 -4.507812 5.90625 -3.527344 C 5.90625 -2.5625 5.199219 -1.859375 4.304688 -1.859375 Z M 4.304688 -1.859375 "/></g></g></g><g fill="#2b7faf" fill-opacity="1"><g transform="translate(66.536875, 15.353131)"><g><path d="M 7.460938 -7.058594 L 5.730469 -7.058594 C 5.601562 -7.058594 5.515625 -6.972656 5.515625 -6.839844 L 5.515625 -3.082031 C 5.515625 -2.550781 5.097656 -1.828125 4.175781 -1.828125 C 3.628906 -1.828125 2.9375 -2.144531 2.9375 -3.285156 L 2.9375 -6.839844 C 2.9375 -6.972656 2.851562 -7.058594 2.722656 -7.058594 L 0.992188 -7.058594 C 0.863281 -7.058594 0.777344 -6.972656 0.777344 -6.839844 L 0.777344 -2.851562 C 0.777344 -0.964844 1.902344 0.1875 3.472656 0.1875 C 4.320312 0.1875 5.039062 -0.300781 5.515625 -0.980469 L 5.574219 -0.214844 C 5.589844 -0.0859375 5.660156 0 5.789062 0 L 7.460938 0 C 7.589844 0 7.675781 -0.0859375 7.675781 -0.214844 L 7.675781 -6.839844 C 7.675781 -6.972656 7.589844 -7.058594 7.460938 -7.058594 Z M 7.460938 -7.058594 "/></g></g></g><g fill="#2b7faf" fill-opacity="1"><g transform="translate(74.775136, 15.353131)"><g><path d="M 5.183594 -7.214844 C 4.175781 -7.214844 3.457031 -6.683594 3.011719 -5.949219 L 2.953125 -6.839844 C 2.9375 -6.972656 2.867188 -7.058594 2.738281 -7.058594 L 1.066406 -7.058594 C 0.9375 -7.058594 0.851562 -6.972656 0.851562 -6.839844 L 0.851562 -0.214844 C 0.851562 -0.0859375 0.9375 0 1.066406 0 L 2.792969 0 C 2.921875 0 3.011719 -0.0859375 3.011719 -0.214844 L 3.011719 -3.917969 C 3.011719 -4.261719 3.414062 -5.214844 4.378906 -5.214844 C 4.953125 -5.214844 5.589844 -4.882812 5.589844 -3.746094 L 5.589844 -0.214844 C 5.589844 -0.0859375 5.675781 0 5.804688 0 L 7.53125 0 C 7.664062 0 7.75 -0.0859375 7.75 -0.214844 L 7.75 -4.175781 C 7.75 -6.0625 6.609375 -7.214844 5.183594 -7.214844 Z M 5.183594 -7.214844 "/></g></g></g><g clip-path="url(#3056dd3090)"><g fill="#2b7faf" fill-opacity="1"><g transform="translate(83.085403, 15.353131)"><g><path d="M 5.171875 -7.058594 L 4.019531 -7.058594 L 4.019531 -9 C 4.019531 -9.132812 3.933594 -9.21875 3.800781 -9.21875 L 2.074219 -9.21875 C 1.945312 -9.21875 1.859375 -9.132812 1.859375 -9 L 1.859375 -7.058594 L 0.707031 -7.058594 C 0.574219 -7.058594 0.488281 -6.972656 0.488281 -6.839844 L 0.488281 -5.53125 C 0.488281 -5.402344 0.574219 -5.316406 0.707031 -5.316406 L 1.859375 -5.316406 L 1.859375 -0.214844 C 1.859375 -0.0859375 1.945312 0 2.074219 0 L 3.800781 0 C 3.933594 0 4.019531 -0.0859375 4.019531 -0.214844 L 4.019531 -5.316406 L 5.171875 -5.316406 C 5.300781 -5.316406 5.386719 -5.402344 5.386719 -5.53125 L 5.386719 -6.839844 C 5.386719 -6.972656 5.300781 -7.058594 5.171875 -7.058594 Z M 5.171875 -7.058594 "/></g></g></g></g><g fill="#2b7faf" fill-opacity="1"><g transform="translate(33.641449, 31.195948)"><g><path d="M 11.59375 -10.082031 L 9.605469 -10.082031 C 9.492188 -10.082031 9.390625 -10.039062 9.347656 -9.9375 L 6.410156 -2.59375 L 3.441406 -9.9375 C 3.398438 -10.039062 3.296875 -10.082031 3.183594 -10.082031 L 1.210938 -10.082031 C 1.082031 -10.082031 0.992188 -9.996094 0.992188 -9.867188 L 0.992188 -0.214844 C 0.992188 -0.0859375 1.082031 0 1.210938 0 L 3.011719 0 C 3.140625 0 3.226562 -0.0859375 3.226562 -0.214844 L 3.226562 -5.917969 L 3.414062 -5.226562 L 5.34375 -0.171875 C 5.386719 -0.0585938 5.5 0 5.617188 0 L 7.203125 0 C 7.316406 0 7.417969 -0.0585938 7.460938 -0.171875 L 9.390625 -5.226562 L 9.578125 -5.90625 L 9.578125 -0.214844 C 9.578125 -0.0859375 9.664062 0 9.792969 0 L 11.59375 0 C 11.722656 0 11.808594 -0.0859375 11.808594 -0.214844 L 11.808594 -9.867188 C 11.808594 -9.996094 11.722656 -10.082031 11.59375 -10.082031 Z M 11.59375 -10.082031 "/></g></g></g><g fill="#2b7faf" fill-opacity="1"><g transform="translate(46.157262, 31.195948)"><g><path d="M 7.835938 -7.058594 L 6.367188 -7.058594 C 6.234375 -7.058594 6.164062 -6.972656 6.148438 -6.839844 L 6.078125 -6.191406 C 5.601562 -6.796875 4.941406 -7.203125 4.046875 -7.203125 C 2.074219 -7.203125 0.632812 -5.574219 0.632812 -3.515625 C 0.632812 -1.496094 2.074219 0.101562 4.046875 0.101562 C 4.96875 0.101562 5.617188 -0.273438 6.0625 -0.820312 L 6.148438 -0.214844 C 6.164062 -0.0859375 6.234375 0 6.367188 0 L 7.835938 0 C 7.964844 0 8.050781 -0.0859375 8.050781 -0.214844 L 8.050781 -6.839844 C 8.050781 -6.972656 7.964844 -7.058594 7.835938 -7.058594 Z M 4.304688 -1.871094 C 3.382812 -1.871094 2.707031 -2.550781 2.707031 -3.527344 C 2.707031 -4.535156 3.382812 -5.226562 4.304688 -5.226562 C 5.257812 -5.226562 5.890625 -4.480469 5.890625 -3.527344 C 5.890625 -2.5625 5.257812 -1.871094 4.304688 -1.871094 Z M 4.304688 -1.871094 "/></g></g></g><g fill="#2b7faf" fill-opacity="1"><g transform="translate(54.769983, 31.195948)"><g><path d="M 2.824219 -5.011719 C 2.824219 -5.257812 3.023438 -5.5 3.457031 -5.5 C 3.890625 -5.5 4.191406 -5.328125 4.738281 -5.011719 C 4.867188 -4.925781 4.96875 -4.882812 5.054688 -4.996094 L 5.703125 -5.847656 C 5.777344 -5.933594 5.804688 -6.050781 5.71875 -6.148438 C 5.128906 -6.839844 4.207031 -7.214844 3.242188 -7.214844 C 1.972656 -7.214844 0.75 -6.421875 0.75 -4.996094 C 0.75 -2.621094 4.003906 -3.066406 4.003906 -2.117188 C 4.003906 -1.726562 3.585938 -1.65625 3.253906 -1.65625 C 2.792969 -1.65625 2.230469 -1.84375 1.585938 -2.246094 C 1.453125 -2.320312 1.339844 -2.347656 1.253906 -2.246094 L 0.621094 -1.324219 C 0.5625 -1.238281 0.53125 -1.136719 0.621094 -1.035156 C 1.125 -0.445312 2.101562 0.144531 3.328125 0.144531 C 4.636719 0.144531 6.105469 -0.648438 6.105469 -2.089844 C 6.105469 -4.695312 2.824219 -4.019531 2.824219 -5.011719 Z M 2.824219 -5.011719 "/></g></g></g><g fill="#2b7faf" fill-opacity="1"><g transform="translate(61.135909, 31.195948)"><g><path d="M 5.171875 -7.058594 L 4.019531 -7.058594 L 4.019531 -9 C 4.019531 -9.132812 3.933594 -9.21875 3.800781 -9.21875 L 2.074219 -9.21875 C 1.945312 -9.21875 1.859375 -9.132812 1.859375 -9 L 1.859375 -7.058594 L 0.707031 -7.058594 C 0.574219 -7.058594 0.488281 -6.972656 0.488281 -6.839844 L 0.488281 -5.53125 C 0.488281 -5.402344 0.574219 -5.316406 0.707031 -5.316406 L 1.859375 -5.316406 L 1.859375 -0.214844 C 1.859375 -0.0859375 1.945312 0 2.074219 0 L 3.800781 0 C 3.933594 0 4.019531 -0.0859375 4.019531 -0.214844 L 4.019531 -5.316406 L 5.171875 -5.316406 C 5.300781 -5.316406 5.386719 -5.402344 5.386719 -5.53125 L 5.386719 -6.839844 C 5.386719 -6.972656 5.300781 -7.058594 5.171875 -7.058594 Z M 5.171875 -7.058594 "/></g></g></g><g fill="#2b7faf" fill-opacity="1"><g transform="translate(66.724093, 31.195948)"><g><path d="M 7.574219 -3.6875 C 7.574219 -5.589844 6.265625 -7.203125 4.21875 -7.203125 C 2.160156 -7.203125 0.632812 -5.589844 0.632812 -3.558594 C 0.632812 -1.527344 2.160156 0.101562 4.378906 0.101562 C 5.402344 0.101562 6.324219 -0.300781 7 -0.980469 C 7.113281 -1.09375 7.113281 -1.195312 7.027344 -1.296875 L 6.28125 -2.015625 C 6.179688 -2.117188 6.09375 -2.132812 5.960938 -2.046875 C 5.457031 -1.726562 5.054688 -1.628906 4.59375 -1.628906 C 3.628906 -1.628906 2.996094 -2.03125 2.78125 -2.792969 L 7.058594 -2.792969 C 7.503906 -2.792969 7.574219 -3.097656 7.574219 -3.6875 Z M 4.234375 -5.371094 C 4.925781 -5.371094 5.515625 -4.984375 5.660156 -4.164062 L 2.75 -4.164062 C 2.910156 -4.984375 3.515625 -5.371094 4.234375 -5.371094 Z M 4.234375 -5.371094 "/></g></g></g><g fill="#2b7faf" fill-opacity="1"><g transform="translate(74.645496, 31.195948)"><g><path d="M 5.789062 -6.855469 C 5.589844 -7.042969 5.226562 -7.214844 4.808594 -7.214844 C 3.945312 -7.214844 3.355469 -6.710938 2.996094 -6.019531 L 2.9375 -6.839844 C 2.921875 -6.972656 2.851562 -7.058594 2.722656 -7.058594 L 1.066406 -7.058594 C 0.9375 -7.058594 0.851562 -6.972656 0.851562 -6.839844 L 0.851562 -0.214844 C 0.851562 -0.0859375 0.9375 0 1.066406 0 L 2.792969 0 C 2.921875 0 3.011719 -0.0859375 3.011719 -0.214844 L 3.011719 -3.730469 C 3.011719 -4.59375 3.542969 -5.257812 4.4375 -5.257812 C 4.710938 -5.257812 4.882812 -5.183594 5.027344 -5.140625 C 5.199219 -5.097656 5.328125 -5.128906 5.386719 -5.300781 L 5.863281 -6.539062 C 5.90625 -6.640625 5.90625 -6.753906 5.789062 -6.855469 Z M 5.789062 -6.855469 "/></g></g></g></svg>