<svg xmlns="http://www.w3.org/2000/svg" xmlns:xlink="http://www.w3.org/1999/xlink" width="500" zoomAndPan="magnify" viewBox="0 0 375 374.999991" height="500" preserveAspectRatio="xMidYMid meet" version="1.0"><defs><g/><clipPath id="f3a5fee878"><path d="M 143.046875 113.667969 L 183 113.667969 L 183 154 L 143.046875 154 Z M 143.046875 113.667969 " clip-rule="nonzero"/></clipPath><clipPath id="502879b6ee"><path d="M 192 113.667969 L 232.296875 113.667969 L 232.296875 154 L 192 154 Z M 192 113.667969 " clip-rule="nonzero"/></clipPath><clipPath id="991a0196b9"><path d="M 143.046875 163 L 183 163 L 183 202.917969 L 143.046875 202.917969 Z M 143.046875 163 " clip-rule="nonzero"/></clipPath><clipPath id="48f78e0a09"><path d="M 192 163 L 232.296875 163 L 232.296875 202.917969 L 192 202.917969 Z M 192 163 " clip-rule="nonzero"/></clipPath></defs><g clip-path="url(#f3a5fee878)"><path fill="#2b7faf" d="M 180.234375 113.667969 L 145.523438 113.667969 C 145.195312 113.667969 144.878906 113.730469 144.574219 113.859375 C 144.273438 113.984375 144.003906 114.164062 143.773438 114.394531 C 143.539062 114.628906 143.359375 114.894531 143.234375 115.199219 C 143.109375 115.503906 143.046875 115.820312 143.046875 116.148438 L 143.046875 150.855469 C 143.046875 151.183594 143.109375 151.5 143.234375 151.804688 C 143.359375 152.109375 143.539062 152.378906 143.773438 152.609375 C 144.003906 152.84375 144.273438 153.019531 144.574219 153.148438 C 144.878906 153.273438 145.195312 153.335938 145.523438 153.335938 L 180.234375 153.335938 C 180.5625 153.335938 180.878906 153.273438 181.183594 153.148438 C 181.484375 153.019531 181.753906 152.84375 181.984375 152.609375 C 182.21875 152.378906 182.398438 152.109375 182.523438 151.804688 C 182.648438 151.5 182.710938 151.183594 182.710938 150.855469 L 182.710938 116.148438 C 182.710938 115.820312 182.648438 115.503906 182.523438 115.199219 C 182.398438 114.894531 182.21875 114.628906 181.984375 114.394531 C 181.753906 114.164062 181.484375 113.984375 181.183594 113.859375 C 180.878906 113.730469 180.5625 113.667969 180.234375 113.667969 Z M 177.753906 148.378906 L 148.003906 148.378906 L 148.003906 118.628906 L 177.753906 118.628906 Z M 177.753906 148.378906 " fill-opacity="1" fill-rule="nonzero"/></g><g clip-path="url(#502879b6ee)"><path fill="#2b7faf" d="M 229.816406 113.667969 L 195.109375 113.667969 C 194.78125 113.667969 194.464844 113.730469 194.160156 113.859375 C 193.855469 113.984375 193.585938 114.164062 193.355469 114.394531 C 193.121094 114.628906 192.945312 114.894531 192.816406 115.199219 C 192.691406 115.503906 192.628906 115.820312 192.628906 116.148438 L 192.628906 150.855469 C 192.628906 151.183594 192.691406 151.5 192.816406 151.804688 C 192.945312 152.109375 193.121094 152.378906 193.355469 152.609375 C 193.585938 152.84375 193.855469 153.019531 194.160156 153.148438 C 194.464844 153.273438 194.78125 153.335938 195.109375 153.335938 L 229.816406 153.335938 C 230.144531 153.335938 230.460938 153.273438 230.765625 153.148438 C 231.070312 153.019531 231.335938 152.84375 231.570312 152.609375 C 231.800781 152.378906 231.980469 152.109375 232.105469 151.804688 C 232.234375 151.5 232.296875 151.183594 232.296875 150.855469 L 232.296875 116.148438 C 232.296875 115.820312 232.234375 115.503906 232.105469 115.199219 C 231.980469 114.894531 231.800781 114.628906 231.570312 114.394531 C 231.335938 114.164062 231.070312 113.984375 230.765625 113.859375 C 230.460938 113.730469 230.144531 113.667969 229.816406 113.667969 Z M 227.335938 148.378906 L 197.585938 148.378906 L 197.585938 118.628906 L 227.335938 118.628906 Z M 227.335938 148.378906 " fill-opacity="1" fill-rule="nonzero"/></g><g clip-path="url(#991a0196b9)"><path fill="#2b7faf" d="M 180.234375 163.253906 L 145.523438 163.253906 C 145.195312 163.253906 144.878906 163.316406 144.574219 163.441406 C 144.273438 163.566406 144.003906 163.746094 143.773438 163.976562 C 143.539062 164.210938 143.359375 164.480469 143.234375 164.78125 C 143.109375 165.085938 143.046875 165.402344 143.046875 165.730469 L 143.046875 200.441406 C 143.046875 200.769531 143.109375 201.085938 143.234375 201.386719 C 143.359375 201.691406 143.539062 201.960938 143.773438 202.191406 C 144.003906 202.425781 144.273438 202.605469 144.574219 202.730469 C 144.878906 202.855469 145.195312 202.917969 145.523438 202.917969 L 180.234375 202.917969 C 180.5625 202.917969 180.878906 202.855469 181.183594 202.730469 C 181.484375 202.605469 181.753906 202.425781 181.984375 202.191406 C 182.21875 201.960938 182.398438 201.691406 182.523438 201.386719 C 182.648438 201.085938 182.710938 200.769531 182.710938 200.441406 L 182.710938 165.730469 C 182.710938 165.402344 182.648438 165.085938 182.523438 164.78125 C 182.398438 164.480469 182.21875 164.210938 181.984375 163.976562 C 181.753906 163.746094 181.484375 163.566406 181.183594 163.441406 C 180.878906 163.316406 180.5625 163.253906 180.234375 163.253906 Z M 177.753906 197.960938 L 148.003906 197.960938 L 148.003906 168.210938 L 177.753906 168.210938 Z M 177.753906 197.960938 " fill-opacity="1" fill-rule="nonzero"/></g><g clip-path="url(#48f78e0a09)"><path fill="#2b7faf" d="M 229.816406 163.253906 L 195.109375 163.253906 C 194.78125 163.253906 194.464844 163.316406 194.160156 163.441406 C 193.855469 163.566406 193.585938 163.746094 193.355469 163.976562 C 193.121094 164.210938 192.945312 164.480469 192.816406 164.78125 C 192.691406 165.085938 192.628906 165.402344 192.628906 165.730469 L 192.628906 200.441406 C 192.628906 200.769531 192.691406 201.085938 192.816406 201.386719 C 192.945312 201.691406 193.121094 201.960938 193.355469 202.191406 C 193.585938 202.425781 193.855469 202.605469 194.160156 202.730469 C 194.464844 202.855469 194.78125 202.917969 195.109375 202.917969 L 229.816406 202.917969 C 230.144531 202.917969 230.460938 202.855469 230.765625 202.730469 C 231.070312 202.605469 231.335938 202.425781 231.570312 202.191406 C 231.800781 201.960938 231.980469 201.691406 232.105469 201.386719 C 232.234375 201.085938 232.296875 200.769531 232.296875 200.441406 L 232.296875 165.730469 C 232.296875 165.402344 232.234375 165.085938 232.105469 164.78125 C 231.980469 164.480469 231.800781 164.210938 231.570312 163.976562 C 231.335938 163.746094 231.070312 163.566406 230.765625 163.441406 C 230.460938 163.316406 230.144531 163.253906 229.816406 163.253906 Z M 227.335938 197.960938 L 197.585938 197.960938 L 197.585938 168.210938 L 227.335938 168.210938 Z M 227.335938 197.960938 " fill-opacity="1" fill-rule="nonzero"/></g><path fill="#2b7faf" d="M 156.679688 135.980469 L 160.398438 135.980469 L 160.398438 139.699219 C 160.398438 140.027344 160.460938 140.34375 160.589844 140.648438 C 160.714844 140.953125 160.894531 141.222656 161.125 141.453125 C 161.359375 141.6875 161.625 141.863281 161.929688 141.992188 C 162.234375 142.117188 162.550781 142.179688 162.878906 142.179688 C 163.207031 142.179688 163.523438 142.117188 163.828125 141.992188 C 164.132812 141.863281 164.398438 141.6875 164.632812 141.453125 C 164.863281 141.222656 165.042969 140.953125 165.167969 140.648438 C 165.296875 140.34375 165.359375 140.027344 165.359375 139.699219 L 165.359375 135.980469 L 169.078125 135.980469 C 169.40625 135.980469 169.722656 135.917969 170.027344 135.792969 C 170.328125 135.667969 170.597656 135.488281 170.828125 135.253906 C 171.0625 135.023438 171.242188 134.753906 171.367188 134.449219 C 171.492188 134.148438 171.554688 133.832031 171.554688 133.503906 C 171.554688 133.171875 171.492188 132.855469 171.367188 132.554688 C 171.242188 132.25 171.0625 131.980469 170.828125 131.75 C 170.597656 131.515625 170.328125 131.335938 170.027344 131.210938 C 169.722656 131.085938 169.40625 131.023438 169.078125 131.023438 L 165.359375 131.023438 L 165.359375 127.304688 C 165.359375 126.976562 165.296875 126.660156 165.167969 126.355469 C 165.042969 126.050781 164.863281 125.785156 164.632812 125.550781 C 164.398438 125.320312 164.132812 125.140625 163.828125 125.015625 C 163.523438 124.886719 163.207031 124.824219 162.878906 124.824219 C 162.550781 124.824219 162.234375 124.886719 161.929688 125.015625 C 161.625 125.140625 161.359375 125.320312 161.125 125.550781 C 160.894531 125.785156 160.714844 126.050781 160.589844 126.355469 C 160.460938 126.660156 160.398438 126.976562 160.398438 127.304688 L 160.398438 131.023438 L 156.679688 131.023438 C 156.351562 131.023438 156.035156 131.085938 155.730469 131.210938 C 155.429688 131.335938 155.160156 131.515625 154.929688 131.75 C 154.695312 131.980469 154.515625 132.25 154.390625 132.554688 C 154.265625 132.855469 154.203125 133.171875 154.203125 133.503906 C 154.203125 133.832031 154.265625 134.148438 154.390625 134.449219 C 154.515625 134.753906 154.695312 135.023438 154.929688 135.253906 C 155.160156 135.488281 155.429688 135.667969 155.730469 135.792969 C 156.035156 135.917969 156.351562 135.980469 156.679688 135.980469 Z M 156.679688 135.980469 " fill-opacity="1" fill-rule="nonzero"/><path fill="#2b7faf" d="M 206.265625 135.980469 L 218.660156 135.980469 C 218.988281 135.980469 219.304688 135.917969 219.609375 135.792969 C 219.914062 135.667969 220.179688 135.488281 220.414062 135.253906 C 220.644531 135.023438 220.824219 134.753906 220.949219 134.449219 C 221.078125 134.148438 221.140625 133.832031 221.140625 133.503906 C 221.140625 133.171875 221.078125 132.855469 220.949219 132.554688 C 220.824219 132.25 220.644531 131.980469 220.414062 131.75 C 220.179688 131.515625 219.914062 131.335938 219.609375 131.210938 C 219.304688 131.085938 218.988281 131.023438 218.660156 131.023438 L 206.265625 131.023438 C 205.9375 131.023438 205.621094 131.085938 205.316406 131.210938 C 205.011719 131.335938 204.742188 131.515625 204.511719 131.75 C 204.277344 131.980469 204.101562 132.25 203.972656 132.554688 C 203.847656 132.855469 203.785156 133.171875 203.785156 133.503906 C 203.785156 133.832031 203.847656 134.148438 203.972656 134.449219 C 204.101562 134.753906 204.277344 135.023438 204.511719 135.253906 C 204.742188 135.488281 205.011719 135.667969 205.316406 135.792969 C 205.621094 135.917969 205.9375 135.980469 206.265625 135.980469 Z M 206.265625 135.980469 " fill-opacity="1" fill-rule="nonzero"/><path fill="#2b7faf" d="M 206.265625 190.523438 L 218.660156 190.523438 C 218.988281 190.523438 219.304688 190.460938 219.609375 190.335938 C 219.914062 190.207031 220.179688 190.03125 220.414062 189.796875 C 220.644531 189.566406 220.824219 189.296875 220.949219 188.992188 C 221.078125 188.6875 221.140625 188.371094 221.140625 188.042969 C 221.140625 187.714844 221.078125 187.398438 220.949219 187.09375 C 220.824219 186.792969 220.644531 186.523438 220.414062 186.289062 C 220.179688 186.058594 219.914062 185.878906 219.609375 185.753906 C 219.304688 185.628906 218.988281 185.566406 218.660156 185.566406 L 206.265625 185.566406 C 205.9375 185.566406 205.621094 185.628906 205.316406 185.753906 C 205.011719 185.878906 204.742188 186.058594 204.511719 186.289062 C 204.277344 186.523438 204.101562 186.792969 203.972656 187.09375 C 203.847656 187.398438 203.785156 187.714844 203.785156 188.042969 C 203.785156 188.371094 203.847656 188.6875 203.972656 188.992188 C 204.101562 189.296875 204.277344 189.566406 204.511719 189.796875 C 204.742188 190.03125 205.011719 190.207031 205.316406 190.335938 C 205.621094 190.460938 205.9375 190.523438 206.265625 190.523438 Z M 206.265625 190.523438 " fill-opacity="1" fill-rule="nonzero"/><path fill="#2b7faf" d="M 206.265625 180.605469 L 218.660156 180.605469 C 218.988281 180.605469 219.304688 180.542969 219.609375 180.417969 C 219.914062 180.292969 220.179688 180.113281 220.414062 179.878906 C 220.644531 179.648438 220.824219 179.378906 220.949219 179.074219 C 221.078125 178.773438 221.140625 178.457031 221.140625 178.128906 C 221.140625 177.796875 221.078125 177.480469 220.949219 177.179688 C 220.824219 176.875 220.644531 176.605469 220.414062 176.375 C 220.179688 176.140625 219.914062 175.960938 219.609375 175.835938 C 219.304688 175.710938 218.988281 175.648438 218.660156 175.648438 L 206.265625 175.648438 C 205.9375 175.648438 205.621094 175.710938 205.316406 175.835938 C 205.011719 175.960938 204.742188 176.140625 204.511719 176.375 C 204.277344 176.605469 204.101562 176.875 203.972656 177.179688 C 203.847656 177.480469 203.785156 177.796875 203.785156 178.128906 C 203.785156 178.457031 203.847656 178.773438 203.972656 179.074219 C 204.101562 179.378906 204.277344 179.648438 204.511719 179.878906 C 204.742188 180.113281 205.011719 180.292969 205.316406 180.417969 C 205.621094 180.542969 205.9375 180.605469 206.265625 180.605469 Z M 206.265625 180.605469 " fill-opacity="1" fill-rule="nonzero"/><path fill="#2b7faf" d="M 156.164062 189.800781 C 156.398438 190.03125 156.667969 190.210938 156.96875 190.335938 C 157.273438 190.460938 157.589844 190.523438 157.921875 190.523438 C 158.25 190.523438 158.566406 190.460938 158.871094 190.335938 C 159.175781 190.210938 159.445312 190.03125 159.679688 189.800781 L 162.878906 186.601562 L 166.078125 189.800781 C 166.3125 190.03125 166.582031 190.210938 166.886719 190.335938 C 167.191406 190.460938 167.507812 190.523438 167.835938 190.523438 C 168.167969 190.523438 168.484375 190.460938 168.789062 190.335938 C 169.09375 190.210938 169.359375 190.03125 169.59375 189.800781 C 169.828125 189.570312 170.007812 189.300781 170.136719 188.996094 C 170.261719 188.691406 170.328125 188.375 170.328125 188.042969 C 170.328125 187.714844 170.261719 187.398438 170.136719 187.09375 C 170.007812 186.789062 169.828125 186.519531 169.59375 186.285156 L 166.394531 183.085938 L 169.59375 179.886719 C 169.828125 179.652344 170.007812 179.382812 170.132812 179.078125 C 170.257812 178.773438 170.320312 178.457031 170.320312 178.128906 C 170.320312 177.796875 170.257812 177.480469 170.132812 177.175781 C 170.007812 176.871094 169.828125 176.605469 169.59375 176.371094 C 169.359375 176.136719 169.09375 175.957031 168.789062 175.832031 C 168.484375 175.707031 168.167969 175.644531 167.835938 175.640625 C 167.507812 175.640625 167.191406 175.707031 166.886719 175.832031 C 166.582031 175.957031 166.3125 176.136719 166.078125 176.371094 L 162.878906 179.570312 L 159.679688 176.371094 C 159.445312 176.136719 159.175781 175.957031 158.871094 175.828125 C 158.566406 175.703125 158.25 175.640625 157.921875 175.640625 C 157.589844 175.640625 157.273438 175.703125 156.96875 175.828125 C 156.664062 175.953125 156.394531 176.132812 156.160156 176.367188 C 155.929688 176.601562 155.75 176.871094 155.621094 177.175781 C 155.496094 177.480469 155.433594 177.796875 155.433594 178.125 C 155.433594 178.457031 155.496094 178.773438 155.621094 179.078125 C 155.75 179.382812 155.929688 179.652344 156.164062 179.886719 L 159.363281 183.085938 L 156.164062 186.285156 C 155.929688 186.519531 155.75 186.789062 155.621094 187.09375 C 155.496094 187.398438 155.429688 187.714844 155.429688 188.042969 C 155.429688 188.375 155.496094 188.691406 155.621094 188.996094 C 155.75 189.300781 155.929688 189.570312 156.164062 189.800781 Z M 156.164062 189.800781 " fill-opacity="1" fill-rule="nonzero"/><g fill="#2b7faf" fill-opacity="1"><g transform="translate(47.879101, 253.881048)"><g><path d="M 25.457031 -0.644531 L 16.261719 -26.140625 C 16.148438 -26.445312 15.84375 -26.597656 15.539062 -26.597656 L 11.171875 -26.597656 C 10.867188 -26.597656 10.636719 -26.445312 10.523438 -26.140625 L 1.328125 -0.644531 C 1.179688 -0.265625 1.367188 0 1.785156 0 L 6.726562 0 C 7.027344 0 7.257812 -0.113281 7.371094 -0.457031 L 8.699219 -4.558594 L 18.085938 -4.558594 L 19.414062 -0.457031 C 19.53125 -0.113281 19.757812 0 20.0625 0 L 25 0 C 25.417969 0 25.609375 -0.265625 25.457031 -0.644531 Z M 10.296875 -9.308594 L 13.414062 -18.84375 L 16.527344 -9.308594 Z M 10.296875 -9.308594 "/></g></g></g><g fill="#2b7faf" fill-opacity="1"><g transform="translate(73.90363, 253.881048)"><g><path d="M 11.359375 -5.015625 C 8.890625 -5.015625 7.144531 -6.953125 7.144531 -9.421875 C 7.144531 -11.816406 8.890625 -13.714844 11.359375 -13.714844 C 12.652344 -13.714844 13.714844 -13.222656 14.78125 -12.273438 C 15.085938 -12.007812 15.351562 -11.96875 15.617188 -12.234375 L 18.351562 -14.894531 C 18.578125 -15.121094 18.617188 -15.425781 18.390625 -15.691406 C 16.640625 -17.707031 14.097656 -18.996094 11.207031 -18.996094 C 5.851562 -18.996094 1.671875 -14.742188 1.671875 -9.421875 C 1.671875 -4.027344 5.851562 0.265625 11.207031 0.265625 C 14.171875 0.265625 16.753906 -1.027344 18.503906 -3.039062 C 18.730469 -3.304688 18.695312 -3.609375 18.464844 -3.835938 L 15.730469 -6.460938 C 15.464844 -6.726562 15.199219 -6.726562 14.894531 -6.460938 C 13.832031 -5.546875 12.726562 -5.015625 11.359375 -5.015625 Z M 11.359375 -5.015625 "/></g></g></g><g fill="#2b7faf" fill-opacity="1"><g transform="translate(93.27952, 253.881048)"><g><path d="M 11.359375 -5.015625 C 8.890625 -5.015625 7.144531 -6.953125 7.144531 -9.421875 C 7.144531 -11.816406 8.890625 -13.714844 11.359375 -13.714844 C 12.652344 -13.714844 13.714844 -13.222656 14.78125 -12.273438 C 15.085938 -12.007812 15.351562 -11.96875 15.617188 -12.234375 L 18.351562 -14.894531 C 18.578125 -15.121094 18.617188 -15.425781 18.390625 -15.691406 C 16.640625 -17.707031 14.097656 -18.996094 11.207031 -18.996094 C 5.851562 -18.996094 1.671875 -14.742188 1.671875 -9.421875 C 1.671875 -4.027344 5.851562 0.265625 11.207031 0.265625 C 14.171875 0.265625 16.753906 -1.027344 18.503906 -3.039062 C 18.730469 -3.304688 18.695312 -3.609375 18.464844 -3.835938 L 15.730469 -6.460938 C 15.464844 -6.726562 15.199219 -6.726562 14.894531 -6.460938 C 13.832031 -5.546875 12.726562 -5.015625 11.359375 -5.015625 Z M 11.359375 -5.015625 "/></g></g></g><g fill="#2b7faf" fill-opacity="1"><g transform="translate(112.655414, 253.881048)"><g><path d="M 11.359375 0.378906 C 16.753906 0.378906 21.085938 -3.914062 21.085938 -9.308594 C 21.085938 -14.742188 16.753906 -19.035156 11.359375 -19.035156 C 6.003906 -19.035156 1.671875 -14.742188 1.671875 -9.308594 C 1.671875 -3.914062 6.003906 0.378906 11.359375 0.378906 Z M 11.359375 -4.902344 C 9.042969 -4.902344 7.144531 -6.761719 7.144531 -9.308594 C 7.144531 -11.890625 9.042969 -13.753906 11.359375 -13.753906 C 13.714844 -13.753906 15.578125 -11.890625 15.578125 -9.308594 C 15.578125 -6.761719 13.714844 -4.902344 11.359375 -4.902344 Z M 11.359375 -4.902344 "/></g></g></g><g fill="#2b7faf" fill-opacity="1"><g transform="translate(134.652764, 253.881048)"><g><path d="M 19.679688 -18.617188 L 15.121094 -18.617188 C 14.78125 -18.617188 14.550781 -18.390625 14.550781 -18.046875 L 14.550781 -8.132812 C 14.550781 -6.726562 13.449219 -4.824219 11.019531 -4.824219 C 9.574219 -4.824219 7.75 -5.660156 7.75 -8.664062 L 7.75 -18.046875 C 7.75 -18.390625 7.523438 -18.617188 7.179688 -18.617188 L 2.621094 -18.617188 C 2.28125 -18.617188 2.050781 -18.390625 2.050781 -18.046875 L 2.050781 -7.523438 C 2.050781 -2.546875 5.015625 0.492188 9.15625 0.492188 C 11.398438 0.492188 13.296875 -0.796875 14.550781 -2.582031 L 14.703125 -0.570312 C 14.742188 -0.226562 14.933594 0 15.273438 0 L 19.679688 0 C 20.023438 0 20.25 -0.226562 20.25 -0.570312 L 20.25 -18.046875 C 20.25 -18.390625 20.023438 -18.617188 19.679688 -18.617188 Z M 19.679688 -18.617188 "/></g></g></g><g fill="#2b7faf" fill-opacity="1"><g transform="translate(156.384166, 253.881048)"><g><path d="M 13.679688 -19.035156 C 11.019531 -19.035156 9.117188 -17.628906 7.941406 -15.691406 L 7.789062 -18.046875 C 7.75 -18.390625 7.5625 -18.617188 7.21875 -18.617188 L 2.8125 -18.617188 C 2.46875 -18.617188 2.242188 -18.390625 2.242188 -18.046875 L 2.242188 -0.570312 C 2.242188 -0.226562 2.46875 0 2.8125 0 L 7.371094 0 C 7.714844 0 7.941406 -0.226562 7.941406 -0.570312 L 7.941406 -10.335938 C 7.941406 -11.246094 9.003906 -13.753906 11.550781 -13.753906 C 13.070312 -13.753906 14.742188 -12.878906 14.742188 -9.878906 L 14.742188 -0.570312 C 14.742188 -0.226562 14.96875 0 15.3125 0 L 19.871094 0 C 20.214844 0 20.441406 -0.226562 20.441406 -0.570312 L 20.441406 -11.019531 C 20.441406 -15.996094 17.441406 -19.035156 13.679688 -19.035156 Z M 13.679688 -19.035156 "/></g></g></g><g fill="#2b7faf" fill-opacity="1"><g transform="translate(178.305528, 253.881048)"><g><path d="M 13.640625 -18.617188 L 10.601562 -18.617188 L 10.601562 -23.746094 C 10.601562 -24.089844 10.371094 -24.316406 10.03125 -24.316406 L 5.472656 -24.316406 C 5.128906 -24.316406 4.902344 -24.089844 4.902344 -23.746094 L 4.902344 -18.617188 L 1.863281 -18.617188 C 1.519531 -18.617188 1.292969 -18.390625 1.292969 -18.046875 L 1.292969 -14.589844 C 1.292969 -14.25 1.519531 -14.019531 1.863281 -14.019531 L 4.902344 -14.019531 L 4.902344 -0.570312 C 4.902344 -0.226562 5.128906 0 5.472656 0 L 10.03125 0 C 10.371094 0 10.601562 -0.226562 10.601562 -0.570312 L 10.601562 -14.019531 L 13.640625 -14.019531 C 13.980469 -14.019531 14.210938 -14.25 14.210938 -14.589844 L 14.210938 -18.046875 C 14.210938 -18.390625 13.980469 -18.617188 13.640625 -18.617188 Z M 13.640625 -18.617188 "/></g></g></g><g fill="#2b7faf" fill-opacity="1"><g transform="translate(193.046364, 253.881048)"><g/></g></g><g fill="#2b7faf" fill-opacity="1"><g transform="translate(202.924194, 253.881048)"><g><path d="M 30.585938 -26.597656 L 25.34375 -26.597656 C 25.039062 -26.597656 24.773438 -26.484375 24.660156 -26.214844 L 16.90625 -6.839844 L 9.082031 -26.214844 C 8.96875 -26.484375 8.699219 -26.597656 8.398438 -26.597656 L 3.191406 -26.597656 C 2.851562 -26.597656 2.621094 -26.367188 2.621094 -26.027344 L 2.621094 -0.570312 C 2.621094 -0.226562 2.851562 0 3.191406 0 L 7.941406 0 C 8.28125 0 8.511719 -0.226562 8.511719 -0.570312 L 8.511719 -15.617188 L 9.003906 -13.792969 L 14.097656 -0.457031 C 14.210938 -0.152344 14.515625 0 14.816406 0 L 18.996094 0 C 19.300781 0 19.566406 -0.152344 19.679688 -0.457031 L 24.773438 -13.792969 L 25.265625 -15.578125 L 25.265625 -0.570312 C 25.265625 -0.226562 25.496094 0 25.835938 0 L 30.585938 0 C 30.929688 0 31.15625 -0.226562 31.15625 -0.570312 L 31.15625 -26.027344 C 31.15625 -26.367188 30.929688 -26.597656 30.585938 -26.597656 Z M 30.585938 -26.597656 "/></g></g></g><g fill="#2b7faf" fill-opacity="1"><g transform="translate(235.939286, 253.881048)"><g><path d="M 20.667969 -18.617188 L 16.792969 -18.617188 C 16.453125 -18.617188 16.261719 -18.390625 16.222656 -18.046875 L 16.035156 -16.335938 C 14.78125 -17.933594 13.03125 -18.996094 10.675781 -18.996094 C 5.472656 -18.996094 1.671875 -14.703125 1.671875 -9.269531 C 1.671875 -3.953125 5.472656 0.265625 10.675781 0.265625 C 13.109375 0.265625 14.816406 -0.722656 15.996094 -2.164062 L 16.222656 -0.570312 C 16.261719 -0.226562 16.453125 0 16.792969 0 L 20.667969 0 C 21.011719 0 21.238281 -0.226562 21.238281 -0.570312 L 21.238281 -18.046875 C 21.238281 -18.390625 21.011719 -18.617188 20.667969 -18.617188 Z M 11.359375 -4.9375 C 8.929688 -4.9375 7.144531 -6.726562 7.144531 -9.308594 C 7.144531 -11.96875 8.929688 -13.792969 11.359375 -13.792969 C 13.867188 -13.792969 15.539062 -11.816406 15.539062 -9.308594 C 15.539062 -6.761719 13.867188 -4.9375 11.359375 -4.9375 Z M 11.359375 -4.9375 "/></g></g></g><g fill="#2b7faf" fill-opacity="1"><g transform="translate(258.658496, 253.881048)"><g><path d="M 7.445312 -13.222656 C 7.445312 -13.867188 7.980469 -14.515625 9.117188 -14.515625 C 10.257812 -14.515625 11.054688 -14.058594 12.5 -13.222656 C 12.84375 -12.996094 13.109375 -12.878906 13.335938 -13.183594 L 15.046875 -15.425781 C 15.234375 -15.652344 15.3125 -15.957031 15.085938 -16.222656 C 13.527344 -18.046875 11.09375 -19.035156 8.550781 -19.035156 C 5.207031 -19.035156 1.976562 -16.945312 1.976562 -13.183594 C 1.976562 -6.914062 10.5625 -8.09375 10.5625 -5.585938 C 10.5625 -4.558594 9.460938 -4.371094 8.585938 -4.371094 C 7.371094 -4.371094 5.890625 -4.863281 4.179688 -5.925781 C 3.835938 -6.117188 3.535156 -6.191406 3.304688 -5.925781 L 1.632812 -3.496094 C 1.480469 -3.265625 1.40625 -3 1.632812 -2.734375 C 2.964844 -1.179688 5.546875 0.378906 8.777344 0.378906 C 12.234375 0.378906 16.109375 -1.710938 16.109375 -5.507812 C 16.109375 -12.386719 7.445312 -10.601562 7.445312 -13.222656 Z M 7.445312 -13.222656 "/></g></g></g><g fill="#2b7faf" fill-opacity="1"><g transform="translate(275.450915, 253.881048)"><g><path d="M 13.640625 -18.617188 L 10.601562 -18.617188 L 10.601562 -23.746094 C 10.601562 -24.089844 10.371094 -24.316406 10.03125 -24.316406 L 5.472656 -24.316406 C 5.128906 -24.316406 4.902344 -24.089844 4.902344 -23.746094 L 4.902344 -18.617188 L 1.863281 -18.617188 C 1.519531 -18.617188 1.292969 -18.390625 1.292969 -18.046875 L 1.292969 -14.589844 C 1.292969 -14.25 1.519531 -14.019531 1.863281 -14.019531 L 4.902344 -14.019531 L 4.902344 -0.570312 C 4.902344 -0.226562 5.128906 0 5.472656 0 L 10.03125 0 C 10.371094 0 10.601562 -0.226562 10.601562 -0.570312 L 10.601562 -14.019531 L 13.640625 -14.019531 C 13.980469 -14.019531 14.210938 -14.25 14.210938 -14.589844 L 14.210938 -18.046875 C 14.210938 -18.390625 13.980469 -18.617188 13.640625 -18.617188 Z M 13.640625 -18.617188 "/></g></g></g><g fill="#2b7faf" fill-opacity="1"><g transform="translate(290.191751, 253.881048)"><g><path d="M 19.984375 -9.726562 C 19.984375 -14.742188 16.527344 -18.996094 11.132812 -18.996094 C 5.699219 -18.996094 1.671875 -14.742188 1.671875 -9.382812 C 1.671875 -4.027344 5.699219 0.265625 11.550781 0.265625 C 14.25 0.265625 16.679688 -0.796875 18.464844 -2.582031 C 18.769531 -2.886719 18.769531 -3.152344 18.542969 -3.417969 L 16.566406 -5.320312 C 16.300781 -5.585938 16.070312 -5.625 15.730469 -5.394531 C 14.398438 -4.558594 13.335938 -4.292969 12.121094 -4.292969 C 9.574219 -4.292969 7.902344 -5.355469 7.332031 -7.371094 L 18.617188 -7.371094 C 19.796875 -7.371094 19.984375 -8.167969 19.984375 -9.726562 Z M 11.171875 -14.171875 C 12.996094 -14.171875 14.550781 -13.144531 14.933594 -10.980469 L 7.257812 -10.980469 C 7.675781 -13.144531 9.269531 -14.171875 11.171875 -14.171875 Z M 11.171875 -14.171875 "/></g></g></g><g fill="#2b7faf" fill-opacity="1"><g transform="translate(311.087334, 253.881048)"><g><path d="M 15.273438 -18.085938 C 14.742188 -18.578125 13.792969 -19.035156 12.691406 -19.035156 C 10.410156 -19.035156 8.851562 -17.707031 7.902344 -15.882812 L 7.75 -18.046875 C 7.714844 -18.390625 7.523438 -18.617188 7.179688 -18.617188 L 2.8125 -18.617188 C 2.46875 -18.617188 2.242188 -18.390625 2.242188 -18.046875 L 2.242188 -0.570312 C 2.242188 -0.226562 2.46875 0 2.8125 0 L 7.371094 0 C 7.714844 0 7.941406 -0.226562 7.941406 -0.570312 L 7.941406 -9.839844 C 7.941406 -12.121094 9.347656 -13.867188 11.703125 -13.867188 C 12.425781 -13.867188 12.878906 -13.679688 13.261719 -13.5625 C 13.714844 -13.449219 14.058594 -13.527344 14.210938 -13.980469 L 15.464844 -17.25 C 15.578125 -17.515625 15.578125 -17.820312 15.273438 -18.085938 Z M 15.273438 -18.085938 "/></g></g></g></svg>