<svg xmlns="http://www.w3.org/2000/svg" xmlns:xlink="http://www.w3.org/1999/xlink" width="500" zoomAndPan="magnify" viewBox="0 0 375 374.999991" height="500" preserveAspectRatio="xMidYMid meet" version="1.0"><path fill="#2b7faf" d="M 156.25 0 L 10.417969 0 C 9.734375 0 9.054688 0.0664062 8.382812 0.199219 C 7.714844 0.332031 7.0625 0.53125 6.429688 0.792969 C 5.796875 1.054688 5.199219 1.375 4.628906 1.753906 C 4.0625 2.136719 3.535156 2.566406 3.050781 3.050781 C 2.566406 3.535156 2.136719 4.0625 1.753906 4.628906 C 1.375 5.199219 1.054688 5.796875 0.792969 6.429688 C 0.53125 7.0625 0.332031 7.714844 0.199219 8.382812 C 0.0664062 9.054688 0 9.734375 0 10.417969 L 0 156.25 C 0 156.933594 0.0664062 157.613281 0.199219 158.28125 C 0.332031 158.953125 0.53125 159.605469 0.792969 160.234375 C 1.054688 160.867188 1.375 161.46875 1.753906 162.039062 C 2.136719 162.605469 2.566406 163.132812 3.050781 163.617188 C 3.535156 164.097656 4.0625 164.53125 4.628906 164.910156 C 5.199219 165.292969 5.796875 165.613281 6.429688 165.875 C 7.0625 166.136719 7.714844 166.332031 8.382812 166.464844 C 9.054688 166.601562 9.734375 166.667969 10.417969 166.667969 L 156.25 166.667969 C 156.933594 166.667969 157.613281 166.601562 158.28125 166.464844 C 158.953125 166.332031 159.605469 166.136719 160.234375 165.875 C 160.867188 165.613281 161.46875 165.292969 162.039062 164.910156 C 162.605469 164.53125 163.132812 164.097656 163.617188 163.617188 C 164.097656 163.132812 164.53125 162.605469 164.910156 162.039062 C 165.292969 161.46875 165.613281 160.867188 165.875 160.234375 C 166.136719 159.605469 166.332031 158.953125 166.464844 158.28125 C 166.601562 157.613281 166.667969 156.933594 166.667969 156.25 L 166.667969 10.417969 C 166.667969 9.734375 166.601562 9.054688 166.464844 8.382812 C 166.332031 7.714844 166.136719 7.0625 165.875 6.429688 C 165.613281 5.796875 165.292969 5.199219 164.910156 4.628906 C 164.53125 4.0625 164.097656 3.535156 163.617188 3.050781 C 163.132812 2.566406 162.605469 2.136719 162.039062 1.753906 C 161.46875 1.375 160.867188 1.054688 160.234375 0.792969 C 159.605469 0.53125 158.953125 0.332031 158.28125 0.199219 C 157.613281 0.0664062 156.933594 0 156.25 0 Z M 145.832031 145.832031 L 20.832031 145.832031 L 20.832031 20.832031 L 145.832031 20.832031 Z M 145.832031 145.832031 " fill-opacity="1" fill-rule="nonzero"/><path fill="#2b7faf" d="M 364.582031 0 L 218.75 0 C 218.066406 0 217.386719 0.0664062 216.71875 0.199219 C 216.046875 0.332031 215.394531 0.53125 214.765625 0.792969 C 214.132812 1.054688 213.53125 1.375 212.960938 1.753906 C 212.394531 2.136719 211.867188 2.566406 211.382812 3.050781 C 210.902344 3.535156 210.46875 4.0625 210.089844 4.628906 C 209.707031 5.199219 209.386719 5.796875 209.125 6.429688 C 208.863281 7.0625 208.667969 7.714844 208.535156 8.382812 C 208.398438 9.054688 208.332031 9.734375 208.332031 10.417969 L 208.332031 156.25 C 208.332031 156.933594 208.398438 157.613281 208.535156 158.28125 C 208.667969 158.953125 208.863281 159.605469 209.125 160.234375 C 209.386719 160.867188 209.707031 161.46875 210.089844 162.039062 C 210.46875 162.605469 210.902344 163.132812 211.382812 163.617188 C 211.867188 164.097656 212.394531 164.53125 212.960938 164.910156 C 213.53125 165.292969 214.132812 165.613281 214.765625 165.875 C 215.394531 166.136719 216.046875 166.332031 216.71875 166.464844 C 217.386719 166.601562 218.066406 166.667969 218.75 166.667969 L 364.582031 166.667969 C 365.265625 166.667969 365.945312 166.601562 366.617188 166.464844 C 367.285156 166.332031 367.9375 166.136719 368.570312 165.875 C 369.203125 165.613281 369.800781 165.292969 370.371094 164.910156 C 370.9375 164.53125 371.464844 164.097656 371.949219 163.617188 C 372.433594 163.132812 372.863281 162.605469 373.246094 162.039062 C 373.625 161.46875 373.945312 160.867188 374.207031 160.234375 C 374.46875 159.605469 374.667969 158.953125 374.800781 158.28125 C 374.933594 157.613281 375 156.933594 375 156.25 L 375 10.417969 C 375 9.734375 374.933594 9.054688 374.800781 8.382812 C 374.667969 7.714844 374.46875 7.0625 374.207031 6.429688 C 373.945312 5.796875 373.625 5.199219 373.246094 4.628906 C 372.863281 4.0625 372.433594 3.535156 371.949219 3.050781 C 371.464844 2.566406 370.9375 2.136719 370.371094 1.753906 C 369.800781 1.375 369.203125 1.054688 368.570312 0.792969 C 367.9375 0.53125 367.285156 0.332031 366.617188 0.199219 C 365.945312 0.0664062 365.265625 0 364.582031 0 Z M 354.167969 145.832031 L 229.167969 145.832031 L 229.167969 20.832031 L 354.167969 20.832031 Z M 354.167969 145.832031 " fill-opacity="1" fill-rule="nonzero"/><path fill="#2b7faf" d="M 156.25 208.332031 L 10.417969 208.332031 C 9.734375 208.332031 9.054688 208.398438 8.382812 208.535156 C 7.714844 208.667969 7.0625 208.863281 6.429688 209.125 C 5.796875 209.386719 5.199219 209.707031 4.628906 210.089844 C 4.0625 210.46875 3.535156 210.902344 3.050781 211.382812 C 2.566406 211.867188 2.136719 212.394531 1.753906 212.960938 C 1.375 213.53125 1.054688 214.132812 0.792969 214.765625 C 0.53125 215.394531 0.332031 216.046875 0.199219 216.71875 C 0.0664062 217.386719 0 218.066406 0 218.75 L 0 364.582031 C 0 365.265625 0.0664062 365.945312 0.199219 366.617188 C 0.332031 367.285156 0.53125 367.9375 0.792969 368.570312 C 1.054688 369.203125 1.375 369.800781 1.753906 370.371094 C 2.136719 370.9375 2.566406 371.464844 3.050781 371.949219 C 3.535156 372.433594 4.0625 372.863281 4.628906 373.246094 C 5.199219 373.625 5.796875 373.945312 6.429688 374.207031 C 7.0625 374.46875 7.714844 374.667969 8.382812 374.800781 C 9.054688 374.933594 9.734375 375 10.417969 375 L 156.25 375 C 156.933594 375 157.613281 374.933594 158.28125 374.800781 C 158.953125 374.667969 159.605469 374.46875 160.234375 374.207031 C 160.867188 373.945312 161.46875 373.625 162.039062 373.246094 C 162.605469 372.863281 163.132812 372.433594 163.617188 371.949219 C 164.097656 371.464844 164.53125 370.9375 164.910156 370.371094 C 165.292969 369.800781 165.613281 369.203125 165.875 368.570312 C 166.136719 367.9375 166.332031 367.285156 166.464844 366.617188 C 166.601562 365.945312 166.667969 365.265625 166.667969 364.582031 L 166.667969 218.75 C 166.667969 218.066406 166.601562 217.386719 166.464844 216.71875 C 166.332031 216.046875 166.136719 215.394531 165.875 214.765625 C 165.613281 214.132812 165.292969 213.53125 164.910156 212.960938 C 164.53125 212.394531 164.097656 211.867188 163.617188 211.382812 C 163.132812 210.902344 162.605469 210.46875 162.039062 210.089844 C 161.46875 209.707031 160.867188 209.386719 160.234375 209.125 C 159.605469 208.863281 158.953125 208.667969 158.28125 208.535156 C 157.613281 208.398438 156.933594 208.332031 156.25 208.332031 Z M 145.832031 354.167969 L 20.832031 354.167969 L 20.832031 229.167969 L 145.832031 229.167969 Z M 145.832031 354.167969 " fill-opacity="1" fill-rule="nonzero"/><path fill="#2b7faf" d="M 364.582031 208.332031 L 218.75 208.332031 C 218.066406 208.332031 217.386719 208.398438 216.71875 208.535156 C 216.046875 208.667969 215.394531 208.863281 214.765625 209.125 C 214.132812 209.386719 213.53125 209.707031 212.960938 210.089844 C 212.394531 210.46875 211.867188 210.902344 211.382812 211.382812 C 210.902344 211.867188 210.46875 212.394531 210.089844 212.960938 C 209.707031 213.53125 209.386719 214.132812 209.125 214.765625 C 208.863281 215.394531 208.667969 216.046875 208.535156 216.71875 C 208.398438 217.386719 208.332031 218.066406 208.332031 218.75 L 208.332031 364.582031 C 208.332031 365.265625 208.398438 365.945312 208.535156 366.617188 C 208.667969 367.285156 208.863281 367.9375 209.125 368.570312 C 209.386719 369.203125 209.707031 369.800781 210.089844 370.371094 C 210.46875 370.9375 210.902344 371.464844 211.382812 371.949219 C 211.867188 372.433594 212.394531 372.863281 212.960938 373.246094 C 213.53125 373.625 214.132812 373.945312 214.765625 374.207031 C 215.394531 374.46875 216.046875 374.667969 216.71875 374.800781 C 217.386719 374.933594 218.066406 375 218.75 375 L 364.582031 375 C 365.265625 375 365.945312 374.933594 366.617188 374.800781 C 367.285156 374.667969 367.9375 374.46875 368.570312 374.207031 C 369.203125 373.945312 369.800781 373.625 370.371094 373.246094 C 370.9375 372.863281 371.464844 372.433594 371.949219 371.949219 C 372.433594 371.464844 372.863281 370.9375 373.246094 370.371094 C 373.625 369.800781 373.945312 369.203125 374.207031 368.570312 C 374.46875 367.9375 374.667969 367.285156 374.800781 366.617188 C 374.933594 365.945312 375 365.265625 375 364.582031 L 375 218.75 C 375 218.066406 374.933594 217.386719 374.800781 216.71875 C 374.667969 216.046875 374.46875 215.394531 374.207031 214.765625 C 373.945312 214.132812 373.625 213.53125 373.246094 212.960938 C 372.863281 212.394531 372.433594 211.867188 371.949219 211.382812 C 371.464844 210.902344 370.9375 210.46875 370.371094 210.089844 C 369.800781 209.707031 369.203125 209.386719 368.570312 209.125 C 367.9375 208.863281 367.285156 208.667969 366.617188 208.535156 C 365.945312 208.398438 365.265625 208.332031 364.582031 208.332031 Z M 354.167969 354.167969 L 229.167969 354.167969 L 229.167969 229.167969 L 354.167969 229.167969 Z M 354.167969 354.167969 " fill-opacity="1" fill-rule="nonzero"/><path fill="#2b7faf" d="M 57.292969 93.75 L 72.917969 93.75 L 72.917969 109.375 C 72.917969 110.058594 72.984375 110.734375 73.117188 111.40625 C 73.25 112.078125 73.449219 112.730469 73.710938 113.359375 C 73.972656 113.992188 74.292969 114.59375 74.671875 115.164062 C 75.050781 115.730469 75.484375 116.257812 75.96875 116.742188 C 76.453125 117.222656 76.976562 117.65625 77.546875 118.035156 C 78.113281 118.417969 78.714844 118.738281 79.347656 119 C 79.980469 119.261719 80.628906 119.457031 81.300781 119.589844 C 81.972656 119.726562 82.648438 119.792969 83.332031 119.792969 C 84.015625 119.792969 84.695312 119.726562 85.367188 119.589844 C 86.035156 119.457031 86.6875 119.261719 87.320312 119 C 87.953125 118.738281 88.550781 118.417969 89.121094 118.035156 C 89.6875 117.65625 90.214844 117.222656 90.699219 116.742188 C 91.183594 116.257812 91.613281 115.730469 91.996094 115.164062 C 92.375 114.59375 92.695312 113.992188 92.957031 113.359375 C 93.21875 112.730469 93.417969 112.078125 93.550781 111.40625 C 93.683594 110.738281 93.75 110.058594 93.75 109.375 L 93.75 93.75 L 109.375 93.75 C 110.058594 93.75 110.734375 93.683594 111.40625 93.550781 C 112.078125 93.417969 112.730469 93.21875 113.359375 92.957031 C 113.992188 92.695312 114.59375 92.375 115.164062 91.996094 C 115.730469 91.613281 116.257812 91.183594 116.742188 90.699219 C 117.222656 90.214844 117.65625 89.6875 118.035156 89.121094 C 118.417969 88.550781 118.738281 87.953125 119 87.320312 C 119.261719 86.6875 119.457031 86.035156 119.589844 85.367188 C 119.726562 84.695312 119.792969 84.015625 119.792969 83.332031 C 119.792969 82.648438 119.726562 81.972656 119.589844 81.300781 C 119.457031 80.628906 119.261719 79.980469 119 79.347656 C 118.738281 78.714844 118.417969 78.113281 118.035156 77.546875 C 117.65625 76.976562 117.222656 76.453125 116.742188 75.96875 C 116.257812 75.484375 115.730469 75.050781 115.164062 74.671875 C 114.59375 74.292969 113.992188 73.972656 113.359375 73.710938 C 112.730469 73.449219 112.078125 73.25 111.40625 73.117188 C 110.738281 72.984375 110.058594 72.917969 109.375 72.917969 L 93.75 72.917969 L 93.75 57.292969 C 93.75 56.609375 93.683594 55.929688 93.550781 55.257812 C 93.417969 54.589844 93.21875 53.9375 92.957031 53.304688 C 92.695312 52.671875 92.375 52.074219 91.996094 51.503906 C 91.613281 50.9375 91.183594 50.410156 90.699219 49.925781 C 90.214844 49.441406 89.6875 49.011719 89.121094 48.628906 C 88.550781 48.25 87.953125 47.929688 87.320312 47.667969 C 86.6875 47.40625 86.035156 47.207031 85.367188 47.074219 C 84.695312 46.941406 84.015625 46.875 83.332031 46.875 C 82.648438 46.875 81.972656 46.941406 81.300781 47.074219 C 80.628906 47.207031 79.980469 47.40625 79.347656 47.667969 C 78.714844 47.929688 78.113281 48.25 77.546875 48.628906 C 76.976562 49.011719 76.453125 49.441406 75.96875 49.925781 C 75.484375 50.410156 75.050781 50.9375 74.671875 51.503906 C 74.292969 52.074219 73.972656 52.671875 73.710938 53.304688 C 73.449219 53.9375 73.25 54.589844 73.117188 55.257812 C 72.984375 55.929688 72.917969 56.609375 72.917969 57.292969 L 72.917969 72.917969 L 57.292969 72.917969 C 56.609375 72.917969 55.929688 72.984375 55.257812 73.117188 C 54.589844 73.25 53.9375 73.449219 53.304688 73.710938 C 52.671875 73.972656 52.074219 74.292969 51.503906 74.671875 C 50.9375 75.050781 50.410156 75.484375 49.925781 75.96875 C 49.441406 76.453125 49.011719 76.976562 48.628906 77.546875 C 48.25 78.113281 47.929688 78.714844 47.667969 79.347656 C 47.40625 79.980469 47.207031 80.628906 47.074219 81.300781 C 46.941406 81.972656 46.875 82.648438 46.875 83.332031 C 46.875 84.015625 46.941406 84.695312 47.074219 85.367188 C 47.207031 86.035156 47.40625 86.6875 47.667969 87.320312 C 47.929688 87.953125 48.25 88.550781 48.628906 89.121094 C 49.011719 89.6875 49.441406 90.214844 49.925781 90.699219 C 50.410156 91.183594 50.9375 91.613281 51.503906 91.996094 C 52.074219 92.375 52.671875 92.695312 53.304688 92.957031 C 53.9375 93.21875 54.589844 93.417969 55.257812 93.550781 C 55.929688 93.683594 56.609375 93.75 57.292969 93.75 Z M 57.292969 93.75 " fill-opacity="1" fill-rule="nonzero"/><path fill="#2b7faf" d="M 265.625 93.75 L 317.707031 93.75 C 318.390625 93.75 319.070312 93.683594 319.742188 93.550781 C 320.410156 93.417969 321.0625 93.21875 321.695312 92.957031 C 322.328125 92.695312 322.925781 92.375 323.496094 91.996094 C 324.0625 91.613281 324.589844 91.183594 325.074219 90.699219 C 325.558594 90.214844 325.988281 89.6875 326.371094 89.121094 C 326.75 88.550781 327.070312 87.953125 327.332031 87.320312 C 327.59375 86.6875 327.792969 86.035156 327.925781 85.367188 C 328.058594 84.695312 328.125 84.015625 328.125 83.332031 C 328.125 82.648438 328.058594 81.972656 327.925781 81.300781 C 327.792969 80.628906 327.59375 79.980469 327.332031 79.347656 C 327.070312 78.714844 326.75 78.113281 326.371094 77.546875 C 325.988281 76.976562 325.558594 76.453125 325.074219 75.96875 C 324.589844 75.484375 324.0625 75.050781 323.496094 74.671875 C 322.925781 74.292969 322.328125 73.972656 321.695312 73.710938 C 321.0625 73.449219 320.410156 73.25 319.742188 73.117188 C 319.070312 72.984375 318.390625 72.917969 317.707031 72.917969 L 265.625 72.917969 C 264.941406 72.917969 264.261719 72.984375 263.59375 73.117188 C 262.921875 73.25 262.269531 73.449219 261.640625 73.710938 C 261.007812 73.972656 260.40625 74.292969 259.835938 74.671875 C 259.269531 75.050781 258.742188 75.484375 258.257812 75.96875 C 257.777344 76.453125 257.34375 76.976562 256.964844 77.546875 C 256.582031 78.113281 256.261719 78.714844 256 79.347656 C 255.738281 79.980469 255.542969 80.628906 255.410156 81.300781 C 255.273438 81.972656 255.207031 82.648438 255.207031 83.332031 C 255.207031 84.015625 255.273438 84.695312 255.410156 85.367188 C 255.542969 86.035156 255.738281 86.6875 256 87.320312 C 256.261719 87.953125 256.582031 88.550781 256.964844 89.121094 C 257.34375 89.6875 257.777344 90.214844 258.257812 90.699219 C 258.742188 91.183594 259.269531 91.613281 259.835938 91.996094 C 260.40625 92.375 261.007812 92.695312 261.640625 92.957031 C 262.269531 93.21875 262.921875 93.417969 263.59375 93.550781 C 264.261719 93.683594 264.941406 93.75 265.625 93.75 Z M 265.625 93.75 " fill-opacity="1" fill-rule="nonzero"/><path fill="#2b7faf" d="M 265.625 322.917969 L 317.707031 322.917969 C 318.390625 322.917969 319.070312 322.851562 319.742188 322.714844 C 320.410156 322.582031 321.0625 322.386719 321.695312 322.125 C 322.328125 321.863281 322.925781 321.542969 323.496094 321.160156 C 324.0625 320.78125 324.589844 320.347656 325.074219 319.867188 C 325.558594 319.382812 325.988281 318.855469 326.371094 318.289062 C 326.75 317.71875 327.070312 317.117188 327.332031 316.484375 C 327.59375 315.855469 327.792969 315.203125 327.925781 314.53125 C 328.058594 313.863281 328.125 313.183594 328.125 312.5 C 328.125 311.816406 328.058594 311.136719 327.925781 310.46875 C 327.792969 309.796875 327.59375 309.144531 327.332031 308.511719 C 327.070312 307.882812 326.75 307.28125 326.371094 306.710938 C 325.988281 306.144531 325.558594 305.617188 325.074219 305.132812 C 324.589844 304.652344 324.0625 304.21875 323.496094 303.839844 C 322.925781 303.457031 322.328125 303.136719 321.695312 302.875 C 321.0625 302.613281 320.410156 302.417969 319.742188 302.285156 C 319.070312 302.148438 318.390625 302.082031 317.707031 302.082031 L 265.625 302.082031 C 264.941406 302.082031 264.261719 302.148438 263.59375 302.285156 C 262.921875 302.417969 262.269531 302.613281 261.640625 302.875 C 261.007812 303.136719 260.40625 303.457031 259.835938 303.839844 C 259.269531 304.21875 258.742188 304.652344 258.257812 305.132812 C 257.777344 305.617188 257.34375 306.144531 256.964844 306.710938 C 256.582031 307.28125 256.261719 307.882812 256 308.511719 C 255.738281 309.144531 255.542969 309.796875 255.410156 310.46875 C 255.273438 311.136719 255.207031 311.816406 255.207031 312.5 C 255.207031 313.183594 255.273438 313.863281 255.410156 314.53125 C 255.542969 315.203125 255.738281 315.855469 256 316.484375 C 256.261719 317.117188 256.582031 317.71875 256.964844 318.289062 C 257.34375 318.855469 257.777344 319.382812 258.257812 319.867188 C 258.742188 320.347656 259.269531 320.78125 259.835938 321.160156 C 260.40625 321.542969 261.007812 321.863281 261.640625 322.125 C 262.269531 322.386719 262.921875 322.582031 263.59375 322.714844 C 264.261719 322.851562 264.941406 322.917969 265.625 322.917969 Z M 265.625 322.917969 " fill-opacity="1" fill-rule="nonzero"/><path fill="#2b7faf" d="M 265.625 281.25 L 317.707031 281.25 C 318.390625 281.25 319.070312 281.183594 319.742188 281.050781 C 320.410156 280.917969 321.0625 280.71875 321.695312 280.457031 C 322.328125 280.195312 322.925781 279.875 323.496094 279.496094 C 324.0625 279.113281 324.589844 278.683594 325.074219 278.199219 C 325.558594 277.714844 325.988281 277.1875 326.371094 276.621094 C 326.75 276.050781 327.070312 275.453125 327.332031 274.820312 C 327.59375 274.1875 327.792969 273.535156 327.925781 272.867188 C 328.058594 272.195312 328.125 271.515625 328.125 270.832031 C 328.125 270.148438 328.058594 269.472656 327.925781 268.800781 C 327.792969 268.128906 327.59375 267.480469 327.332031 266.847656 C 327.070312 266.214844 326.75 265.613281 326.371094 265.046875 C 325.988281 264.476562 325.558594 263.953125 325.074219 263.46875 C 324.589844 262.984375 324.0625 262.550781 323.496094 262.171875 C 322.925781 261.792969 322.328125 261.472656 321.695312 261.210938 C 321.0625 260.949219 320.410156 260.75 319.742188 260.617188 C 319.070312 260.484375 318.390625 260.417969 317.707031 260.417969 L 265.625 260.417969 C 264.941406 260.417969 264.261719 260.484375 263.59375 260.617188 C 262.921875 260.75 262.269531 260.949219 261.640625 261.210938 C 261.007812 261.472656 260.40625 261.792969 259.835938 262.171875 C 259.269531 262.550781 258.742188 262.984375 258.257812 263.46875 C 257.777344 263.953125 257.34375 264.476562 256.964844 265.046875 C 256.582031 265.613281 256.261719 266.214844 256 266.847656 C 255.738281 267.480469 255.542969 268.128906 255.410156 268.800781 C 255.273438 269.472656 255.207031 270.148438 255.207031 270.832031 C 255.207031 271.515625 255.273438 272.195312 255.410156 272.867188 C 255.542969 273.535156 255.738281 274.1875 256 274.820312 C 256.261719 275.453125 256.582031 276.050781 256.964844 276.621094 C 257.34375 277.1875 257.777344 277.714844 258.257812 278.199219 C 258.742188 278.683594 259.269531 279.113281 259.835938 279.496094 C 260.40625 279.875 261.007812 280.195312 261.640625 280.457031 C 262.269531 280.71875 262.921875 280.917969 263.59375 281.050781 C 264.261719 281.183594 264.941406 281.25 265.625 281.25 Z M 265.625 281.25 " fill-opacity="1" fill-rule="nonzero"/><path fill="#2b7faf" d="M 55.113281 319.886719 C 55.601562 320.367188 56.128906 320.796875 56.699219 321.175781 C 57.273438 321.550781 57.875 321.871094 58.507812 322.132812 C 59.140625 322.390625 59.792969 322.585938 60.464844 322.71875 C 61.136719 322.851562 61.816406 322.917969 62.5 322.917969 C 63.183594 322.917969 63.863281 322.851562 64.535156 322.71875 C 65.207031 322.585938 65.859375 322.390625 66.492188 322.132812 C 67.125 321.871094 67.726562 321.550781 68.300781 321.175781 C 68.871094 320.796875 69.398438 320.367188 69.886719 319.886719 L 83.332031 306.4375 L 96.78125 319.886719 C 97.265625 320.367188 97.796875 320.796875 98.367188 321.175781 C 98.9375 321.550781 99.539062 321.871094 100.175781 322.132812 C 100.808594 322.390625 101.460938 322.585938 102.132812 322.71875 C 102.804688 322.851562 103.480469 322.917969 104.167969 322.917969 C 104.851562 322.917969 105.53125 322.851562 106.203125 322.71875 C 106.875 322.585938 107.527344 322.390625 108.160156 322.132812 C 108.792969 321.871094 109.394531 321.550781 109.964844 321.175781 C 110.535156 320.796875 111.066406 320.367188 111.554688 319.886719 C 112.039062 319.402344 112.472656 318.875 112.855469 318.304688 C 113.238281 317.734375 113.5625 317.132812 113.828125 316.5 C 114.089844 315.867188 114.289062 315.210938 114.421875 314.539062 C 114.558594 313.867188 114.625 313.1875 114.625 312.5 C 114.625 311.8125 114.558594 311.132812 114.421875 310.460938 C 114.289062 309.789062 114.089844 309.132812 113.828125 308.5 C 113.5625 307.867188 113.238281 307.265625 112.855469 306.695312 C 112.472656 306.125 112.039062 305.597656 111.554688 305.113281 L 98.105469 291.667969 L 111.554688 278.21875 C 112.039062 277.734375 112.46875 277.207031 112.851562 276.636719 C 113.230469 276.066406 113.550781 275.464844 113.8125 274.832031 C 114.074219 274.199219 114.273438 273.542969 114.40625 272.871094 C 114.539062 272.199219 114.605469 271.519531 114.605469 270.835938 C 114.605469 270.148438 114.539062 269.46875 114.40625 268.796875 C 114.273438 268.125 114.074219 267.472656 113.8125 266.839844 C 113.546875 266.207031 113.226562 265.605469 112.847656 265.035156 C 112.464844 264.464844 112.03125 263.9375 111.546875 263.453125 C 111.0625 262.96875 110.535156 262.535156 109.964844 262.152344 C 109.394531 261.773438 108.792969 261.453125 108.160156 261.1875 C 107.527344 260.925781 106.875 260.726562 106.203125 260.59375 C 105.53125 260.460938 104.851562 260.394531 104.164062 260.394531 C 103.480469 260.394531 102.800781 260.460938 102.128906 260.59375 C 101.457031 260.726562 100.800781 260.925781 100.167969 261.1875 C 99.535156 261.449219 98.933594 261.769531 98.363281 262.148438 C 97.792969 262.53125 97.265625 262.960938 96.78125 263.445312 L 83.332031 276.894531 L 69.886719 263.445312 C 69.402344 262.960938 68.875 262.527344 68.304688 262.144531 C 67.734375 261.765625 67.132812 261.441406 66.496094 261.179688 C 65.863281 260.917969 65.210938 260.71875 64.539062 260.582031 C 63.863281 260.449219 63.183594 260.382812 62.5 260.382812 C 61.8125 260.382812 61.132812 260.449219 60.460938 260.582031 C 59.785156 260.714844 59.132812 260.914062 58.5 261.175781 C 57.863281 261.4375 57.261719 261.761719 56.691406 262.140625 C 56.121094 262.523438 55.59375 262.957031 55.109375 263.441406 C 54.621094 263.925781 54.191406 264.453125 53.808594 265.023438 C 53.425781 265.59375 53.105469 266.199219 52.84375 266.832031 C 52.582031 267.464844 52.382812 268.121094 52.25 268.792969 C 52.113281 269.464844 52.046875 270.144531 52.046875 270.832031 C 52.046875 271.519531 52.117188 272.199219 52.25 272.871094 C 52.382812 273.542969 52.582031 274.195312 52.847656 274.832031 C 53.109375 275.464844 53.429688 276.066406 53.8125 276.636719 C 54.195312 277.207031 54.628906 277.734375 55.113281 278.21875 L 68.5625 291.667969 L 55.113281 305.113281 C 54.625 305.597656 54.191406 306.125 53.808594 306.695312 C 53.425781 307.265625 53.105469 307.867188 52.839844 308.5 C 52.578125 309.132812 52.378906 309.789062 52.242188 310.460938 C 52.109375 311.132812 52.042969 311.8125 52.042969 312.5 C 52.042969 313.1875 52.109375 313.867188 52.242188 314.539062 C 52.378906 315.210938 52.578125 315.867188 52.839844 316.5 C 53.105469 317.132812 53.425781 317.734375 53.808594 318.304688 C 54.191406 318.875 54.625 319.402344 55.113281 319.886719 Z M 55.113281 319.886719 " fill-opacity="1" fill-rule="nonzero"/></svg>