<svg width="500" height="500" viewBox="0 0 500 500" fill="none" xmlns="http://www.w3.org/2000/svg">
<mask id="path-1-inside-1_678_65" fill="white">
<path fill-rule="evenodd" clip-rule="evenodd" d="M150.514 267.043C175.904 192.455 246.549 138.798 329.727 138.798C352.23 138.798 373.816 142.726 393.836 149.932C395.94 156.077 397.039 162.414 397.039 168.891C397.039 225.747 312.302 271.838 207.774 271.838C187.815 271.838 168.578 270.158 150.514 267.043Z"/>
</mask>
<path fill-rule="evenodd" clip-rule="evenodd" d="M150.514 267.043C175.904 192.455 246.549 138.798 329.727 138.798C352.23 138.798 373.816 142.726 393.836 149.932C395.94 156.077 397.039 162.414 397.039 168.891C397.039 225.747 312.302 271.838 207.774 271.838C187.815 271.838 168.578 270.158 150.514 267.043Z" fill="#FFF859"/>
<path d="M150.514 267.043L138.208 262.854C136.982 266.455 137.395 270.412 139.337 273.682C141.28 276.952 144.557 279.208 148.305 279.854L150.514 267.043ZM393.836 149.932L406.136 145.723C404.858 141.989 401.953 139.037 398.239 137.7L393.836 149.932ZM162.821 271.232C186.472 201.751 252.283 151.798 329.727 151.798V125.798C240.816 125.798 165.336 183.158 138.208 262.854L162.821 271.232ZM329.727 151.798C350.708 151.798 370.805 155.459 389.434 162.164L398.239 137.7C376.827 129.993 353.752 125.798 329.727 125.798V151.798ZM381.537 154.142C383.197 158.992 384.039 163.909 384.039 168.891H410.039C410.039 160.92 408.682 153.162 406.136 145.723L381.537 154.142ZM384.039 168.891C384.039 190.313 367.892 212.588 335.393 230.266C303.393 247.671 258.297 258.838 207.774 258.838V284.838C261.779 284.838 311.315 272.96 347.816 253.106C383.817 233.523 410.039 204.325 410.039 168.891H384.039ZM207.774 258.838C188.539 258.838 170.042 257.218 152.723 254.232L148.305 279.854C167.114 283.097 187.091 284.838 207.774 284.838V258.838Z" fill="#136594" mask="url(#path-1-inside-1_678_65)"/>
<mask id="path-3-inside-2_678_65" fill="white">
<path fill-rule="evenodd" clip-rule="evenodd" d="M53.1309 248.918C74.8445 229.087 106.96 210.825 145.76 196.651C117.378 223.996 95.5713 260.8 83.4365 303.071C101.376 271.573 134.128 238.84 176.058 212.198C137.033 253.376 113.902 312.581 111.994 377.532C125.092 329.747 161.981 273.723 215.009 227.288C245.522 200.568 277.31 180.587 307.128 168.064C332.395 168.055 355.835 170.345 376.447 174.685C376.354 173.764 376.245 172.843 376.119 171.922C353.2 158.202 327.559 148.143 299.839 142.7C200.776 123.249 104.012 168.414 53.1309 248.918Z"/>
</mask>
<path fill-rule="evenodd" clip-rule="evenodd" d="M53.1309 248.918C74.8445 229.087 106.96 210.825 145.76 196.651C117.378 223.996 95.5713 260.8 83.4365 303.071C101.376 271.573 134.128 238.84 176.058 212.198C137.033 253.376 113.902 312.581 111.994 377.532C125.092 329.747 161.981 273.723 215.009 227.288C245.522 200.568 277.31 180.587 307.128 168.064C332.395 168.055 355.835 170.345 376.447 174.685C376.354 173.764 376.245 172.843 376.119 171.922C353.2 158.202 327.559 148.143 299.839 142.7C200.776 123.249 104.012 168.414 53.1309 248.918Z" fill="#136594"/>
<path d="M145.76 196.651L154.78 206.013C159.204 201.75 160.04 194.972 156.785 189.762C153.529 184.552 147.07 182.332 141.299 184.44L145.76 196.651ZM53.1309 248.918L42.1418 241.972C38.6633 247.476 39.7927 254.704 44.7843 258.884C49.776 263.065 57.0902 262.908 61.8978 258.517L53.1309 248.918ZM83.4365 303.071L70.9412 299.484C69.125 305.811 72.3242 312.497 78.3904 315.052C84.4566 317.607 91.4753 315.225 94.7329 309.505L83.4365 303.071ZM176.058 212.198L185.493 221.141C190.007 216.378 190.264 208.997 186.091 203.932C181.918 198.867 174.625 197.707 169.086 201.226L176.058 212.198ZM111.994 377.532L99 377.15C98.8068 383.729 103.562 389.415 110.072 390.389C116.582 391.362 122.792 387.316 124.532 380.968L111.994 377.532ZM215.009 227.288L206.445 217.508L215.009 227.288ZM307.128 168.064L307.124 155.064C305.396 155.064 303.687 155.409 302.094 156.078L307.128 168.064ZM376.447 174.685L373.768 187.406C377.825 188.26 382.047 187.128 385.132 184.358C388.217 181.588 389.796 177.512 389.382 173.387L376.447 174.685ZM376.119 171.922L388.999 170.161C388.465 166.251 386.183 162.795 382.796 160.768L376.119 171.922ZM141.299 184.44C101.455 198.996 67.6973 218.008 44.3641 239.319L61.8978 258.517C81.9917 240.165 112.466 222.654 150.221 208.862L141.299 184.44ZM95.9319 306.658C107.49 266.396 128.179 231.642 154.78 206.013L136.74 187.289C106.577 216.35 83.6527 255.204 70.9412 299.484L95.9319 306.658ZM169.086 201.226C125.867 228.687 91.3881 262.842 72.1402 296.638L94.7329 309.505C111.364 280.305 142.389 248.994 183.029 223.171L169.086 201.226ZM166.622 203.256C125.108 247.06 100.988 309.456 99 377.15L124.989 377.913C126.816 315.707 148.958 259.691 185.493 221.141L166.622 203.256ZM124.532 380.968C136.792 336.239 171.937 282.285 223.574 237.068L206.445 217.508C152.026 265.162 113.392 323.255 99.4569 374.095L124.532 380.968ZM223.574 237.068C253.177 211.145 283.794 191.964 312.162 180.05L302.094 156.078C270.826 169.21 237.867 189.992 206.445 217.508L223.574 237.068ZM379.125 161.964C357.503 157.411 333.151 155.055 307.124 155.064L307.132 181.064C331.639 181.055 354.167 183.279 373.768 187.406L379.125 161.964ZM363.239 173.682C363.344 174.451 363.435 175.218 363.512 175.983L389.382 173.387C389.274 172.31 389.146 171.235 388.999 170.161L363.239 173.682ZM297.334 155.457C323.561 160.606 347.792 170.116 369.442 183.076L382.796 160.768C358.607 146.288 331.558 135.68 302.344 129.944L297.334 155.457ZM64.12 255.863C112.23 179.744 203.712 137.074 297.334 155.457L302.344 129.944C197.841 109.424 95.7948 157.084 42.1418 241.972L64.12 255.863Z" fill="#136594" mask="url(#path-3-inside-2_678_65)"/>
<path fill-rule="evenodd" clip-rule="evenodd" d="M303.565 142.497C311.974 134.807 327.341 125.254 337.79 119.597C350.669 112.625 364.017 109.323 370.479 111.618L469.751 122.964C434.152 123.269 404.157 147.063 394.509 179.604L379.804 190.073L316.506 153.455C307.07 155.129 299.364 155.133 297.809 152.261C296.848 150.487 298.337 147.805 301.327 144.674L300.296 144.078L303.565 142.497Z" fill="#136594"/>
<path d="M177.625 332.062H196.516V329.812H177.625V332.062ZM196.516 323.953H177.625V326.109H196.516V323.953ZM202.328 319.875V337.688C202.328 339.812 201.734 341.219 200.547 341.906C200.266 342.062 199.969 342.203 199.656 342.328C198.219 342.797 195.328 343.031 190.984 343.031C190.703 341.719 190.109 340.203 189.203 338.484C191.703 338.641 193.766 338.672 195.391 338.578C196.078 338.391 196.453 338.062 196.516 337.594V335.719H177.625V343.219H171.906V319.875H202.328ZM189.766 313.5H208.234V317.766H165.766V313.5H183.953V311.25H170.5V307.219H183.953V305.062H168.719V300.797H183.953V298.359H189.766V300.797H205.75V305.062H189.766V307.219H203.641V311.25H189.766V313.5ZM226.647 343.078L222.1 340.266C224.412 338.016 226.084 334.891 227.116 330.891L231.944 332.531C230.569 337.406 228.803 340.922 226.647 343.078ZM233.866 332.766L238.506 332.062C239.35 335.031 239.772 337.984 239.772 340.922L234.756 341.625C234.912 339 234.616 336.047 233.866 332.766ZM241.647 332.672L245.959 331.641C247.241 334.609 248.037 337.219 248.35 339.469L243.709 340.781C243.522 338.625 242.834 335.922 241.647 332.672ZM249.006 331.781L253.037 330.422C254.506 332.609 255.569 334.656 256.225 336.562L251.912 338.203C251.475 336.391 250.506 334.25 249.006 331.781ZM254.116 305.859H234.522V307.969H254.116V305.859ZM234.522 313.781H254.116V311.531H234.522V313.781ZM266.397 323.766H234.522V325.922H265.272C265.272 325.953 265.225 326.594 265.131 327.844C264.631 335.031 263.912 339.406 262.975 340.969C262.85 341.156 262.725 341.328 262.6 341.484C261.694 342.391 260.569 342.922 259.225 343.078C258.1 343.234 256.303 343.266 253.834 343.172C253.772 341.672 253.319 340.156 252.475 338.625C253.662 338.75 255.006 338.812 256.506 338.812C257.194 338.781 257.709 338.625 258.053 338.344C258.772 337.438 259.303 334.641 259.647 329.953H228.85V301.922H240.147C240.647 300.359 240.959 299.094 241.084 298.125L247.881 298.547C247.631 299.172 247.084 300.297 246.241 301.922H259.741V317.719H234.522V319.828H266.397V323.766ZM297.653 299.812V304.172H282.372V299.812H297.653ZM292.356 330.656H286.872V336.188H292.356V330.656ZM297.372 326.156V340.641H286.872V342.516H281.95V326.156H297.372ZM282.091 323.766V319.5H297.512V323.766H282.091ZM282.091 317.297V312.938H297.512V317.297H282.091ZM279.794 310.781V306.281H299.434V310.781H279.794ZM309.841 337.359H316.684C317.747 337.359 318.45 336.953 318.794 336.141C319.137 335.266 319.387 333.312 319.544 330.281C320.887 331.219 322.559 331.938 324.559 332.438C324.653 332.469 324.731 332.484 324.794 332.484C324.419 336.859 323.606 339.703 322.356 341.016C321.294 342.172 319.544 342.75 317.106 342.75H309.231C305.981 342.75 303.825 342.125 302.762 340.875C301.856 339.719 301.403 337.766 301.403 335.016V316.219H316.544V306.188H301.309V300.75H322.262V323.953H316.544V321.609H307.169V335.016C307.169 336.203 307.434 336.906 307.966 337.125C308.341 337.281 308.966 337.359 309.841 337.359ZM349.347 327.891H351.175C351.394 327.828 351.503 327.672 351.503 327.422V312.188H349.347V327.891ZM355.581 307.172V327.562C355.55 329.688 355.144 331.047 354.363 331.641C353.456 332.328 352.191 332.672 350.566 332.672C350.503 331.078 350.097 329.531 349.347 328.031V343.172H344.519V312.188H342.456V333.234H338.284V307.172H344.519V298.406H349.347V307.172H355.581ZM363.972 324.422V336.328C364.847 336.203 366.206 336 368.05 335.719C369.269 335.531 370.175 335.391 370.769 335.297C369.113 332.391 367.816 328.766 366.878 324.422H363.972ZM378.55 324.797L382.3 328.219C380.613 329.75 378.472 331.375 375.878 333.094C377.816 335.469 380.159 337.188 382.909 338.25C381.503 339.594 380.316 341.172 379.347 342.984C379.316 343.078 379.284 343.141 379.253 343.172C375.816 341.484 373.081 338.969 371.05 335.625L371.331 339.938C367.206 340.719 361.972 341.641 355.628 342.703L354.456 337.641C355.706 337.484 357.113 337.297 358.675 337.078V324.422H356.05V319.734H358.722V300.094H380.097V304.688H364.019V306.891H378.55V311.062H364.019V313.266H378.55V317.484H364.019V319.734H381.784V324.422H371.706C372.113 325.891 372.722 327.5 373.534 329.25C375.566 327.688 377.238 326.203 378.55 324.797Z" fill="#136594"/>
</svg>
