<svg width="705" height="320" viewBox="0 0 705 320" fill="none" xmlns="http://www.w3.org/2000/svg">
<mask id="path-1-inside-1_678_94" fill="white">
<path fill-rule="evenodd" clip-rule="evenodd" d="M119.514 167.043C144.904 92.4548 215.549 38.7985 298.727 38.7985C321.23 38.7985 342.816 42.7257 362.836 49.9322C364.94 56.0772 366.039 62.4142 366.039 68.8908C366.039 125.747 281.302 171.838 176.774 171.838C156.815 171.838 137.578 170.158 119.514 167.043Z"/>
</mask>
<path fill-rule="evenodd" clip-rule="evenodd" d="M119.514 167.043C144.904 92.4548 215.549 38.7985 298.727 38.7985C321.23 38.7985 342.816 42.7257 362.836 49.9322C364.94 56.0772 366.039 62.4142 366.039 68.8908C366.039 125.747 281.302 171.838 176.774 171.838C156.815 171.838 137.578 170.158 119.514 167.043Z" fill="#FFF859"/>
<path d="M119.514 167.043L107.208 162.854C105.982 166.455 106.395 170.412 108.337 173.682C110.28 176.952 113.557 179.208 117.305 179.854L119.514 167.043ZM362.836 49.9322L375.136 45.7227C373.858 41.9885 370.953 39.0372 367.239 37.7005L362.836 49.9322ZM131.821 171.232C155.472 101.751 221.283 51.7985 298.727 51.7985V25.7985C209.816 25.7985 134.336 83.1582 107.208 162.854L131.821 171.232ZM298.727 51.7985C319.708 51.7985 339.805 55.4585 358.434 62.1639L367.239 37.7005C345.827 29.9929 322.752 25.7985 298.727 25.7985V51.7985ZM350.537 54.1416C352.197 58.992 353.039 63.9088 353.039 68.8908H379.039C379.039 60.9196 377.682 53.1624 375.136 45.7227L350.537 54.1416ZM353.039 68.8908C353.039 90.3129 336.892 112.588 304.393 130.266C272.393 147.671 227.297 158.838 176.774 158.838V184.838C230.779 184.838 280.315 172.96 316.816 153.106C352.817 133.523 379.039 104.325 379.039 68.8908H353.039ZM176.774 158.838C157.539 158.838 139.042 157.218 121.723 154.232L117.305 179.854C136.114 183.097 156.091 184.838 176.774 184.838V158.838Z" fill="#136594" mask="url(#path-1-inside-1_678_94)"/>
<mask id="path-3-inside-2_678_94" fill="white">
<path fill-rule="evenodd" clip-rule="evenodd" d="M22.1309 148.918C43.8445 129.087 75.9604 110.825 114.76 96.651C86.3777 123.996 64.5713 160.8 52.4365 203.071C70.3759 171.574 103.128 138.84 145.057 112.198C106.033 153.376 82.902 212.581 80.9944 277.532C94.0925 229.747 130.981 173.723 184.009 127.288C214.522 100.568 246.31 80.5867 276.128 68.0638C301.395 68.0551 324.835 70.3452 345.447 74.685C345.354 73.7641 345.245 72.843 345.119 71.9217C322.2 58.202 296.559 48.1432 268.839 42.7002C169.776 23.2491 73.0125 68.4139 22.1309 148.918Z"/>
</mask>
<path fill-rule="evenodd" clip-rule="evenodd" d="M22.1309 148.918C43.8445 129.087 75.9604 110.825 114.76 96.651C86.3777 123.996 64.5713 160.8 52.4365 203.071C70.3759 171.574 103.128 138.84 145.057 112.198C106.033 153.376 82.902 212.581 80.9944 277.532C94.0925 229.747 130.981 173.723 184.009 127.288C214.522 100.568 246.31 80.5867 276.128 68.0638C301.395 68.0551 324.835 70.3452 345.447 74.685C345.354 73.7641 345.245 72.843 345.119 71.9217C322.2 58.202 296.559 48.1432 268.839 42.7002C169.776 23.2491 73.0125 68.4139 22.1309 148.918Z" fill="#136594"/>
<path d="M114.76 96.651L123.78 106.013C128.204 101.75 129.04 94.9721 125.785 89.7619C122.529 84.5518 116.07 82.3321 110.299 84.4402L114.76 96.651ZM22.1309 148.918L11.1418 141.972C7.66329 147.476 8.79268 154.704 13.7843 158.884C18.776 163.065 26.0902 162.908 30.8978 158.517L22.1309 148.918ZM52.4365 203.071L39.9412 199.484C38.125 205.811 41.3242 212.497 47.3904 215.052C53.4566 217.607 60.4753 215.225 63.7329 209.505L52.4365 203.071ZM145.057 112.198L154.493 121.141C159.007 116.378 159.264 108.997 155.091 103.932C150.918 98.8673 143.625 97.7066 138.086 101.226L145.057 112.198ZM80.9944 277.532L68 277.15C67.8068 283.729 72.5617 289.415 79.0716 290.389C85.5816 291.362 91.7918 287.316 93.5319 280.968L80.9944 277.532ZM184.009 127.288L175.445 117.508L184.009 127.288ZM276.128 68.0638L276.124 55.0638C274.396 55.0644 272.687 55.4091 271.094 56.0779L276.128 68.0638ZM345.447 74.685L342.768 87.4061C346.825 88.2604 351.047 87.128 354.132 84.358C357.217 81.5879 358.796 77.5124 358.382 73.3869L345.447 74.685ZM345.119 71.9217L357.999 70.1611C357.465 66.2506 355.183 62.7947 351.796 60.7675L345.119 71.9217ZM110.299 84.4402C70.4549 98.9955 36.6973 118.008 13.3641 139.319L30.8978 158.517C50.9917 140.165 81.4658 122.654 119.221 108.862L110.299 84.4402ZM64.9319 206.658C76.4899 166.396 97.1787 131.642 123.78 106.013L105.74 87.2891C75.5766 116.35 52.6527 155.204 39.9412 199.484L64.9319 206.658ZM138.086 101.226C94.8666 128.687 60.3881 162.842 41.1402 196.638L63.7329 209.505C80.3637 180.305 111.389 148.994 152.029 123.171L138.086 101.226ZM135.622 103.256C94.1082 147.06 69.9882 209.456 68 277.15L93.9888 277.913C95.8159 215.707 117.958 159.691 154.493 121.141L135.622 103.256ZM93.5319 280.968C105.792 236.239 140.937 182.285 192.574 137.068L175.445 117.508C121.026 165.162 82.3925 223.255 68.4569 274.095L93.5319 280.968ZM192.574 137.068C222.177 111.145 252.794 91.9636 281.162 80.0496L271.094 56.0779C239.826 69.2099 206.867 89.9919 175.445 117.508L192.574 137.068ZM348.125 61.9639C326.503 57.4113 302.151 55.0548 276.124 55.0638L276.132 81.0638C300.639 81.0553 323.167 83.279 342.768 87.4061L348.125 61.9639ZM332.239 73.6823C332.344 74.4513 332.435 75.2182 332.512 75.9832L358.382 73.3869C358.274 72.31 358.146 71.2347 357.999 70.1611L332.239 73.6823ZM266.334 55.4566C292.561 60.6063 316.792 70.1161 338.442 83.076L351.796 60.7675C327.607 46.2879 300.558 35.68 271.344 29.9438L266.334 55.4566ZM33.12 155.863C81.2302 79.7442 172.712 37.0737 266.334 55.4566L271.344 29.9438C166.841 9.42443 64.7948 57.0836 11.1418 141.972L33.12 155.863Z" fill="#136594" mask="url(#path-3-inside-2_678_94)"/>
<path fill-rule="evenodd" clip-rule="evenodd" d="M272.565 42.4969C280.974 34.8074 296.341 25.2539 306.79 19.5974C319.669 12.6248 333.016 9.32292 339.478 11.6183L438.751 22.9637C403.152 23.2686 373.157 47.0631 363.509 79.6039L348.804 90.0726L285.506 53.455C276.07 55.1292 268.364 55.1333 266.809 52.261C265.848 50.487 267.337 47.8051 270.327 44.6744L269.296 44.0778L272.565 42.4969Z" fill="#136594"/>
<path d="M413.5 127.75H438.688V124.75H413.5V127.75ZM438.688 116.938H413.5V119.812H438.688V116.938ZM446.438 111.5V135.25C446.438 138.083 445.646 139.958 444.062 140.875C443.688 141.083 443.292 141.271 442.875 141.438C440.958 142.062 437.104 142.375 431.312 142.375C430.938 140.625 430.146 138.604 428.938 136.312C432.271 136.521 435.021 136.562 437.188 136.438C438.104 136.188 438.604 135.75 438.688 135.125V132.625H413.5V142.625H405.875V111.5H446.438ZM429.688 103H454.312V108.688H397.688V103H421.938V100H404V94.625H421.938V91.75H401.625V86.0625H421.938V82.8125H429.688V86.0625H451V91.75H429.688V94.625H448.188V100H429.688V103ZM478.863 142.438L472.8 138.688C475.883 135.688 478.113 131.521 479.488 126.188L485.925 128.375C484.092 134.875 481.738 139.562 478.863 142.438ZM488.488 128.688L494.675 127.75C495.8 131.708 496.363 135.646 496.363 139.562L489.675 140.5C489.883 137 489.488 133.062 488.488 128.688ZM498.863 128.562L504.613 127.188C506.321 131.146 507.383 134.625 507.8 137.625L501.613 139.375C501.363 136.5 500.446 132.896 498.863 128.562ZM508.675 127.375L514.05 125.562C516.008 128.479 517.425 131.208 518.3 133.75L512.55 135.938C511.967 133.521 510.675 130.667 508.675 127.375ZM515.488 92.8125H489.363V95.625H515.488V92.8125ZM489.363 103.375H515.488V100.375H489.363V103.375ZM531.863 116.688H489.363V119.562H530.363C530.363 119.604 530.3 120.458 530.175 122.125C529.508 131.708 528.55 137.542 527.3 139.625C527.133 139.875 526.967 140.104 526.8 140.312C525.592 141.521 524.092 142.229 522.3 142.438C520.8 142.646 518.404 142.688 515.113 142.562C515.029 140.562 514.425 138.542 513.3 136.5C514.883 136.667 516.675 136.75 518.675 136.75C519.592 136.708 520.279 136.5 520.738 136.125C521.696 134.917 522.404 131.188 522.863 124.938H481.8V87.5625H496.863C497.529 85.4792 497.946 83.7917 498.113 82.5L507.175 83.0625C506.842 83.8958 506.113 85.3958 504.988 87.5625H522.988V108.625H489.363V111.438H531.863V116.688ZM573.538 84.75V90.5625H553.163V84.75H573.538ZM566.475 125.875H559.163V133.25H566.475V125.875ZM573.163 119.875V139.188H559.163V141.688H552.6V119.875H573.163ZM552.788 116.688V111H573.35V116.688H552.788ZM552.788 108.062V102.25H573.35V108.062H552.788ZM549.725 99.375V93.375H575.913V99.375H549.725ZM589.788 134.812H598.913C600.329 134.812 601.267 134.271 601.725 133.188C602.183 132.021 602.517 129.417 602.725 125.375C604.517 126.625 606.746 127.583 609.413 128.25C609.538 128.292 609.642 128.312 609.725 128.312C609.225 134.146 608.142 137.938 606.475 139.688C605.058 141.229 602.725 142 599.475 142H588.975C584.642 142 581.767 141.167 580.35 139.5C579.142 137.958 578.538 135.354 578.538 131.688V106.625H598.725V93.25H578.413V86H606.35V116.938H598.725V113.812H586.225V131.688C586.225 133.271 586.579 134.208 587.288 134.5C587.788 134.708 588.621 134.812 589.788 134.812ZM642.462 122.188H644.9C645.192 122.104 645.337 121.896 645.337 121.562V101.25H642.462V122.188ZM650.775 94.5625V121.75C650.733 124.583 650.192 126.396 649.15 127.188C647.942 128.104 646.254 128.562 644.087 128.562C644.004 126.438 643.462 124.375 642.462 122.375V142.562H636.025V101.25H633.275V129.312H627.712V94.5625H636.025V82.875H642.462V94.5625H650.775ZM661.962 117.562V133.438C663.129 133.271 664.942 133 667.4 132.625C669.025 132.375 670.233 132.188 671.025 132.062C668.817 128.188 667.087 123.354 665.837 117.562H661.962ZM681.4 118.062L686.4 122.625C684.15 124.667 681.296 126.833 677.837 129.125C680.421 132.292 683.546 134.583 687.212 136C685.337 137.792 683.754 139.896 682.462 142.312C682.421 142.438 682.379 142.521 682.337 142.562C677.754 140.312 674.108 136.958 671.4 132.5L671.775 138.25C666.275 139.292 659.296 140.521 650.837 141.938L649.275 135.188C650.942 134.979 652.817 134.729 654.9 134.438V117.562H651.4V111.312H654.962V85.125H683.462V91.25H662.025V94.1875H681.4V99.75H662.025V102.688H681.4V108.312H662.025V111.312H685.712V117.562H672.275C672.817 119.521 673.629 121.667 674.712 124C677.421 121.917 679.65 119.938 681.4 118.062Z" fill="#136594"/>
</svg>
