<svg width="92" height="92" viewBox="0 0 92 92" fill="none" xmlns="http://www.w3.org/2000/svg">
<circle cx="46" cy="46" r="46" fill="white"/>
<path d="M61.5 67.5C61.5 68.2931 60.962 69.1491 59.7461 70.0115C58.5432 70.8647 56.7701 71.6536 54.534 72.3244C50.0683 73.6641 43.8689 74.5 37 74.5C30.1311 74.5 23.9317 73.6641 19.466 72.3244C17.2299 71.6536 15.4568 70.8647 14.2539 70.0115C13.038 69.1491 12.5 68.2931 12.5 67.5C12.5 66.7069 13.038 65.8509 14.2539 64.9885C15.4568 64.1353 17.2299 63.3464 19.466 62.6756C23.9317 61.3359 30.1311 60.5 37 60.5C43.8689 60.5 50.0683 61.3359 54.534 62.6756C56.7701 63.3464 58.5432 64.1353 59.7461 64.9885C60.962 65.8509 61.5 66.7069 61.5 67.5Z" fill="#0F5769" stroke="#0F5769"/>
<path d="M61.5 72.5C61.5 73.2931 60.962 74.1491 59.7461 75.0115C58.5432 75.8647 56.7701 76.6536 54.534 77.3244C50.0683 78.6641 43.8689 79.5 37 79.5C30.1311 79.5 23.9317 78.6641 19.466 77.3244C17.2299 76.6536 15.4568 75.8647 14.2539 75.0115C13.038 74.1491 12.5 73.2931 12.5 72.5C12.5 71.7069 13.038 70.8509 14.2539 69.9885C15.4568 69.1353 17.2299 68.3464 19.466 67.6756C23.9317 66.3359 30.1311 65.5 37 65.5C43.8689 65.5 50.0683 66.3359 54.534 67.6756C56.7701 68.3464 58.5432 69.1353 59.7461 69.9885C60.962 70.8509 61.5 71.7069 61.5 72.5Z" fill="#0F5769" stroke="#0F5769"/>
<path d="M12 72.5V67.5H62V72.5H12Z" fill="#0F5769"/>
<path d="M15 68V75" stroke="white"/>
<path d="M19 69V76" stroke="white"/>
<path d="M23 70V77" stroke="white"/>
<path d="M28 71V78" stroke="white"/>
<path d="M33 71V78" stroke="white"/>
<path d="M39 71V78" stroke="white"/>
<path d="M44 71V78" stroke="white"/>
<path d="M49 70V77" stroke="white"/>
<path d="M54 69V76" stroke="white"/>
<path d="M58 68V75" stroke="white"/>
<path d="M68.5 59.5C68.5 60.2931 67.962 61.1491 66.7461 62.0115C65.5432 62.8647 63.7701 63.6536 61.534 64.3244C57.0683 65.6641 50.8689 66.5 44 66.5C37.1311 66.5 30.9317 65.6641 26.466 64.3244C24.2299 63.6536 22.4568 62.8647 21.2539 62.0115C20.038 61.1491 19.5 60.2931 19.5 59.5C19.5 58.7069 20.038 57.8509 21.2539 56.9885C22.4568 56.1353 24.2299 55.3464 26.466 54.6756C30.9317 53.3359 37.1311 52.5 44 52.5C50.8689 52.5 57.0683 53.3359 61.534 54.6756C63.7701 55.3464 65.5432 56.1353 66.7461 56.9885C67.962 57.8509 68.5 58.7069 68.5 59.5Z" fill="#0F5769" stroke="#0F5769"/>
<path d="M68.5 64.5C68.5 65.2931 67.962 66.1491 66.7461 67.0115C65.5432 67.8647 63.7701 68.6536 61.534 69.3244C57.0683 70.6641 50.8689 71.5 44 71.5C37.1311 71.5 30.9317 70.6641 26.466 69.3244C24.2299 68.6536 22.4568 67.8647 21.2539 67.0115C20.038 66.1491 19.5 65.2931 19.5 64.5C19.5 63.7069 20.038 62.8509 21.2539 61.9885C22.4568 61.1353 24.2299 60.3464 26.466 59.6756C30.9317 58.3359 37.1311 57.5 44 57.5C50.8689 57.5 57.0683 58.3359 61.534 59.6756C63.7701 60.3464 65.5432 61.1353 66.7461 61.9885C67.962 62.8509 68.5 63.7069 68.5 64.5Z" fill="#0F5769" stroke="#0F5769"/>
<path d="M19 64.5V59.5H69V64.5H19Z" fill="#0F5769"/>
<path d="M22 60V67" stroke="white"/>
<path d="M26 61V68" stroke="white"/>
<path d="M30 62V69" stroke="white"/>
<path d="M35 63V70" stroke="white"/>
<path d="M40 63V70" stroke="white"/>
<path d="M46 63V70" stroke="white"/>
<path d="M51 63V70" stroke="white"/>
<path d="M56 62V69" stroke="white"/>
<path d="M61 61V68" stroke="white"/>
<path d="M65 60V67" stroke="white"/>
<path d="M82.5 53.5C82.5 54.2931 81.962 55.1491 80.7461 56.0115C79.5432 56.8647 77.7701 57.6536 75.534 58.3244C71.0683 59.6641 64.8689 60.5 58 60.5C51.1311 60.5 44.9317 59.6641 40.466 58.3244C38.2299 57.6536 36.4568 56.8647 35.2539 56.0115C34.038 55.1491 33.5 54.2931 33.5 53.5C33.5 52.7069 34.038 51.8509 35.2539 50.9885C36.4568 50.1353 38.2299 49.3464 40.466 48.6756C44.9317 47.3359 51.1311 46.5 58 46.5C64.8689 46.5 71.0683 47.3359 75.534 48.6756C77.7701 49.3464 79.5432 50.1353 80.7461 50.9885C81.962 51.8509 82.5 52.7069 82.5 53.5Z" fill="#0F5769" stroke="#0F5769"/>
<path d="M82.5 58.5C82.5 59.2931 81.962 60.1491 80.7461 61.0115C79.5432 61.8647 77.7701 62.6536 75.534 63.3244C71.0683 64.6641 64.8689 65.5 58 65.5C51.1311 65.5 44.9317 64.6641 40.466 63.3244C38.2299 62.6536 36.4568 61.8647 35.2539 61.0115C34.038 60.1491 33.5 59.2931 33.5 58.5C33.5 57.7069 34.038 56.8509 35.2539 55.9885C36.4568 55.1353 38.2299 54.3464 40.466 53.6756C44.9317 52.3359 51.1311 51.5 58 51.5C64.8689 51.5 71.0683 52.3359 75.534 53.6756C77.7701 54.3464 79.5432 55.1353 80.7461 55.9885C81.962 56.8509 82.5 57.7069 82.5 58.5Z" fill="#0F5769" stroke="#0F5769"/>
<path d="M33 58.5V53.5H83V58.5H33Z" fill="#0F5769"/>
<path d="M36 54V61" stroke="white"/>
<path d="M40 55V62" stroke="white"/>
<path d="M44 56V63" stroke="white"/>
<path d="M49 57V64" stroke="white"/>
<path d="M54 57V64" stroke="white"/>
<path d="M60 57V64" stroke="white"/>
<path d="M65 57V64" stroke="white"/>
<path d="M70 56V63" stroke="white"/>
<path d="M75 55V62" stroke="white"/>
<path d="M79 54V61" stroke="white"/>
<path d="M55.5 45.375C55.5 46.0155 55.0706 46.7236 54.0582 47.4502C53.0577 48.1683 51.5778 48.8355 49.704 49.4044C45.9627 50.5401 40.7639 51.25 35 51.25C29.2361 51.25 24.0373 50.5401 20.296 49.4044C18.4222 48.8355 16.9423 48.1683 15.9418 47.4502C14.9294 46.7236 14.5 46.0155 14.5 45.375C14.5 44.7345 14.9294 44.0264 15.9418 43.2998C16.9423 42.5817 18.4222 41.9145 20.296 41.3456C24.0373 40.2099 29.2361 39.5 35 39.5C40.7639 39.5 45.9627 40.2099 49.704 41.3456C51.5778 41.9145 53.0577 42.5817 54.0582 43.2998C55.0706 44.0264 55.5 44.7345 55.5 45.375Z" fill="#0F5769" stroke="#0F5769"/>
<path d="M55.5 49.625C55.5 50.2655 55.0706 50.9736 54.0582 51.7002C53.0577 52.4183 51.5778 53.0855 49.704 53.6544C45.9627 54.7901 40.7639 55.5 35 55.5C29.2361 55.5 24.0373 54.7901 20.296 53.6544C18.4222 53.0855 16.9423 52.4183 15.9418 51.7002C14.9294 50.9736 14.5 50.2655 14.5 49.625C14.5 48.9845 14.9294 48.2764 15.9418 47.5498C16.9423 46.8317 18.4222 46.1645 20.296 45.5956C24.0373 44.4599 29.2361 43.75 35 43.75C40.7639 43.75 45.9627 44.4599 49.704 45.5956C51.5778 46.1645 53.0577 46.8317 54.0582 47.5498C55.0706 48.2764 55.5 48.9845 55.5 49.625Z" fill="#0F5769" stroke="#0F5769"/>
<path d="M14 49.625V45.375H56V49.625H14Z" fill="#0F5769"/>
<path d="M16.52 45.8V51.75" stroke="white"/>
<path d="M19.88 46.65V52.6" stroke="white"/>
<path d="M23.24 47.5V53.45" stroke="white"/>
<path d="M27.44 48.35V54.3" stroke="white"/>
<path d="M31.64 48.35V54.3" stroke="white"/>
<path d="M36.68 48.35V54.3" stroke="white"/>
<path d="M40.88 48.35V54.3" stroke="white"/>
<path d="M45.08 47.5V53.45" stroke="white"/>
<path d="M49.28 46.65V52.6" stroke="white"/>
<path d="M52.64 45.8V51.75" stroke="white"/>
<path d="M73.3824 35.875C73.3824 36.7226 72.8147 37.628 71.5522 38.5341C70.3018 39.4316 68.46 40.2605 66.1391 40.965C61.5036 42.3722 55.0696 43.25 47.9412 43.25C40.8128 43.25 34.3787 42.3722 29.7432 40.965C27.4224 40.2605 25.5806 39.4316 24.3301 38.5341C23.0676 37.628 22.5 36.7226 22.5 35.875C22.5 35.0274 23.0676 34.122 24.3301 33.2159C25.5806 32.3184 27.4224 31.4895 29.7432 30.785C34.3787 29.3778 40.8128 28.5 47.9412 28.5C55.0696 28.5 61.5036 29.3778 66.1391 30.785C68.46 31.4895 70.3018 32.3184 71.5522 33.2159C72.8147 34.122 73.3824 35.0274 73.3824 35.875Z" fill="#0F5769" stroke="#0F5769"/>
<path d="M73.3824 41.125C73.3824 41.9726 72.8147 42.878 71.5522 43.7841C70.3018 44.6816 68.46 45.5105 66.1391 46.215C61.5036 47.6222 55.0696 48.5 47.9412 48.5C40.8128 48.5 34.3787 47.6222 29.7432 46.215C27.4224 45.5105 25.5806 44.6816 24.3301 43.7841C23.0676 42.878 22.5 41.9726 22.5 41.125C22.5 40.2774 23.0676 39.372 24.3301 38.4659C25.5806 37.5684 27.4224 36.7395 29.7432 36.035C34.3787 34.6278 40.8128 33.75 47.9412 33.75C55.0696 33.75 61.5036 34.6278 66.1391 36.035C68.46 36.7395 70.3018 37.5684 71.5522 38.4659C72.8147 39.372 73.3824 40.2774 73.3824 41.125Z" fill="#0F5769" stroke="#0F5769"/>
<path d="M22 41.125V35.875H73.8824V41.125H22Z" fill="#0F5769"/>
<path d="M25.1129 36.4V43.75" stroke="white"/>
<path d="M29.2635 37.45V44.8" stroke="white"/>
<path d="M33.4141 38.5V45.85" stroke="white"/>
<path d="M38.6024 39.55V46.9" stroke="white"/>
<path d="M43.7906 39.55V46.9" stroke="white"/>
<path d="M50.0165 39.55V46.9" stroke="white"/>
<path d="M55.2047 39.55V46.9" stroke="white"/>
<path d="M60.3929 38.5V45.85" stroke="white"/>
<path d="M65.5812 37.45V44.8" stroke="white"/>
<path d="M69.7318 36.4V43.75" stroke="white"/>
<path d="M66.3824 26.875C66.3824 27.7226 65.8147 28.628 64.5522 29.5341C63.3018 30.4316 61.46 31.2605 59.1391 31.965C54.5036 33.3722 48.0696 34.25 40.9412 34.25C33.8128 34.25 27.3787 33.3722 22.7432 31.965C20.4224 31.2605 18.5806 30.4316 17.3301 29.5341C16.0676 28.628 15.5 27.7226 15.5 26.875C15.5 26.0274 16.0676 25.122 17.3301 24.2159C18.5806 23.3184 20.4224 22.4895 22.7432 21.785C27.3787 20.3778 33.8128 19.5 40.9412 19.5C48.0696 19.5 54.5036 20.3778 59.1391 21.785C61.46 22.4895 63.3018 23.3184 64.5522 24.2159C65.8147 25.122 66.3824 26.0274 66.3824 26.875Z" fill="#0F5769" stroke="#0F5769"/>
<path d="M66.3824 32.125C66.3824 32.9726 65.8147 33.878 64.5522 34.7841C63.3018 35.6816 61.46 36.5105 59.1391 37.215C54.5036 38.6222 48.0696 39.5 40.9412 39.5C33.8128 39.5 27.3787 38.6222 22.7432 37.215C20.4224 36.5105 18.5806 35.6816 17.3301 34.7841C16.0676 33.878 15.5 32.9726 15.5 32.125C15.5 31.2774 16.0676 30.372 17.3301 29.4659C18.5806 28.5684 20.4224 27.7395 22.7432 27.035C27.3787 25.6278 33.8128 24.75 40.9412 24.75C48.0696 24.75 54.5036 25.6278 59.1391 27.035C61.46 27.7395 63.3018 28.5684 64.5522 29.4659C65.8147 30.372 66.3824 31.2774 66.3824 32.125Z" fill="#0F5769" stroke="#0F5769"/>
<path d="M15 32.125V26.875H66.8824V32.125H15Z" fill="#0F5769"/>
<path d="M18.1129 27.4V34.75" stroke="white"/>
<path d="M22.2635 28.45V35.8" stroke="white"/>
<path d="M26.4141 29.5V36.85" stroke="white"/>
<path d="M31.6024 30.55V37.9" stroke="white"/>
<path d="M36.7906 30.55V37.9" stroke="white"/>
<path d="M43.0165 30.55V37.9" stroke="white"/>
<path d="M48.2047 30.55V37.9" stroke="white"/>
<path d="M53.3929 29.5V36.85" stroke="white"/>
<path d="M58.5812 28.45V35.8" stroke="white"/>
<path d="M62.7318 27.4V34.75" stroke="white"/>
</svg>
