<svg width="109" height="242" viewBox="0 0 109 242" fill="none" xmlns="http://www.w3.org/2000/svg">
<g clip-path="url(#clip0_430_482)">
<path d="M109 242H66.7611L66.3493 240.21L64.0913 230.359L61.8368 240.21L61.4285 242H17.9786C17.8844 241.396 17.7936 240.799 17.7029 240.21C16.436 232.076 15.1831 225.304 14.1222 223.366C11.0441 217.756 13.9128 221.27 17.1968 217.963C20.4809 214.66 17.1968 217.963 15.2739 213.723C13.3474 209.482 23.7789 177.255 23.7789 177.255L94.939 178.312C94.939 178.312 108.082 201.443 108.218 204.634C108.295 206.449 108.661 224.756 108.962 240.21C108.976 240.81 108.986 241.41 109 242Z" fill="#2F2E41"/>
<path d="M67.4974 199.667C67.4974 199.667 97.7845 213.683 102.556 202.932C107.328 192.18 104.966 177.81 102.01 175.929C99.0536 174.048 95.8074 165.382 100.132 159.394C104.457 153.405 97.6542 143.287 95.7495 142.254C94.2992 141.467 90.3535 97.1359 88.5535 76.0299C88.275 72.7672 87.0648 69.6551 85.0687 67.0683C83.0725 64.4814 80.3755 62.5302 77.3024 61.4495L70.1427 49.818L51.7754 49.6517L42.5996 62.4482L29.3571 67.4306L19.4168 108.724C19.4168 108.724 19.3208 126.964 21.41 146.439C22.06 152.498 22.9215 158.677 24.0633 164.464C26.7527 178.093 15.0382 189.316 21.7348 191.896C40.4124 199.091 67.4974 199.667 67.4974 199.667Z" fill="#E6E6E6"/>
<path d="M29.4797 173.117L87.7457 171.011C88.1415 171.011 88.5335 171.089 88.8992 171.242C89.2649 171.394 89.5972 171.617 89.8771 171.899C90.157 172.18 90.379 172.515 90.5305 172.883C90.6819 173.25 90.7599 173.645 90.7599 174.043V203.431C90.7599 203.829 90.6819 204.224 90.5305 204.591C90.379 204.959 90.157 205.293 89.8771 205.575C89.5972 205.857 89.2649 206.08 88.8992 206.232C88.5335 206.385 88.1415 206.463 87.7457 206.463H32.9696C32.5738 206.463 32.1818 206.385 31.8161 206.232C31.4504 206.08 31.1181 205.857 30.8383 205.575C30.5584 205.293 30.3363 204.959 30.1849 204.591C30.0334 204.224 29.9554 203.829 29.9554 203.431C26.7255 195.151 24.0237 187.091 26.4655 176.149C26.4655 175.345 26.783 174.574 27.3483 174.005C27.9136 173.437 28.6803 173.117 29.4797 173.117Z" fill="#3F3D56"/>
<path d="M83.9332 176.728H35.9882V177.43H83.9332V176.728Z" fill="#2F2E41"/>
<path d="M83.9333 186.867H35.9884V188.371H83.9333V186.867Z" fill="#2F2E41"/>
<path d="M79.9644 155.175H35.9883V176.76H79.9644V155.175Z" fill="#3B92DA"/>
<path opacity="0.2" d="M79.9644 155.175H35.9883V176.76H79.9644V155.175Z" fill="black"/>
<path d="M79.9644 155.175H49.6315V176.76H79.9644V155.175Z" fill="#3B92DA"/>
<path d="M75.224 158.779H69.2342C69.1793 158.779 69.1265 158.758 69.0877 158.718C69.0488 158.679 69.027 158.626 69.027 158.571C69.027 158.516 69.0488 158.463 69.0877 158.424C69.1265 158.385 69.1793 158.363 69.2342 158.363H75.224C75.279 158.363 75.3317 158.385 75.3706 158.424C75.4095 158.463 75.4313 158.516 75.4313 158.571C75.4313 158.626 75.4095 158.679 75.3706 158.718C75.3317 158.758 75.279 158.779 75.224 158.779Z" fill="white"/>
<path d="M45.6858 173.836H39.696C39.6412 173.835 39.5887 173.813 39.55 173.774C39.5113 173.735 39.4896 173.682 39.4896 173.627C39.4896 173.572 39.5113 173.519 39.55 173.48C39.5887 173.441 39.6412 173.419 39.696 173.419H45.6858C45.7408 173.419 45.7935 173.441 45.8324 173.48C45.8713 173.519 45.8931 173.572 45.8931 173.627C45.8931 173.682 45.8713 173.735 45.8324 173.775C45.7935 173.814 45.7408 173.836 45.6858 173.836Z" fill="white"/>
<path d="M57.2097 158.779H38.7805C38.73 158.781 38.6807 158.764 38.6412 158.732C38.6018 158.701 38.5746 158.656 38.5645 158.606C38.5587 158.577 38.5598 158.546 38.5677 158.517C38.5755 158.488 38.5898 158.461 38.6096 158.439C38.6293 158.416 38.6539 158.399 38.6815 158.387C38.7091 158.376 38.739 158.371 38.7688 158.373H57.3082C57.3497 158.396 57.3825 158.432 57.4016 158.475C57.4207 158.519 57.425 158.568 57.4138 158.614C57.4026 158.66 57.3765 158.702 57.3396 158.732C57.3027 158.761 57.2571 158.778 57.2097 158.779Z" fill="white"/>
<path d="M86.7491 206.144L49.5246 214.448C48.3346 214.448 47.1932 213.972 46.3518 213.126C45.5103 212.279 45.0375 211.131 45.0375 209.934C41.3816 200.527 41.3197 191.708 45.0375 183.509C45.0375 182.312 45.5103 181.164 46.3518 180.318C47.1932 179.471 48.3346 178.996 49.5246 178.996L86.7491 170.691C87.9392 170.691 89.0805 171.167 89.922 172.013C90.7635 172.86 91.2362 174.008 91.2362 175.205C94.6764 185.074 97.5208 194.76 91.2362 201.63C91.2362 202.827 90.7635 203.975 89.922 204.822C89.0805 205.668 87.9392 206.144 86.7491 206.144Z" fill="#2F2E41"/>
<path d="M53.1342 184.604L53.6105 187.563L77.9006 186.926C77.982 185.377 66.9492 184.217 55.25 184.545L53.1342 184.604Z" fill="#3F3D56"/>
<path d="M53.1342 191.976L53.6105 194.936L77.9006 194.299C77.982 192.749 66.9492 191.589 55.25 191.917L53.1342 191.976Z" fill="#3F3D56"/>
<path d="M53.1342 200.753L53.6105 203.712L77.9006 203.075C77.982 201.525 66.9492 200.365 55.25 200.693L53.1342 200.753Z" fill="#3F3D56"/>
<path d="M95.846 140.261L95.1615 146.867L95.0011 148.395L94.7551 150.848L89.4711 201.837C89.9081 203.308 89.848 204.883 89.3002 206.316C88.7525 207.749 87.7481 208.959 86.4441 209.756C84.9375 210.66 83.1359 210.925 81.4352 210.493C79.7344 210.061 78.2736 208.968 77.3737 207.454C77.3416 207.4 77.3201 207.346 77.2881 207.292C76.3898 205.716 76.1376 203.85 76.585 202.091C77.0324 200.331 78.1441 198.816 79.684 197.867C80.0028 197.683 80.3354 197.525 80.6788 197.394L80.636 195.963L80.5077 191.476L80.4114 188.087L80.2081 181.341L80.1332 178.726L79.8872 170.248L79.6519 162.071L79.3631 152.161L79.1384 144.544L81.866 143.844L95.846 140.261Z" fill="#A0616A"/>
<path d="M101.13 131.644C100.884 132.905 100.659 133.72 100.499 133.982C99.1191 136.155 98.2742 133.118 99.0336 138.939C99.6433 143.664 95.9851 143.072 97.3008 144.081C99.4721 145.75 96.4772 146.487 95.1616 147.389C94.5732 147.787 96.2022 147.692 96.8761 148.245C97.1966 148.498 95.6742 149.228 96.0493 149.388C97.4827 150.067 96.659 150.581 94.7551 150.979C91.5997 151.629 85.4921 151.949 81.8019 152.075C80.7537 152.123 79.898 152.143 79.3632 152.162C78.9674 152.172 78.7428 152.172 78.7428 152.172C78.7428 152.172 77.8122 151.57 77.4271 149.737C77.149 148.456 77.149 146.565 77.9191 143.848C78.3898 142.179 79.192 140.986 79.6626 140.026C79.9355 139.578 80.0626 139.056 80.0263 138.532V138.522C79.9514 138.027 79.5985 137.571 78.7962 137.086C77.3523 136.213 78.1545 134.38 79.2776 132.653C80.3472 131.033 81.6949 129.49 81.6949 128.927C81.6949 127.734 72.7956 102.375 72.7956 102.375L76.0686 64.0829C78.565 62.359 81.5953 61.5979 84.6042 61.9389C86.6687 62.2105 88.9683 63.0837 91.3322 65.0433C93.3966 66.7605 95.5144 69.3217 97.5468 73.0277C106.189 88.7731 102.97 122.35 101.13 131.644Z" fill="#E6E6E6"/>
<path d="M57.9718 45.3106C68.5222 45.3106 77.075 36.7074 77.075 26.0947C77.075 15.482 68.5222 6.87878 57.9718 6.87878C47.4213 6.87878 38.8685 15.482 38.8685 26.0947C38.8685 36.7074 47.4213 45.3106 57.9718 45.3106Z" fill="#A0616A"/>
<path d="M77.8522 35.8711C77.8522 35.8711 72.5514 40.2253 69.6448 41.4956C70.4495 38.6843 71.288 33.8578 72.0905 31.0545C72.5078 29.5795 72.934 28.0724 72.8661 26.5479C72.7925 25.0131 72.1392 23.4283 70.8457 22.633C70.218 22.2455 69.485 22.0664 68.7506 22.1212C68.0161 22.176 67.3174 22.4619 66.7534 22.9383C66.1895 23.4148 65.7888 24.0576 65.6082 24.7758C65.4276 25.494 65.4763 26.2512 65.7473 26.9401C64.4811 26.8533 63.766 25.3982 63.611 24.1262C63.456 22.8541 63.5734 21.468 62.8744 20.3896C62.2007 19.3441 60.8706 18.8674 59.6247 18.9247C58.389 18.9763 57.2154 19.4865 56.1083 20.0673C52.9424 21.7148 50.0672 23.989 46.6609 25.0759C45.9777 25.2944 45.2757 25.4481 44.564 25.535C44.5889 23.463 43.9062 21.4452 42.6299 19.8187C42.4449 21.7491 41.904 23.6278 41.0346 25.3588C39.3921 25.0377 37.9329 24.0996 36.9534 22.735C35.8872 21.1815 35.625 19.1786 35.8759 17.3108C35.9974 16.4529 36.2052 15.6096 36.4958 14.7938C36.9969 14.6727 37.4849 14.5023 37.9528 14.2852C38.9854 13.8301 39.9183 13.1742 40.6981 12.3553C39.6443 12.3997 38.5889 12.3244 37.5519 12.1308C37.5777 12.0688 37.6012 12.0149 37.627 11.9529C38.2207 10.6484 38.8778 9.30124 40.0242 8.45455C41.1705 7.6079 42.9461 7.43945 43.9418 8.47134C46.53 4.37979 50.6281 1.49006 55.3344 0.437846C60.0408 -0.614365 64.9699 0.257139 69.0375 2.86064C69.1282 2.91868 69.2184 2.97753 69.308 3.0372C68.566 3.88915 67.9967 4.87877 67.6321 5.9504C68.7607 5.36673 69.9594 4.93216 71.1987 4.65747C72.0712 5.63749 72.6227 6.81314 72.3862 8.07057C73.8328 8.77895 76.6539 9.95924 75.3204 10.7361C78.7824 13.8536 80.9614 18.1599 81.4298 22.81C81.8981 27.4602 80.6222 32.1185 77.8522 35.8711Z" fill="#2F2E41"/>
<path d="M54.1688 167.863C54.0558 169.624 53.2525 171.268 51.9353 172.433C50.6181 173.599 48.8948 174.191 47.1439 174.08C47.0847 174.068 47.0248 174.061 46.9646 174.057C45.1641 173.908 43.4921 173.06 42.3034 171.691C41.1146 170.323 40.5027 168.542 40.5973 166.728C40.6304 166.36 40.6903 165.996 40.7767 165.638L39.581 164.863L35.8294 162.42L33.0045 160.586L27.3622 156.925L25.18 155.512L24.8885 155.324L18.0954 150.904L12.6399 147.363L12.1765 147.062L11.2648 146.468L2.98437 141.094L0.757355 139.65C0.749869 139.643 0.757355 139.643 0.757355 139.643C0.682643 139.5 5.36834 137.162 5.29363 137.019C4.11284 134.666 2.61819 132.689 4.54631 124.24L2.58085 120.684L7.60288 124.999L8.76123 125.999L10.6295 127.592L33.7369 147.423L49.4009 160.864C50.8524 161.337 52.1073 162.281 52.9698 163.547C53.8324 164.813 54.254 166.33 54.1688 167.863Z" fill="#A0616A"/>
<path d="M49.9389 95.0122L24.0291 135.087L34.4394 146.792L33.7369 147.423L24.8885 155.324L22.385 157.557L17.7516 156.609C17.7516 156.609 16.8324 155.204 11.9971 154.482C7.16197 153.76 9.9794 152.106 12.1167 148.874C12.6249 148.1 10.652 149.318 10.5249 149.047C10.4651 148.882 9.26943 148.333 9.03027 148.295C8.04379 148.107 9.00783 147.543 7.58794 147.25C5.3086 146.784 5.17409 148.408 0.75736 139.65C0.749874 139.643 0.75736 139.643 0.75736 139.643C0.682647 139.5 0.615367 139.365 0.540654 139.222C-0.640132 136.869 0.211831 130.329 2.13994 121.879C5.08436 108.994 10.5249 91.6745 15.0537 78.0606C15.9351 75.4166 17.366 72.9916 19.2514 70.947C21.1368 68.9025 23.4333 67.2851 25.9883 66.2027C28.5433 65.1202 31.2982 64.5974 34.0696 64.6691C36.841 64.7407 39.5656 65.4052 42.0619 66.6182C44.5582 67.8312 46.7692 69.5651 48.5477 71.7043C50.3262 73.8436 51.6314 76.3393 52.3766 79.0254C53.1217 81.7115 53.2898 84.5264 52.8695 87.2829C52.4492 90.0394 51.4502 92.6742 49.9389 95.0122Z" fill="#E6E6E6"/>
<path d="M60.2383 197.879C60.3456 197.898 60.456 197.883 60.5545 197.836C60.653 197.789 60.7349 197.713 60.7891 197.618C60.8434 197.523 60.8672 197.414 60.8575 197.305C60.8478 197.196 60.805 197.092 60.7349 197.009L60.7169 196.86L60.7355 196.827C60.8765 196.582 61.0862 196.385 61.3382 196.26C61.5903 196.135 61.8734 196.088 62.1521 196.124C62.4308 196.16 62.6926 196.279 62.9047 196.464C63.1167 196.65 63.2696 196.894 63.344 197.167C63.6415 198.255 64.0555 199.359 64.0526 200.47C64.0511 200.96 63.965 201.447 63.7981 201.908C65.0756 199.835 65.895 197.51 66.2008 195.091C66.2769 194.484 66.3192 193.873 66.3275 193.261C66.3339 192.759 66.3183 192.258 66.2808 191.758C66.0742 189.044 65.2306 186.418 63.8192 184.096C63.0641 183.548 62.4939 182.781 62.1856 181.897C62.0736 181.58 62.0079 181.247 61.9906 180.911C62.0806 180.934 62.5091 179.565 62.4509 179.47C62.6027 179.292 62.8429 179.224 63.0058 179.052C63.8162 178.195 64.7495 178.481 65.087 179.827C66.0833 180.501 65.9816 181.398 65.2212 182.177C64.7375 182.673 64.5877 183.407 64.15 183.948C64.1815 184.001 64.2146 184.052 64.2461 184.105C64.8205 185.078 65.2988 186.106 65.674 187.172C65.6928 186.033 65.9802 184.914 66.5128 183.908C67.0417 182.974 67.906 182.241 68.6823 181.474C68.8881 181.268 69.15 181.128 69.435 181.071C69.7201 181.015 70.0153 181.044 70.2836 181.157C70.5518 181.269 70.781 181.459 70.9421 181.702C71.1032 181.945 71.189 182.231 71.1886 182.523L71.1879 182.561C71.0814 182.605 70.9765 182.652 70.8733 182.704C70.7435 182.769 70.6364 182.872 70.5659 183C70.4955 183.128 70.465 183.274 70.4784 183.419C70.4919 183.564 70.5487 183.702 70.6414 183.814C70.7341 183.927 70.8583 184.008 70.9979 184.048L71.0121 184.052C70.9316 184.409 70.8243 184.758 70.6911 185.098C71.1326 188.55 69.1251 189.533 66.4692 189.252C66.4069 189.275 66.3461 189.298 66.2841 189.319C66.6079 190.817 66.7367 192.35 66.6673 193.881C66.6235 194.784 66.5072 195.682 66.3195 196.566L66.328 196.535C66.6442 195.565 67.2832 194.736 68.1372 194.185C69.4039 193.382 71.0696 193.237 72.4035 192.632C72.5458 192.563 72.7045 192.537 72.861 192.557C73.0175 192.576 73.1652 192.64 73.2867 192.741C73.4082 192.842 73.4984 192.976 73.5467 193.127C73.595 193.278 73.5994 193.44 73.5594 193.593L73.5502 193.626C73.3561 193.678 73.1654 193.742 72.9793 193.819C72.8727 193.862 72.7678 193.91 72.6646 193.961C72.5349 194.027 72.4277 194.13 72.3573 194.258C72.2868 194.385 72.2563 194.531 72.2698 194.677C72.2832 194.822 72.34 194.96 72.4327 195.072C72.5254 195.184 72.6497 195.266 72.7892 195.306L72.8035 195.31L72.8329 195.318C72.4227 196.036 71.8928 196.678 71.2663 197.215C70.3642 200.065 68.0217 200.05 65.6592 198.888L65.6577 198.888C65.2388 200.037 64.7023 201.14 64.0568 202.178L59.8735 201.649C59.8643 201.6 59.8569 201.55 59.8492 201.502C60.2334 201.576 60.625 201.601 61.0155 201.579C60.753 201.157 60.4909 200.731 60.2284 200.309C60.2223 200.301 60.2168 200.293 60.2117 200.284C60.0788 200.068 59.9441 199.853 59.8112 199.637C59.8779 199.035 60.0215 198.444 60.2383 197.879Z" fill="#F2F2F2"/>
</g>
<defs>
<clipPath id="clip0_430_482">
<rect width="109" height="242" fill="white"/>
</clipPath>
</defs>
</svg>
