<svg width="241" height="190" viewBox="0 0 241 190" fill="none" xmlns="http://www.w3.org/2000/svg">
<g clip-path="url(#clip0_430_407)">
<path d="M145.521 83.8265H90.3013C88.7714 83.8248 87.3046 83.2167 86.2227 82.1357C85.1409 81.0546 84.5324 79.5889 84.5306 78.06V6.04481C84.5324 4.516 85.1409 3.0503 86.2228 1.96927C87.3046 0.888242 88.7714 0.280165 90.3013 0.278442H145.521C147.051 0.280166 148.518 0.888242 149.6 1.96927C150.681 3.0503 151.29 4.516 151.292 6.04481V78.06C151.29 79.5889 150.681 81.0546 149.6 82.1357C148.518 83.2167 147.051 83.8248 145.521 83.8265Z" fill="#F0F0F0"/>
<path d="M145.521 84.1049H90.3013C88.6975 84.1031 87.1599 83.4656 86.0258 82.3324C84.8917 81.1991 84.2538 79.6626 84.252 78.06V6.04486C84.2538 4.44223 84.8917 2.90576 86.0258 1.77252C87.1599 0.63929 88.6975 0.00183313 90.3013 0H145.521C147.125 0.00180511 148.662 0.639247 149.797 1.77248C150.931 2.90572 151.569 4.44221 151.57 6.04486V78.06C151.569 79.6626 150.931 81.1992 149.797 82.3324C148.662 83.4657 147.125 84.1031 145.521 84.1049ZM90.3013 0.556987C88.8453 0.558627 87.4493 1.13734 86.4197 2.16616C85.3902 3.19498 84.811 4.58989 84.8094 6.04486V78.06C84.811 79.5149 85.3901 80.9099 86.4197 81.9387C87.4493 82.9676 88.8452 83.5463 90.3013 83.548H145.521C146.977 83.5463 148.373 82.9676 149.403 81.9388C150.432 80.9099 151.011 79.515 151.013 78.06V6.04486C151.011 4.58987 150.432 3.19494 149.403 2.16612C148.373 1.1373 146.977 0.558601 145.521 0.556987H90.3013Z" fill="#3B92DA"/>
<path d="M235.229 83.8265H180.01C178.48 83.8248 177.013 83.2167 175.931 82.1357C174.849 81.0546 174.241 79.5889 174.239 78.06V6.04481C174.241 4.516 174.849 3.0503 175.931 1.96927C177.013 0.888242 178.48 0.280165 180.01 0.278442H235.229C236.759 0.280165 238.226 0.888242 239.308 1.96927C240.39 3.0503 240.998 4.516 241 6.04481V78.06C240.998 79.5889 240.39 81.0546 239.308 82.1357C238.226 83.2167 236.759 83.8248 235.229 83.8265Z" fill="#F0F0F0"/>
<path d="M116.934 92.7393C122.446 92.7393 126.915 88.2741 126.915 82.7661C126.915 77.2581 122.446 72.793 116.934 72.793C111.422 72.793 106.954 77.2581 106.954 82.7661C106.954 88.2741 111.422 92.7393 116.934 92.7393Z" fill="#3B92DA"/>
<path d="M115.573 87.9567C115.4 87.9567 115.23 87.9166 115.076 87.8395C114.922 87.7625 114.788 87.6506 114.685 87.5128L111.962 83.885C111.874 83.7685 111.811 83.6358 111.774 83.4947C111.738 83.3536 111.73 83.2067 111.751 83.0625C111.771 82.9183 111.82 82.7795 111.895 82.6542C111.969 82.5288 112.067 82.4193 112.184 82.3319C112.3 82.2445 112.433 82.1809 112.574 82.1448C112.716 82.1086 112.863 82.1006 113.007 82.1212C113.151 82.1418 113.29 82.1906 113.416 82.2649C113.541 82.3391 113.651 82.4373 113.738 82.5538L115.519 84.9271L120.095 78.0694C120.258 77.8256 120.512 77.6566 120.8 77.5995C121.089 77.5423 121.388 77.6017 121.632 77.7646C121.877 77.9275 122.047 78.1805 122.105 78.4684C122.163 78.7562 122.104 79.0553 121.942 79.3001L116.496 87.4626C116.398 87.6102 116.265 87.7321 116.11 87.818C115.955 87.9039 115.781 87.9513 115.603 87.9563C115.593 87.9565 115.583 87.9567 115.573 87.9567Z" fill="white"/>
<path d="M108.275 122.34H2.36895C1.74088 122.339 1.13875 122.089 0.694648 121.646C0.250541 121.202 0.000724341 120.6 0 119.972V24.1707C0.000700785 23.5431 0.250511 22.9414 0.694623 22.4976C1.13873 22.0538 1.74088 21.8042 2.36895 21.8035H108.275C108.903 21.8042 109.505 22.0538 109.949 22.4976C110.393 22.9414 110.643 23.5431 110.644 24.1707V119.972C110.643 120.6 110.393 121.202 109.949 121.646C109.505 122.089 108.903 122.339 108.275 122.34Z" fill="#3F3D56"/>
<path d="M106.045 120.112H4.59856C3.9705 120.111 3.36837 119.861 2.92426 119.418C2.48016 118.974 2.23034 118.372 2.22961 117.745V26.3987C2.23032 25.7711 2.48013 25.1694 2.92424 24.7256C3.36835 24.2818 3.97049 24.0322 4.59856 24.0315H106.045C106.673 24.0322 107.275 24.2818 107.72 24.7256C108.164 25.1694 108.413 25.7711 108.414 26.3987V117.745C108.413 118.372 108.164 118.974 107.719 119.418C107.275 119.861 106.673 120.111 106.045 120.112Z" fill="white"/>
<path d="M9.75273 33.9553C21.6915 33.7479 33.6315 33.7181 45.5728 33.8659C57.5123 34.0146 69.4479 34.3418 81.3795 34.8474C88.0748 35.1311 94.7673 35.471 101.457 35.8671C101.995 35.8988 101.993 35.0633 101.457 35.0316C89.5375 34.3268 77.6091 33.7994 65.6721 33.4494C53.7367 33.1004 41.7978 32.9299 29.8556 32.9378C23.1543 32.9422 16.4533 33.0029 9.75273 33.1198C9.21531 33.1292 9.21361 33.9647 9.75273 33.9553Z" fill="#3F3D56"/>
<path d="M92.9544 28.7166L98.1749 28.3283C98.7082 28.2887 98.7125 27.4529 98.1749 27.4928L92.9544 27.8811C92.4211 27.9208 92.4168 28.7566 92.9544 28.7166Z" fill="#3F3D56"/>
<path d="M92.9544 33.7295L98.1749 33.3413C98.7082 33.3016 98.7125 32.4658 98.1749 32.5058L92.9544 32.894C92.4211 32.9337 92.4168 33.7695 92.9544 33.7295Z" fill="#3F3D56"/>
<path d="M92.5617 31.4402L99.984 32.114C100.52 32.1626 100.516 31.3269 99.984 31.2785L92.5617 30.6047C92.0261 30.5561 92.0294 31.3919 92.5617 31.4402Z" fill="#3F3D56"/>
<path d="M12.8423 27.5931C12.4792 27.5908 12.1236 27.6954 11.8196 27.8938C11.5157 28.0921 11.2769 28.3755 11.133 28.7086C10.972 29.0346 10.9223 29.4042 10.9915 29.7611C11.0607 30.118 11.2449 30.4424 11.5161 30.6847C11.771 30.9014 12.0767 31.05 12.4046 31.1166C12.7326 31.1831 13.0721 31.1655 13.3914 31.0654C13.7179 30.9514 14.0011 30.7391 14.2019 30.4577C14.4027 30.1763 14.5113 29.8396 14.5127 29.494C14.5273 29.1105 14.4233 28.7319 14.215 28.4095C14.0066 28.0872 13.7039 27.8368 13.3481 27.6924C13.2412 27.6634 13.1272 27.6778 13.0309 27.7324C12.9345 27.7871 12.8637 27.8776 12.8339 27.9842C12.8075 28.0909 12.8231 28.2036 12.8774 28.2992C12.9317 28.3948 13.0206 28.466 13.1259 28.498C13.1987 28.5262 13.0593 28.4622 13.1273 28.4993C13.1553 28.5145 13.1838 28.5283 13.2113 28.5445C13.2346 28.5583 13.257 28.5735 13.2797 28.5883C13.3577 28.6392 13.2416 28.5509 13.2915 28.5967C13.3347 28.6363 13.3776 28.6751 13.4169 28.7188C13.4318 28.7354 13.49 28.7814 13.4448 28.7493C13.4101 28.7246 13.4314 28.7304 13.4448 28.7502C13.4549 28.7652 13.4656 28.7798 13.4756 28.7949C13.5082 28.8442 13.5378 28.8953 13.5643 28.9481C13.5705 28.9604 13.5761 28.9729 13.5823 28.985C13.594 29.0078 13.611 29.0138 13.5835 28.9852C13.5572 28.958 13.5739 28.9598 13.5833 28.9861C13.5895 29.0033 13.5963 29.0204 13.6023 29.0377C13.6219 29.094 13.6384 29.1514 13.6516 29.2096C13.6577 29.2365 13.6626 29.2635 13.6679 29.2906C13.6866 29.3865 13.6652 29.2309 13.6697 29.3022C13.6735 29.3617 13.6779 29.4205 13.6768 29.4803C13.6764 29.5076 13.6752 29.5349 13.6733 29.5622C13.6723 29.5758 13.6708 29.5894 13.6699 29.603C13.6656 29.6685 13.6654 29.579 13.6746 29.5729C13.6555 29.6285 13.6428 29.6862 13.6368 29.7447C13.6293 29.7707 13.6204 29.7961 13.6121 29.8218C13.583 29.9114 13.6394 29.7729 13.6084 29.8342C13.5829 29.8868 13.5544 29.9379 13.523 29.9873C13.5094 30.0079 13.458 30.0546 13.5 30.0221C13.5456 29.9869 13.4761 30.0476 13.4613 30.0632C13.4423 30.0833 13.4225 30.1026 13.402 30.1213C13.3889 30.1341 13.3751 30.1461 13.3606 30.1573C13.3579 30.156 13.4304 30.1089 13.3913 30.1338C13.3416 30.1655 13.2946 30.1994 13.2423 30.2269C13.2362 30.2301 13.1692 30.2611 13.1695 30.2622C13.1666 30.2509 13.2556 30.2309 13.1945 30.2506C13.1817 30.2548 13.1691 30.2598 13.1563 30.2641C13.1008 30.2828 13.044 30.2979 12.9865 30.3093C12.9733 30.3119 12.9594 30.3132 12.9464 30.3166C12.9032 30.3278 12.9877 30.31 12.9903 30.3115C12.9583 30.3101 12.9264 30.313 12.8951 30.3199C12.8358 30.3233 12.7764 30.3233 12.7171 30.3199C12.7033 30.3191 12.6896 30.3178 12.6759 30.317C12.6441 30.3151 12.6207 30.2922 12.6631 30.3171C12.6958 30.3363 12.6931 30.3223 12.6641 30.3169C12.6505 30.3144 12.6369 30.3123 12.6234 30.3098C12.5647 30.2988 12.5066 30.2846 12.4495 30.2672C12.4187 30.2578 12.3886 30.2469 12.3583 30.2363C12.345 30.2325 12.3322 30.2276 12.3198 30.2216C12.3196 30.2181 12.398 30.259 12.3566 30.2367C12.3044 30.2086 12.2504 30.185 12.1994 30.1543C12.1722 30.1379 12.146 30.12 12.1196 30.1025C12.108 30.0955 12.0969 30.0875 12.0865 30.0788C12.0874 30.0753 12.1513 30.1345 12.1178 30.1025C12.0753 30.0621 12.0299 30.0259 11.9897 29.9828C11.9805 29.973 11.9718 29.9627 11.9626 29.9528L11.9538 29.9427C11.9311 29.915 11.9307 29.9152 11.9525 29.9431C11.9747 29.9496 11.9737 29.9739 11.9526 29.9424C11.9451 29.9311 11.9372 29.9202 11.9297 29.9089C11.8958 29.8606 11.8668 29.8089 11.8433 29.7547C11.8453 29.7532 11.8795 29.8553 11.8534 29.7782C11.8484 29.7636 11.8429 29.7493 11.838 29.7347C11.8284 29.7058 11.82 29.6765 11.8127 29.6469C11.8054 29.6176 11.8017 29.5874 11.7944 29.5582C11.7822 29.509 11.8016 29.597 11.7994 29.5948C11.7924 29.588 11.7954 29.5453 11.7949 29.5351C11.7915 29.4695 11.799 29.4059 11.8002 29.3408C11.8011 29.2903 11.796 29.3801 11.7949 29.3775C11.7952 29.3623 11.7979 29.3474 11.8029 29.3331C11.8104 29.2987 11.8175 29.2644 11.8268 29.2304C11.8374 29.1915 11.8496 29.1531 11.8634 29.1151C11.8686 29.1009 11.8748 29.0869 11.8796 29.0726C11.8972 29.0201 11.8448 29.136 11.8737 29.0887C11.9135 29.0236 11.9431 28.9531 11.9853 28.8889C11.9953 28.8736 12.0562 28.7888 12.0239 28.8316C11.9917 28.8743 12.0569 28.7934 12.0693 28.7797C12.1206 28.7226 12.1809 28.6758 12.234 28.6211C12.2654 28.5888 12.212 28.6371 12.2089 28.6393C12.2253 28.6276 12.2414 28.6154 12.2581 28.6039C12.2871 28.5839 12.3168 28.565 12.3473 28.5472C12.3816 28.5271 12.4204 28.5122 12.4536 28.4909C12.4929 28.4658 12.4236 28.5019 12.4223 28.5027C12.4403 28.4938 12.459 28.4867 12.4783 28.4814C12.5107 28.4699 12.6515 28.4092 12.681 28.4282C12.6797 28.4273 12.5741 28.4367 12.6595 28.4312C12.6796 28.4299 12.6997 28.4279 12.7199 28.4271C12.7608 28.4254 12.8015 28.4264 12.8423 28.4285C12.9529 28.4278 13.0588 28.3836 13.1371 28.3054C13.2153 28.2272 13.2596 28.1214 13.2603 28.0108C13.258 27.9007 13.2132 27.7959 13.1353 27.718C13.0574 27.6402 12.9524 27.5954 12.8423 27.5931Z" fill="#3F3D56"/>
<path d="M18.695 27.5931C18.3319 27.5908 17.9763 27.6954 17.6723 27.8938C17.3684 28.0921 17.1296 28.3755 16.9857 28.7086C16.8247 29.0346 16.775 29.4042 16.8442 29.7611C16.9134 30.118 17.0976 30.4424 17.3688 30.6847C17.6237 30.9014 17.9294 31.05 18.2573 31.1166C18.5853 31.1831 18.9248 31.1655 19.2441 31.0654C19.5706 30.9514 19.8538 30.7391 20.0546 30.4577C20.2554 30.1763 20.364 29.8396 20.3654 29.494C20.38 29.1105 20.276 28.7319 20.0676 28.4095C19.8593 28.0872 19.5566 27.8368 19.2008 27.6924C19.0939 27.6634 18.9799 27.6778 18.8836 27.7324C18.7872 27.7871 18.7164 27.8776 18.6866 27.9842C18.6602 28.0909 18.6758 28.2036 18.7301 28.2992C18.7844 28.3948 18.8733 28.466 18.9786 28.498C19.0514 28.5262 18.912 28.4622 18.98 28.4993C19.008 28.5145 19.0365 28.5283 19.064 28.5445C19.0873 28.5583 19.1097 28.5735 19.1324 28.5883C19.2104 28.6392 19.0943 28.5509 19.1442 28.5967C19.1874 28.6363 19.2303 28.6751 19.2696 28.7188C19.2845 28.7354 19.3427 28.7814 19.2975 28.7493C19.2628 28.7246 19.2841 28.7304 19.2975 28.7502C19.3076 28.7652 19.3183 28.7798 19.3283 28.7949C19.3609 28.8442 19.3905 28.8953 19.417 28.9481C19.4232 28.9604 19.4288 28.9729 19.435 28.985C19.4467 29.0078 19.4637 29.0138 19.4362 28.9852C19.4099 28.958 19.4266 28.9598 19.436 28.9861C19.4422 29.0033 19.449 29.0204 19.455 29.0377C19.4746 29.094 19.4911 29.1514 19.5043 29.2096C19.5104 29.2365 19.5153 29.2635 19.5206 29.2906C19.5393 29.3865 19.5179 29.2309 19.5224 29.3022C19.5262 29.3617 19.5306 29.4205 19.5295 29.4803C19.529 29.5076 19.5279 29.5349 19.526 29.5622C19.525 29.5758 19.5235 29.5894 19.5226 29.603C19.5182 29.6685 19.5181 29.579 19.5273 29.5729C19.5082 29.6285 19.4955 29.6862 19.4895 29.7447C19.482 29.7707 19.4731 29.7961 19.4648 29.8218C19.4357 29.9114 19.4921 29.7729 19.4611 29.8342C19.4356 29.8868 19.4071 29.9379 19.3757 29.9873C19.3621 30.0079 19.3107 30.0546 19.3527 30.0221C19.3983 29.9869 19.3288 30.0476 19.314 30.0632C19.2949 30.0833 19.2752 30.1026 19.2547 30.1213C19.2416 30.1341 19.2277 30.1461 19.2132 30.1573C19.2106 30.156 19.2831 30.1089 19.244 30.1338C19.1943 30.1655 19.1473 30.1994 19.095 30.2269C19.0889 30.2301 19.0219 30.2611 19.0222 30.2622C19.0193 30.2509 19.1082 30.2309 19.0472 30.2506C19.0344 30.2548 19.0218 30.2598 19.009 30.2641C18.9534 30.2828 18.8967 30.2979 18.8392 30.3093C18.826 30.3119 18.8121 30.3132 18.7991 30.3166C18.7559 30.3278 18.8404 30.31 18.843 30.3115C18.811 30.3101 18.779 30.313 18.7478 30.3199C18.6885 30.3233 18.6291 30.3233 18.5697 30.3199C18.556 30.3191 18.5423 30.3178 18.5286 30.317C18.4968 30.3151 18.4734 30.2922 18.5158 30.3171C18.5485 30.3363 18.5458 30.3223 18.5168 30.3169C18.5032 30.3144 18.4896 30.3123 18.4761 30.3098C18.4174 30.2988 18.3593 30.2846 18.3022 30.2672C18.2714 30.2578 18.2413 30.2469 18.211 30.2363C18.1977 30.2325 18.1849 30.2276 18.1725 30.2216C18.1723 30.2181 18.2507 30.259 18.2093 30.2367C18.1571 30.2086 18.1031 30.185 18.0521 30.1543C18.0249 30.1379 17.9987 30.12 17.9723 30.1025C17.9606 30.0955 17.9496 30.0875 17.9392 30.0788C17.9401 30.0753 18.004 30.1345 17.9704 30.1025C17.928 30.0621 17.8826 30.0259 17.8424 29.9828C17.8332 29.973 17.8245 29.9627 17.8153 29.9528L17.8065 29.9427C17.7838 29.915 17.7834 29.9152 17.8052 29.9431C17.8274 29.9496 17.8263 29.9739 17.8053 29.9424C17.7978 29.9311 17.7899 29.9202 17.7824 29.9089C17.7484 29.8606 17.7195 29.8089 17.696 29.7547C17.698 29.7532 17.7322 29.8553 17.7061 29.7782C17.7011 29.7636 17.6956 29.7493 17.6907 29.7347C17.6811 29.7058 17.6727 29.6765 17.6654 29.6469C17.6581 29.6176 17.6544 29.5874 17.6471 29.5582C17.6349 29.509 17.6543 29.597 17.6521 29.5948C17.6451 29.588 17.6481 29.5453 17.6476 29.5351C17.6442 29.4695 17.6517 29.4059 17.6529 29.3408C17.6538 29.2903 17.6487 29.3801 17.6476 29.3775C17.6479 29.3623 17.6506 29.3474 17.6556 29.3331C17.6631 29.2987 17.6702 29.2644 17.6794 29.2304C17.6901 29.1915 17.7023 29.1531 17.7161 29.1151C17.7212 29.1009 17.7275 29.0869 17.7323 29.0726C17.7499 29.0201 17.6975 29.136 17.7264 29.0887C17.7662 29.0236 17.7958 28.9531 17.838 28.8889C17.848 28.8736 17.9089 28.7888 17.8766 28.8316C17.8444 28.8743 17.9096 28.7934 17.922 28.7797C17.9733 28.7226 18.0336 28.6758 18.0867 28.6211C18.1181 28.5888 18.0647 28.6371 18.0616 28.6393C18.078 28.6276 18.0941 28.6154 18.1108 28.6039C18.1398 28.5839 18.1695 28.565 18.2 28.5472C18.2343 28.5271 18.273 28.5122 18.3063 28.4909C18.3456 28.4658 18.2763 28.5019 18.275 28.5027C18.293 28.4938 18.3117 28.4867 18.331 28.4814C18.3634 28.4699 18.5042 28.4092 18.5337 28.4282C18.5324 28.4273 18.4268 28.4367 18.5121 28.4312C18.5323 28.4299 18.5524 28.4279 18.5726 28.4271C18.6134 28.4254 18.6542 28.4264 18.695 28.4285C18.8056 28.4278 18.9115 28.3836 18.9898 28.3054C19.068 28.2272 19.1123 28.1214 19.113 28.0108C19.1107 27.9007 19.0658 27.7959 18.988 27.718C18.9101 27.6402 18.8051 27.5954 18.695 27.5931Z" fill="#3F3D56"/>
<path d="M24.5477 27.5931C24.1846 27.5908 23.829 27.6954 23.525 27.8938C23.221 28.0921 22.9822 28.3755 22.8384 28.7086C22.6774 29.0346 22.6277 29.4042 22.6969 29.7611C22.7661 30.118 22.9503 30.4424 23.2215 30.6847C23.4764 30.9014 23.7821 31.05 24.11 31.1166C24.438 31.1831 24.7775 31.1655 25.0968 31.0654C25.4233 30.9514 25.7065 30.7391 25.9073 30.4577C26.1081 30.1763 26.2167 29.8396 26.2181 29.494C26.2327 29.1105 26.1287 28.7319 25.9203 28.4095C25.712 28.0872 25.4093 27.8368 25.0535 27.6924C24.9466 27.6634 24.8326 27.6778 24.7362 27.7324C24.6399 27.7871 24.5691 27.8776 24.5393 27.9842C24.5129 28.0909 24.5285 28.2036 24.5828 28.2992C24.6371 28.3948 24.726 28.466 24.8313 28.498C24.9041 28.5262 24.7647 28.4622 24.8327 28.4993C24.8607 28.5145 24.8892 28.5283 24.9167 28.5445C24.94 28.5583 24.9624 28.5735 24.9851 28.5883C25.0631 28.6392 24.947 28.5509 24.9969 28.5967C25.0401 28.6363 25.083 28.6751 25.1223 28.7188C25.1372 28.7354 25.1954 28.7814 25.1501 28.7493C25.1155 28.7246 25.1368 28.7304 25.1501 28.7502C25.1603 28.7652 25.171 28.7798 25.181 28.7949C25.2136 28.8442 25.2432 28.8953 25.2697 28.9481C25.2759 28.9604 25.2815 28.9729 25.2877 28.985C25.2994 29.0078 25.3164 29.0138 25.2889 28.9852C25.2626 28.958 25.2793 28.9598 25.2887 28.9861C25.2949 29.0033 25.3017 29.0204 25.3077 29.0377C25.3273 29.094 25.3437 29.1514 25.357 29.2096C25.3631 29.2365 25.368 29.2635 25.3733 29.2906C25.392 29.3865 25.3706 29.2309 25.3751 29.3022C25.3788 29.3617 25.3832 29.4205 25.3822 29.4803C25.3817 29.5076 25.3805 29.5349 25.3786 29.5622C25.3777 29.5758 25.3762 29.5894 25.3753 29.603C25.3709 29.6685 25.3708 29.579 25.38 29.5729C25.3609 29.6285 25.3482 29.6862 25.3422 29.7447C25.3347 29.7707 25.3258 29.7961 25.3175 29.8218C25.2884 29.9114 25.3448 29.7729 25.3138 29.8342C25.2883 29.8868 25.2597 29.9379 25.2284 29.9873C25.2148 30.0079 25.1634 30.0546 25.2054 30.0221C25.251 29.9869 25.1815 30.0476 25.1667 30.0632C25.1476 30.0833 25.1279 30.1026 25.1074 30.1213C25.0943 30.1341 25.0804 30.1461 25.0659 30.1573C25.0633 30.156 25.1358 30.1089 25.0967 30.1338C25.047 30.1655 25 30.1994 24.9476 30.2269C24.9415 30.2301 24.8746 30.2611 24.8749 30.2622C24.872 30.2509 24.9609 30.2309 24.8999 30.2506C24.8871 30.2548 24.8745 30.2598 24.8617 30.2641C24.8061 30.2828 24.7494 30.2979 24.6919 30.3093C24.6787 30.3119 24.6648 30.3132 24.6518 30.3166C24.6086 30.3278 24.6931 30.31 24.6956 30.3115C24.6637 30.3101 24.6317 30.313 24.6005 30.3199C24.5412 30.3233 24.4817 30.3233 24.4224 30.3199C24.4087 30.3191 24.395 30.3178 24.3813 30.317C24.3494 30.3151 24.3261 30.2922 24.3684 30.3171C24.4012 30.3363 24.3984 30.3223 24.3695 30.3169C24.3559 30.3144 24.3423 30.3123 24.3287 30.3098C24.27 30.2988 24.212 30.2846 24.1548 30.2672C24.1241 30.2578 24.094 30.2469 24.0636 30.2363C24.0504 30.2325 24.0375 30.2276 24.0252 30.2216C24.025 30.2181 24.1033 30.259 24.062 30.2367C24.0098 30.2086 23.9558 30.185 23.9048 30.1543C23.8776 30.1379 23.8514 30.12 23.825 30.1025C23.8133 30.0955 23.8023 30.0875 23.7919 30.0788C23.7927 30.0753 23.8567 30.1345 23.8231 30.1025C23.7807 30.0621 23.7353 30.0259 23.6951 29.9828C23.6859 29.973 23.6772 29.9627 23.668 29.9528L23.6591 29.9427C23.6365 29.915 23.636 29.9152 23.6579 29.9431C23.68 29.9496 23.679 29.9739 23.658 29.9424C23.6505 29.9311 23.6426 29.9202 23.6351 29.9089C23.6011 29.8606 23.5722 29.8089 23.5487 29.7547C23.5507 29.7532 23.5849 29.8553 23.5587 29.7782C23.5538 29.7636 23.5483 29.7493 23.5434 29.7347C23.5338 29.7058 23.5254 29.6765 23.5181 29.6469C23.5108 29.6176 23.5071 29.5874 23.4998 29.5582C23.4875 29.509 23.507 29.597 23.5048 29.5948C23.4978 29.588 23.5008 29.5453 23.5003 29.5351C23.4969 29.4695 23.5044 29.4059 23.5056 29.3408C23.5065 29.2903 23.5014 29.3801 23.5003 29.3775C23.5006 29.3623 23.5033 29.3474 23.5083 29.3331C23.5158 29.2987 23.5229 29.2644 23.5321 29.2304C23.5427 29.1915 23.555 29.1531 23.5688 29.1151C23.5739 29.1009 23.5802 29.0869 23.585 29.0726C23.6026 29.0201 23.5502 29.136 23.5791 29.0887C23.6189 29.0236 23.6485 28.9531 23.6907 28.8889C23.7007 28.8736 23.7616 28.7888 23.7293 28.8316C23.6971 28.8743 23.7623 28.7934 23.7747 28.7797C23.826 28.7226 23.8863 28.6758 23.9394 28.6211C23.9708 28.5888 23.9174 28.6371 23.9143 28.6393C23.9307 28.6276 23.9468 28.6154 23.9635 28.6039C23.9925 28.5839 24.0222 28.565 24.0527 28.5472C24.087 28.5271 24.1257 28.5122 24.159 28.4909C24.1983 28.4658 24.1289 28.5019 24.1277 28.5027C24.1456 28.4938 24.1644 28.4867 24.1837 28.4814C24.2161 28.4699 24.3569 28.4092 24.3864 28.4282C24.3851 28.4273 24.2795 28.4367 24.3648 28.4312C24.385 28.4299 24.4051 28.4279 24.4253 28.4271C24.4661 28.4254 24.5069 28.4264 24.5477 28.4285C24.6583 28.4278 24.7642 28.3836 24.8425 28.3054C24.9207 28.2272 24.965 28.1214 24.9657 28.0108C24.9633 27.9007 24.9185 27.7959 24.8407 27.718C24.7628 27.6402 24.6578 27.5954 24.5477 27.5931Z" fill="#3F3D56"/>
<path d="M12.3333 49.5332L12.7061 63.7934L13.0789 78.0535C13.1259 79.8529 12.8716 82.3072 14.698 83.3611C15.46 83.8008 16.371 83.8972 17.2345 83.9212C18.3808 83.953 19.5307 83.9294 20.6774 83.9306L34.9608 83.9459C36.8375 83.9479 38.8987 83.8932 40.2433 82.3828C41.3656 81.122 41.6837 79.3742 41.7962 77.7433C41.9447 75.5908 41.8734 73.4115 41.8927 71.2548L41.9569 64.0881L42.021 56.9215C42.0405 54.7442 42.1434 52.5494 42.0479 50.3735C41.975 48.7134 41.6941 46.9406 40.5803 45.636C39.3114 44.1498 37.3051 43.9492 35.4752 43.8907C30.7425 43.7393 26.009 43.6115 21.276 43.472C20.1872 43.4399 19.0952 43.3815 18.0056 43.3959C17.0368 43.3772 16.0718 43.5249 15.153 43.8326C13.6227 44.405 12.4273 45.7783 12.4805 47.4816C12.484 47.8383 12.5628 48.1903 12.7118 48.5145C12.8608 48.8387 13.0766 49.1279 13.3452 49.363C13.7536 49.7082 14.3479 49.1201 13.9364 48.7722C12.8209 47.8293 13.3611 46.0625 14.3362 45.2256C15.749 44.0131 17.9637 44.2099 19.6865 44.2607L33.0942 44.6558C34.134 44.6864 35.1767 44.6968 36.2152 44.7578C37.1423 44.8124 38.1107 44.9328 38.9405 45.3789C40.3754 46.1503 40.9354 47.7332 41.124 49.264C41.3612 51.1902 41.2184 53.1777 41.2011 55.1124L41.14 61.9312L41.0193 75.4295C41.0046 77.0713 41.0299 78.7659 40.4771 80.3357C40.2395 81.064 39.8044 81.7121 39.2203 82.208C38.4867 82.7401 37.61 83.0396 36.704 83.0678C35.6863 83.1498 34.657 83.1101 33.637 83.109L30.1532 83.1053L23.4644 83.0981L19.9807 83.0944C18.9627 83.0933 17.9374 83.129 16.9207 83.0731C16.1404 83.0302 15.2696 82.8954 14.6947 82.3154C14.0507 81.6657 13.9909 80.6623 13.9614 79.8007C13.6535 70.8278 13.4913 61.8474 13.2566 52.8722L13.1693 49.5332C13.1553 48.9966 12.3192 48.9945 12.3333 49.5332Z" fill="#3F3D56"/>
<path d="M65.2862 49.5332L65.659 63.7934L66.0318 78.0535C66.0789 79.8529 65.8245 82.3072 67.651 83.3611C68.4129 83.8008 69.3239 83.8972 70.1874 83.9212C71.3337 83.953 72.4836 83.9294 73.6304 83.9306L87.9137 83.9459C89.7904 83.9479 91.8516 83.8932 93.1962 82.3828C94.3185 81.122 94.6366 79.3742 94.7491 77.7433C94.8976 75.5908 94.8263 73.4115 94.8456 71.2548L94.9098 64.0881L94.9739 56.9215C94.9934 54.7442 95.0963 52.5494 95.0008 50.3735C94.9279 48.7134 94.6471 46.9406 93.5332 45.636C92.2643 44.1498 90.258 43.9492 88.4281 43.8907C83.6954 43.7393 78.9619 43.6115 74.229 43.472C73.1401 43.4399 72.0481 43.3815 70.9586 43.3959C69.9897 43.3772 69.0247 43.5249 68.1059 43.8326C66.5756 44.405 65.3802 45.7783 65.4334 47.4816C65.4369 47.8383 65.5157 48.1903 65.6647 48.5145C65.8137 48.8387 66.0295 49.1279 66.2981 49.363C66.7065 49.7082 67.3008 49.1201 66.8893 48.7722C65.7738 47.8293 66.314 46.0625 67.2891 45.2256C68.7019 44.0131 70.9167 44.2099 72.6394 44.2607L86.0471 44.6558C87.0869 44.6864 88.1296 44.6968 89.1681 44.7578C90.0952 44.8124 91.0636 44.9328 91.8934 45.3789C93.3283 46.1503 93.8883 47.7332 94.0769 49.264C94.3141 51.1902 94.1713 53.1777 94.154 55.1124L94.0929 61.9312L93.9722 75.4295C93.9575 77.0713 93.9829 78.7659 93.43 80.3357C93.1924 81.064 92.7574 81.7121 92.1732 82.208C91.4396 82.7401 90.5629 83.0396 89.6569 83.0678C88.6392 83.1498 87.6099 83.1101 86.5899 83.109L83.1061 83.1053L76.4173 83.0981L72.9336 83.0944C71.9156 83.0933 70.8903 83.129 69.8736 83.0731C69.0933 83.0302 68.2225 82.8954 67.6476 82.3154C67.0036 81.6657 66.9438 80.6623 66.9143 79.8007C66.6064 70.8278 66.4442 61.8474 66.2095 52.8722L66.1223 49.5332C66.1082 48.9966 65.2721 48.9945 65.2862 49.5332Z" fill="#3F3D56"/>
<path d="M26.7652 87.0331C26.4729 86.752 26.1132 86.5507 25.7206 86.4487C25.328 86.3466 24.9158 86.3472 24.5234 86.4503C24.1336 86.5572 23.7724 86.749 23.4657 87.0121C23.159 87.2752 22.9145 87.603 22.7499 87.9719C21.9599 89.653 22.6676 91.6124 23.7591 92.9851C24.7733 94.2607 26.4211 95.1013 28.0262 94.4317C28.7575 94.1185 29.372 93.5838 29.7829 92.903C30.1939 92.2222 30.3805 91.4297 30.3166 90.6372C30.1142 88.7706 28.5962 87.2589 26.8137 86.803C26.2922 86.6696 26.0697 87.4752 26.5915 87.6086C27.2111 87.7586 27.7847 88.0576 28.2623 88.4796C28.74 88.9015 29.1073 89.4337 29.3322 90.0298C29.5295 90.613 29.5381 91.2435 29.3566 91.8319C29.1751 92.4202 28.8128 92.9364 28.3211 93.3074C25.8296 95.2191 22.9799 91.5638 23.2593 89.1722C23.2891 88.8194 23.3997 88.4781 23.5826 88.1748C23.7655 87.8715 24.0158 87.6143 24.3141 87.4231C24.6045 87.2523 24.9423 87.1796 25.2773 87.2158C25.6123 87.2519 25.9268 87.395 26.174 87.6238C26.2533 87.6978 26.3582 87.7382 26.4667 87.7364C26.5751 87.7345 26.6787 87.6907 26.7554 87.614C26.8321 87.5373 26.876 87.4339 26.8778 87.3255C26.8797 87.2171 26.8393 87.1123 26.7652 87.0331Z" fill="#3F3D56"/>
<path d="M77.8442 58.0378C76.8685 57.7024 75.736 57.3694 74.7263 57.7625C73.7739 58.1334 73.2494 59.0413 73.1462 60.0267C73.0312 61.1255 73.4988 62.1736 73.9943 63.1249C74.5905 64.2693 75.2053 65.4044 75.8111 66.5437L77.9067 70.4843C77.9544 70.5614 78.0257 70.621 78.1101 70.6543C78.1944 70.6876 78.2873 70.6928 78.3748 70.6691C78.4624 70.6454 78.5399 70.5941 78.5959 70.5228C78.6519 70.4515 78.6834 70.3641 78.6857 70.2735C78.5673 68.9522 78.7772 67.6221 79.2967 66.4012C79.8326 65.1673 80.7083 64.1251 81.3308 62.9386C81.9038 61.8464 82.2859 60.5932 81.9823 59.3621C81.7368 58.3664 81.0121 57.3976 79.9678 57.1658C79.4401 57.0323 78.8821 57.0914 78.394 57.3323C77.906 57.5732 77.52 57.9802 77.3054 58.4801C77.1082 58.9805 77.9164 59.1975 78.1116 58.7022C78.3897 57.9967 79.3632 57.7804 80.0121 58.0504C80.8574 58.4022 81.2584 59.4118 81.2574 60.2699C81.256 61.443 80.6545 62.5151 80.0443 63.4787C79.4279 64.4519 78.78 65.3932 78.3703 66.4779C77.9183 67.6892 77.7405 68.9854 77.8496 70.2735L78.6286 70.0627C77.2679 67.5039 75.8324 64.9709 74.5479 62.3731C74.0539 61.3741 73.6096 60.0267 74.3669 59.0302C75.1433 58.0086 76.6252 58.5008 77.622 58.8434C78.1319 59.0186 78.3509 58.2119 77.8442 58.0378Z" fill="#3F3D56"/>
<path d="M24.6301 89.3672L25.8612 91.7533C25.9039 91.8226 25.9657 91.8781 26.0392 91.9131C26.1127 91.9482 26.1948 91.9612 26.2756 91.9506C26.3563 91.9401 26.4323 91.9064 26.4944 91.8537C26.5564 91.801 26.6019 91.7315 26.6253 91.6535C26.946 90.0017 27.7144 88.4696 28.8467 87.2242C29.209 86.8278 28.6193 86.2353 28.2555 86.6334C27.0202 87.9804 26.1775 89.6398 25.8191 91.4314L26.5831 91.3316L25.352 88.9455C25.1054 88.4674 24.3836 88.8896 24.6301 89.3672Z" fill="#3F3D56"/>
<path d="M38.5948 78.3518L28.8673 86.9373C28.8124 86.9857 28.7411 87.0113 28.668 87.0087C28.5949 87.0061 28.5256 86.9756 28.4743 86.9234C28.423 86.8713 28.3937 86.8015 28.3924 86.7284C28.3912 86.6553 28.418 86.5845 28.4674 86.5305L37.531 76.642L38.5948 78.3518Z" fill="#3F3D56"/>
<path d="M51.563 182.837H55.3862L57.2059 168.101H51.563V182.837Z" fill="#FFB6B6"/>
<path d="M49.545 189.457H52.2869L52.7763 186.87L54.0297 189.457H61.3018C61.6504 189.457 61.9899 189.345 62.2706 189.139C62.5514 188.933 62.7588 188.642 62.8625 188.309C62.9663 187.977 62.9609 187.62 62.8472 187.291C62.7336 186.961 62.5175 186.677 62.2307 186.479L56.4234 182.471V179.856L50.3152 180.221L49.545 189.457Z" fill="#2F2E41"/>
<path d="M84.3119 182.837H88.1351L89.9547 168.101H84.3119V182.837Z" fill="#FFB6B6"/>
<path d="M82.2939 189.457H85.0357L85.5251 186.87L86.7786 189.457H94.0507C94.3992 189.457 94.7387 189.345 95.0195 189.139C95.3003 188.933 95.5076 188.642 95.6114 188.309C95.7151 187.977 95.7098 187.62 95.5961 187.291C95.4824 186.961 95.2664 186.677 94.9795 186.479L89.1723 182.471V179.856L83.0641 180.221L82.2939 189.457Z" fill="#2F2E41"/>
<path d="M73.2616 104.726L53.8709 102.573C53.8709 102.573 45.2527 113.769 48.4845 123.457V134.245L50.8545 176.419L56.7795 176.742L58.5031 157.581L60.119 149.938L61.4801 120.819L68.4139 129.162L69.0603 132.392L71.2148 133.899L75.2007 139.372L83.3879 172.974L90.603 173.082C90.603 173.082 86.7274 138.204 86.2965 138.204C85.8656 138.204 75.093 114.737 75.093 114.737V113.496L74.6621 111.077C74.6621 111.077 75.7393 110.216 75.3084 109.786C74.8775 109.355 74.4466 108.063 74.4466 108.063L73.2616 104.726Z" fill="#2F2E41"/>
<path d="M66.2594 74.6928L70.1376 78.9987L75.5239 80.9364L72.5076 98.5904L73.508 103.667L74.9853 109.247C69.2931 112.394 62.5316 108.049 56.32 106.119L50.2082 108.817L50.5314 101.389L50.6971 82.675C50.7035 81.9562 50.8576 81.2464 51.15 80.5897C51.4423 79.9329 51.8666 79.3432 52.3966 78.8572C52.9265 78.3711 53.5508 77.9991 54.2306 77.7642C54.9105 77.5293 55.6314 77.4365 56.3486 77.4917L60.4422 74.4775L66.2594 74.6928Z" fill="#3B92DA"/>
<path d="M31.0785 82.5901C31.1091 82.9095 31.2094 83.2184 31.3724 83.4949C31.5354 83.7714 31.757 84.0089 32.0218 84.1905C32.2865 84.3722 32.5879 84.4936 32.9047 84.5463C33.2215 84.5989 33.546 84.5816 33.8553 84.4953L38.3015 90.9071L39.8132 87.1454L35.3592 81.6334C35.1798 81.1237 34.8196 80.6975 34.3467 80.4355C33.8739 80.1734 33.3213 80.0939 32.7936 80.2118C32.266 80.3297 31.7999 80.6369 31.4838 81.0753C31.1677 81.5136 31.0235 82.0526 31.0785 82.5901Z" fill="#FFB8B8"/>
<path d="M54.3585 77.5835C54.3585 77.5835 48.5712 77.3272 49.2193 88.8197L46.7573 93.8682L41.8055 89.2503L41.7831 87.7803L37.5955 83.1031L34.2341 86.8162L36.4716 90.2346L36.9029 92.1437L38.2656 92.9754L41.8211 98.4076L43.4659 100.025C43.4659 100.025 45.5524 102.103 47.9123 101.79C48.5419 101.708 49.1548 101.528 49.7285 101.256C50.8511 100.722 51.9602 99.7647 52.8927 98.1439C54.847 94.7965 56.599 91.3353 58.1395 87.7788L54.3585 77.5835Z" fill="#3B92DA"/>
<path d="M79.6934 64.6089C79.605 64.9174 79.5854 65.2416 79.636 65.5585C79.6865 65.8754 79.806 66.1774 79.986 66.4431C80.166 66.7089 80.4021 66.932 80.6777 67.0967C80.9534 67.2614 81.2618 67.3638 81.5812 67.3965L83.3747 74.9885L86.1576 72.0391L84.0279 65.2818C84.0473 64.7419 83.8679 64.2135 83.5236 63.797C83.1793 63.3804 82.694 63.1045 82.1597 63.0215C81.6254 62.9386 81.0793 63.0544 80.6247 63.3469C80.1701 63.6395 79.8388 64.0885 79.6934 64.6089Z" fill="#FFB8B8"/>
<path d="M67.377 79.913C67.377 79.913 70.437 74.9979 79.5576 82.029L85.1168 82.8537L84.1041 76.1615L82.9033 75.312L81.4097 69.2162L86.3751 68.5446L87.932 72.3213L89.2641 73.7561L89.1803 75.3495L91.6544 81.3511L92.06 83.6213C92.06 83.6213 92.5956 86.5157 91.0031 88.2839C90.5796 88.7566 90.0845 89.16 89.5357 89.4792C88.4603 90.1027 87.043 90.4755 85.1778 90.3279C81.3099 90.0465 77.4622 89.534 73.6556 88.7932L67.377 79.913Z" fill="#3B92DA"/>
<path d="M66.9451 72.8977C70.5617 70.9222 71.8908 66.3911 69.9138 62.7771C67.9368 59.1632 63.4023 57.835 59.7857 59.8106C56.1691 61.7861 54.84 66.3172 56.817 69.9312C58.794 73.5451 63.3285 74.8733 66.9451 72.8977Z" fill="#FFB6B6"/>
<path d="M73.1847 63.781C73.1624 63.7894 73.1429 63.7977 73.1206 63.8061C73.078 63.8248 73.0343 63.8406 72.9896 63.8534C72.7047 63.9571 72.4079 64.0245 72.1061 64.054C71.9775 64.0675 71.8481 64.074 71.7187 64.0735C71.5528 64.0736 71.3871 64.0624 71.2227 64.04C71.0398 64.0171 70.859 63.9799 70.682 63.9286C70.598 63.9059 70.5152 63.879 70.4339 63.8479C69.8804 63.6498 69.3804 63.3262 68.9732 62.9024C68.5661 62.4786 68.2628 61.9662 68.0873 61.4055V61.4027C68.0686 61.3479 68.0527 61.2921 68.0399 61.2356C67.9579 60.9219 67.9166 60.599 67.9173 60.2748V60.2692C67.9172 59.4786 68.1658 58.708 68.628 58.0663C68.9067 57.6737 69.2276 57.6087 69.0488 57.1584C68.4784 55.7221 70.8299 54.5551 72.2148 55.1895C72.2648 55.1849 72.3151 55.183 72.3653 55.1839C73.299 55.1839 73.6418 56.5625 74.1964 57.3395L74.1802 57.3447C74.0392 57.3936 73.9169 57.4854 73.8306 57.6072C73.7443 57.729 73.6983 57.8747 73.6989 58.0239C73.6995 58.1731 73.7468 58.3184 73.8341 58.4395C73.9214 58.5605 74.0444 58.6513 74.1859 58.699C74.5562 58.8206 74.9304 58.9281 75.3084 59.0216C76.5522 60.4971 75.1111 64.8009 73.1847 63.781Z" fill="#2F2E41"/>
<path d="M72.488 67.7274C72.0727 69.2953 71.3091 70.8242 70.0466 71.8407C68.7813 72.8572 62.8366 75.2578 62.3405 73.1886C62.6722 74.634 62.4687 75.1854 61.928 75.7006C61.8361 75.5753 61.7385 75.4556 61.6382 75.3386C61.2686 74.9109 60.8249 74.5534 60.3283 74.2831C60.3132 75.1556 60.3738 76.0278 60.5095 76.8898C60.2867 77.0941 60.0746 77.3098 59.874 77.5359C58.9209 74.673 56.8244 71.2415 58.3551 68.6408C58.9626 67.6086 58.4586 67.4658 57.9231 67.3458C56.9883 67.1363 56.4822 63.2993 56.2621 62.3663C55.9889 61.1967 55.883 59.8516 56.6104 58.8935C57.3378 57.9355 59.1717 57.8993 59.5396 59.0439L60.3144 57.9968C61.3177 55.805 63.9653 56.2506 66.3594 56.5403C68.7534 56.8271 70.8631 58.5148 71.9361 60.6731C73.0063 62.8314 73.1039 65.3963 72.488 67.7274Z" fill="#2F2E41"/>
<path d="M68.7381 57.6946C68.6839 59.0176 69.02 60.3274 69.7047 61.4611C70.3893 62.5949 71.3923 63.5025 72.589 64.0713C73.075 64.2928 73.5004 63.5729 73.011 63.3499C71.9417 62.8537 71.0442 62.0512 70.4322 61.0443C69.8203 60.0374 69.5217 58.8714 69.5742 57.6946C69.6034 57.1573 68.7672 57.1589 68.7381 57.6946Z" fill="#FF6584"/>
<path d="M35.9236 184.437C35.7748 184.444 35.6276 184.405 35.5018 184.325C35.376 184.245 35.2777 184.129 35.2202 183.992C35.1628 183.855 35.149 183.703 35.1806 183.558C35.2123 183.412 35.2879 183.28 35.3973 183.179L35.447 182.981C35.4405 182.966 35.4339 182.95 35.4273 182.934C34.7587 181.341 30.4926 185.782 30.3082 187.279C30.227 187.941 30.2612 188.611 30.4095 189.261C29.0276 186.249 28.3101 182.976 28.3054 179.662C28.3051 178.831 28.3514 178 28.4439 177.173C28.5204 176.496 28.6265 175.823 28.7622 175.156C29.5029 171.532 31.0931 168.136 33.4022 165.246C34.7228 165.32 35.8802 165.119 35.9919 162.561C36.0118 162.106 36.3495 161.713 36.4239 161.264C36.2978 161.281 36.1697 161.291 36.0436 161.299C36.0044 161.301 35.963 161.304 35.9237 161.306L35.9089 161.306C35.7704 161.313 35.633 161.279 35.5133 161.209C35.3936 161.139 35.2967 161.035 35.2342 160.912C35.1718 160.788 35.1465 160.649 35.1613 160.511C35.1762 160.373 35.2306 160.243 35.318 160.135C35.3725 160.068 35.4269 160.001 35.4814 159.934C35.5641 159.831 35.6489 159.73 35.7315 159.627C35.7411 159.617 35.75 159.606 35.7584 159.596C35.8535 159.478 35.9485 159.362 36.0436 159.244C35.8701 158.975 35.6367 158.75 35.3616 158.586C34.4088 158.028 33.0943 158.414 32.406 159.275C31.7157 160.137 31.5855 161.345 31.8252 162.421C32.061 163.336 32.451 164.205 32.9785 164.99C32.9268 165.056 32.8731 165.12 32.8214 165.186C31.8769 166.4 31.0537 167.703 30.3635 169.077C30.5588 167.553 28.1711 162.049 27.2478 160.884C26.1386 159.483 23.8643 160.094 23.6689 161.87C23.667 161.887 23.6652 161.904 23.6634 161.921C23.8005 161.998 23.9348 162.08 24.0661 162.167C24.2311 162.277 24.359 162.435 24.433 162.619C24.5069 162.803 24.5235 163.005 24.4806 163.199C24.4377 163.392 24.3372 163.568 24.1924 163.704C24.0475 163.84 23.8651 163.928 23.669 163.958L23.6489 163.962C21.813 166.581 27.6983 173.398 29.1714 171.868C28.4781 173.831 28.0431 175.876 27.8776 177.952C27.7839 179.176 27.7894 180.407 27.8941 181.63L27.8879 181.587C27.5606 178.922 21.9454 174.959 20.3056 175.289C19.361 175.479 18.4306 175.436 18.5741 176.388C18.5763 176.404 18.5787 176.419 18.581 176.434C18.8356 176.538 19.0834 176.657 19.323 176.791C19.4602 176.869 19.5944 176.951 19.7258 177.037C19.8908 177.148 20.0187 177.305 20.0926 177.489C20.1666 177.673 20.1832 177.875 20.1403 178.069C20.0973 178.262 19.9969 178.439 19.852 178.574C19.7072 178.71 19.5248 178.798 19.3286 178.829L19.3085 178.832C19.2941 178.834 19.2817 178.836 19.2672 178.838C18.4316 181.711 24.6288 186.348 28.3964 184.873H28.3984C28.7718 186.494 29.3128 188.072 30.0126 189.582H35.7791C35.7997 189.518 35.8183 189.451 35.8369 189.387C35.3032 189.421 34.7673 189.389 34.2413 189.292C34.6692 188.768 35.097 188.239 35.5248 187.715C35.5344 187.705 35.5434 187.694 35.5517 187.684C35.7687 187.415 35.9878 187.149 36.2048 186.88L36.2049 186.88C36.2165 186.057 36.1218 185.236 35.9236 184.437ZM29.3202 171.457L29.3233 171.452L29.3202 171.461V171.457ZM28.043 182.962L27.9934 182.851C27.9954 182.77 27.9954 182.69 27.9934 182.607C27.9934 182.584 27.9892 182.562 27.9892 182.539C28.0078 182.681 28.0243 182.824 28.045 182.966L28.043 182.962Z" fill="#3B92DA"/>
<path d="M100.017 189.443H18.6042V190H100.017V189.443Z" fill="#CCCCCC"/>
<path d="M207.603 37.6788L207.596 37.6848C206.961 37.0393 206.102 36.6626 205.196 36.6329C204.291 36.6031 203.409 36.9225 202.733 37.525C202.056 38.1274 201.638 38.9666 201.564 39.8688C201.49 40.771 201.767 41.6671 202.336 42.3713L202.329 42.3773L207.031 47.647L212.305 42.9486C212.651 42.6402 212.934 42.2666 213.136 41.849C213.338 41.4315 213.456 40.9783 213.483 40.5152C213.51 40.0521 213.445 39.5883 213.292 39.1503C213.139 38.7123 212.902 38.3086 212.593 37.9624C212.284 37.6162 211.91 37.3342 211.492 37.1326C211.074 36.9309 210.62 36.8136 210.157 36.7873C209.693 36.7609 209.229 36.8261 208.791 36.9791C208.353 37.1321 207.949 37.3698 207.603 37.6788Z" fill="#3B92DA"/>
</g>
<defs>
<clipPath id="clip0_430_407">
<rect width="241" height="190" fill="white"/>
</clipPath>
</defs>
</svg>
