<svg width="326" height="245" viewBox="0 0 326 245" fill="none" xmlns="http://www.w3.org/2000/svg">
<g clip-path="url(#clip0_430_445)">
<path d="M0 148.674C0 148.968 0.236158 149.204 0.530238 149.204H325.47C325.764 149.204 326 148.968 326 148.674C326 148.381 325.764 148.145 325.47 148.145H0.530238C0.236158 148.145 0 148.381 0 148.674Z" fill="#3F3D56"/>
<path d="M208.068 36.311L209.773 58.092L234.482 47.7852L220.543 25.6321L208.068 36.311Z" fill="#A0616A"/>
<path d="M207.328 42.9468C217.5 42.9468 225.746 34.7116 225.746 24.553C225.746 14.3944 217.5 6.15918 207.328 6.15918C197.155 6.15918 188.909 14.3944 188.909 24.553C188.909 34.7116 197.155 42.9468 207.328 42.9468Z" fill="#A0616A"/>
<path d="M172.869 196.05L175.988 223.987L154.156 220.967L161.284 195.16L172.869 196.05Z" fill="#A0616A"/>
<path d="M257.97 200.054L261.089 227.992L239.257 224.972L246.386 199.164L257.97 200.054Z" fill="#A0616A"/>
<path d="M206.063 115.735C205.765 115.735 181.938 116.93 166.196 117.721C158.745 118.096 153.073 124.536 153.651 131.964L159.279 204.281L175.319 204.726L175.711 146.437L207.399 148.217L206.063 115.735Z" fill="#2F2E41"/>
<path d="M276.015 115.29C276.015 115.29 280.025 145.992 276.906 149.107C273.787 152.222 175.988 146.66 175.988 146.66C175.988 146.66 197.443 115.719 201.307 114.837C205.172 113.956 266.658 110.841 266.658 110.841L276.015 115.29Z" fill="#2F2E41"/>
<path d="M149.318 76.636C145.593 71.4342 145.262 65.2986 148.577 62.9321C151.893 60.5655 157.598 62.8643 161.323 68.0685C162.84 70.127 163.841 72.5183 164.242 75.0422L179.744 97.2817L170.922 103.381L154.983 81.6521C152.72 80.4559 150.778 78.7359 149.318 76.636Z" fill="#A0616A"/>
<path d="M207.177 50.1045L229.9 40.7605L272.673 106.614C272.673 106.614 242.821 113.288 232.573 114.623C222.326 115.958 210.741 110.618 210.741 110.618L207.177 50.1045Z" fill="#3B92DA"/>
<path d="M234.801 61.2284L226.558 35.5507L237.252 43.6527C237.252 43.6527 267.55 63.6757 267.55 72.1298C267.55 80.5839 276.906 106.391 276.906 106.391C276.906 106.391 287.377 115.068 283.812 123.077C280.248 131.086 288.491 129.974 289.382 135.758C290.273 141.543 276.683 149.329 276.683 149.329C276.683 149.329 273.342 116.625 262.648 116.625C251.955 116.625 234.801 61.2284 234.801 61.2284Z" fill="#3F3D56"/>
<path d="M208.773 49.448L197.597 53.8867C197.597 53.8867 199.379 85.0335 201.162 87.7033C202.944 90.373 209.182 104.612 209.182 104.612V109.252C209.182 109.252 196.706 113.066 197.152 115.29C197.597 117.515 226.558 123.745 226.558 123.745C226.558 123.745 220.766 105.946 217.202 100.162C213.637 94.3776 208.773 49.448 208.773 49.448Z" fill="#3F3D56"/>
<path d="M201.607 53.8867C201.607 53.8867 188.686 52.1069 186.458 67.2354C184.231 82.3638 185.646 84.3661 185.646 84.3661L182.003 93.0427L169.973 79.6941L158.388 87.2583C158.388 87.2583 179.329 121.075 187.795 120.185C196.261 119.295 208.736 94.8226 208.736 94.8226L201.607 53.8867Z" fill="#3F3D56"/>
<path d="M266.141 120.202L259.53 213.625L242.376 212.958C242.376 212.958 238.588 124.634 238.588 123.3C238.588 121.965 240.371 114.401 251.51 113.956C262.648 113.511 266.141 120.202 266.141 120.202Z" fill="#2F2E41"/>
<path d="M241.262 215.405C241.262 215.405 250.173 212.735 251.51 214.515C252.846 216.295 260.421 217.185 260.421 217.185L262.648 238.988C262.648 238.988 256.411 243.437 255.52 244.327C254.628 245.217 231.014 246.107 230.568 240.768C230.123 235.428 236.806 228.754 236.806 228.754L241.262 215.405Z" fill="#2F2E41"/>
<path d="M175.765 209.176C175.765 209.176 178.438 206.951 179.329 213.18C180.221 219.41 183.339 229.644 178.884 230.979C174.428 232.313 129.873 232.758 129.873 228.754V224.749L133.883 221.635L141.904 220.358C141.904 220.358 157.497 206.061 159.279 206.061C161.062 206.061 166.854 211.846 166.854 211.846L175.765 209.176Z" fill="#2F2E41"/>
<path d="M225.444 34.5311C225.444 34.5311 216.533 23.8522 212.969 24.7421C209.404 25.6321 211.632 26.9669 211.632 26.9669L202.721 17.1779C202.721 17.1779 195.592 14.5082 188.909 22.9623C188.909 22.9623 184.899 15.843 188.909 11.8385C192.919 7.83387 194.256 8.27882 195.147 6.05405C196.038 3.82927 202.276 2.04946 202.276 2.04946C202.276 2.04946 201.918 -1.15282 203.879 0.448317C205.84 2.04945 210.738 2.04946 210.738 2.04946C210.738 2.04946 210.766 0.269637 212.758 2.04946C214.751 3.82927 216.979 2.93936 216.979 2.93936C216.979 2.93936 216.979 6.01901 218.538 6.03653C220.098 6.05405 222.771 3.82927 223.217 5.60909C223.662 7.38891 226.781 8.27882 227.227 13.6183C227.672 18.9577 225.444 34.5311 225.444 34.5311Z" fill="#2F2E41"/>
<path d="M152.823 79.5796L101.925 114.654C100.168 115.864 97.7533 115.422 96.5414 113.668L82.2115 92.9292C80.9995 91.1752 81.4425 88.7635 83.1989 87.5532L134.098 52.4787C135.854 51.2684 138.269 51.7106 139.481 53.4647L153.811 74.2035C155.023 75.9576 154.58 78.3692 152.823 79.5796Z" fill="white"/>
<path d="M139.387 53.5293L153.717 74.2679C154.896 75.9743 154.467 78.3087 152.759 79.4861L127.779 96.6997C121.191 94.902 115.18 90.8641 110.998 84.8123C108.259 80.8481 106.608 76.4595 105.978 71.9936L134.162 52.5722C135.871 51.3947 138.208 51.8229 139.387 53.5293Z" fill="#E6E6E6"/>
<path d="M99.7333 115.781C98.3614 115.781 97.0112 115.131 96.1745 113.921L81.8445 93.1819C81.191 92.2356 80.9456 91.0906 81.154 89.9569C81.362 88.8232 81.9985 87.8395 82.9462 87.1868L133.844 52.1123C135.804 50.7631 138.496 51.2567 139.848 53.2116L154.178 73.9507C154.831 74.8971 155.077 76.0421 154.868 77.1757C154.66 78.309 154.024 79.2932 153.076 79.9459L102.178 115.02C101.431 115.534 100.578 115.781 99.7333 115.781ZM136.29 52.2409C135.62 52.2409 134.943 52.4369 134.351 52.8449L83.4522 87.9194C82.7004 88.4369 82.1956 89.2178 82.0303 90.1177C81.865 91.0171 82.0594 91.9262 82.5781 92.6762L96.9081 113.415C97.9802 114.966 100.117 115.359 101.671 114.288L152.57 79.2132C153.322 78.6957 153.827 77.9149 153.992 77.015C154.157 76.1155 153.963 75.2065 153.444 74.4565L139.114 53.7174C138.451 52.7571 137.379 52.2409 136.29 52.2409Z" fill="#3F3D56"/>
<path d="M100.102 105.426C98.8116 106.315 98.4863 108.086 99.3764 109.375C100.267 110.663 102.04 110.988 103.33 110.099L108.57 106.488C109.86 105.599 110.186 103.828 109.296 102.539C108.405 101.251 106.632 100.926 105.342 101.815L100.102 105.426Z" fill="#3B92DA"/>
<path d="M103.654 76.4926C101.618 77.8952 101.105 80.6898 102.509 82.7224C103.914 84.7549 106.712 85.2674 108.748 83.8649L116.899 78.2475C118.934 76.845 119.448 74.0505 118.043 72.0179C116.639 69.9854 113.841 69.4727 111.805 70.8753L103.654 76.4926Z" fill="#3B92DA"/>
<path d="M151.605 82.6764H89.7643C87.6304 82.6764 85.8942 80.9427 85.8942 78.8116V53.6146C85.8942 51.4835 87.6304 49.7498 89.7643 49.7498H151.605C153.739 49.7498 155.475 51.4835 155.475 53.6146V78.8116C155.475 80.9427 153.739 82.6764 151.605 82.6764Z" fill="white"/>
<path d="M155.361 53.6147V78.8115C155.361 80.8847 153.681 82.5628 151.605 82.5628H121.255C116.855 77.3468 114.204 70.6139 114.204 63.261C114.204 58.4447 115.341 53.8962 117.362 49.8633H151.605C153.681 49.8633 155.361 51.5414 155.361 53.6147Z" fill="#E6E6E6"/>
<path d="M151.604 83.1214H89.7644C87.3848 83.1214 85.4486 81.1882 85.4486 78.8117V53.6144C85.4486 51.238 87.3848 49.3048 89.7644 49.3048H151.604C153.984 49.3048 155.92 51.238 155.92 53.6144V78.8117C155.92 81.1882 153.984 83.1214 151.604 83.1214ZM89.7644 50.1947C87.876 50.1947 86.3397 51.7286 86.3397 53.6144V78.8117C86.3397 80.6976 87.876 82.2315 89.7644 82.2315H151.604C153.493 82.2315 155.029 80.6976 155.029 78.8117V53.6144C155.029 51.7286 153.493 50.1947 151.604 50.1947H89.7644Z" fill="#3F3D56"/>
<path d="M93.5117 74.0474C91.9444 74.0474 90.6693 75.3207 90.6693 76.8859C90.6693 78.451 91.9444 79.7244 93.5117 79.7244H99.8785C101.446 79.7244 102.721 78.451 102.721 76.8859C102.721 75.3207 101.446 74.0474 99.8785 74.0474H93.5117Z" fill="#3B92DA"/>
<path d="M112.89 52.2477C110.417 52.2477 108.406 54.2568 108.406 56.7263C108.406 59.1958 110.417 61.2047 112.89 61.2047H122.794C125.267 61.2047 127.279 59.1958 127.279 56.7263C127.279 54.2568 125.267 52.2477 122.794 52.2477H112.89Z" fill="#3B92DA"/>
<path d="M203.289 169.888H141.449C139.315 169.888 137.579 168.154 137.579 166.023V140.826C137.579 138.695 139.315 136.961 141.449 136.961H203.289C205.423 136.961 207.159 138.695 207.159 140.826V166.023C207.159 168.154 205.423 169.888 203.289 169.888Z" fill="white"/>
<path d="M207.046 140.826V166.023C207.046 168.096 205.365 169.774 203.289 169.774H172.94C168.54 164.558 165.888 157.825 165.888 150.472C165.888 145.656 167.025 141.107 169.047 137.075H203.289C205.365 137.075 207.046 138.753 207.046 140.826Z" fill="#E6E6E6"/>
<path d="M203.289 170.333H141.449C139.069 170.333 137.133 168.399 137.133 166.023V140.826C137.133 138.449 139.069 136.516 141.449 136.516H203.289C205.669 136.516 207.605 138.449 207.605 140.826V166.023C207.605 168.399 205.669 170.333 203.289 170.333ZM141.449 137.406C139.561 137.406 138.024 138.94 138.024 140.826V166.023C138.024 167.909 139.561 169.443 141.449 169.443H203.289C205.177 169.443 206.714 167.909 206.714 166.023V140.826C206.714 138.94 205.177 137.406 203.289 137.406H141.449Z" fill="#3F3D56"/>
<path d="M145.196 161.259C143.629 161.259 142.354 162.532 142.354 164.097C142.354 165.662 143.629 166.936 145.196 166.936H151.563C153.13 166.936 154.405 165.662 154.405 164.097C154.405 162.532 153.13 161.259 151.563 161.259H145.196Z" fill="#3B92DA"/>
<path d="M164.575 139.459C162.102 139.459 160.09 141.468 160.09 143.937C160.09 146.407 162.102 148.416 164.575 148.416H174.479C176.951 148.416 178.963 146.407 178.963 143.937C178.963 141.468 176.951 139.459 174.479 139.459H164.575Z" fill="#3B92DA"/>
<path d="M207.484 147.288C201.804 150.241 195.675 149.708 193.793 146.098C191.912 142.488 194.991 137.169 200.673 134.215C202.926 133.004 205.437 132.35 207.996 132.307L232.219 120.097L237.029 129.675L213.251 142.389C211.748 144.459 209.77 146.138 207.484 147.288Z" fill="#A0616A"/>
<path d="M235.024 43.2077C235.024 43.2077 259.975 41.8729 265.322 55.2215C270.668 68.5702 275.124 112.176 275.124 112.176L220.766 141.709L211.409 127.304L247.945 98.8271L235.024 43.2077Z" fill="#3F3D56"/>
</g>
<defs>
<clipPath id="clip0_430_445">
<rect width="326" height="245" fill="white"/>
</clipPath>
</defs>
</svg>
