<svg width="92" height="92" viewBox="0 0 92 92" fill="none" xmlns="http://www.w3.org/2000/svg">
<circle cx="46" cy="46" r="46" fill="white"/>
<circle cx="46" cy="33" r="15" fill="#0F5769"/>
<path d="M65.8886 66.8242C66.9012 69.8941 67.4465 73.1765 67.4963 76.5L25.5037 76.5C25.5535 73.1765 26.0988 69.8942 27.1114 66.8242C28.1748 63.6002 29.7314 60.6771 31.6883 58.2196C33.6451 55.7622 35.9621 53.8206 38.503 52.4988C41.0433 51.1774 43.7603 50.5 46.5 50.5C49.2397 50.5 51.9567 51.1774 54.497 52.4988C57.0379 53.8206 59.3549 55.7622 61.3117 58.2196C63.2686 60.6771 64.8252 63.6002 65.8886 66.8242Z" fill="#0F5769" stroke="black"/>
</svg>
